<svg xmlns="http://www.w3.org/2000/svg" width="34" height="21"><path fill="#FEFEFE" fill-rule="evenodd" d="M19.443 8.152c-.2.097-.67-.033-1.096-.455-.423-.424-.549-.759-.328-.997.324-.346.832-.214 1.08.304.372.78.467 1.088.344 1.148m-2.334 2.41c-.24.068-.486.12-.68.152-.149-.138-.297-.278-.445-.41-.27-.247-.532-.487-.79-.743l-.54-.539a.05.05 0 0 1-.004-.066.052.052 0 0 1 .066-.015c.335.186.662.384 1.007.57a9.357 9.357 0 0 0 1.181.559c.072.027.148.054.23.079.093.023.145.048.312.064a.627.627 0 0 0 .242-.045c.012-.005.024-.002.03.007.007.008.008.02.002.03-.112.17-.32.275-.611.358M33.967.11a.233.233 0 0 0-.32-.077l-.033.02c-.237.144-.626.242-.971.293a7.51 7.51 0 0 1-1.095.074C31.18.42 30.81.4 30.44.366A9.985 9.985 0 0 0 29.29.29a6.132 6.132 0 0 0-2.293.434 5.01 5.01 0 0 0-1.574 1.025.301.301 0 0 0-.208.053c-.364.261-.602.605-.859.94-.253.336-.49.679-.72 1.03a20.354 20.354 0 0 0-1.003 1.769c-.431-.535-.805-.312-.891-.292 0 0-.461-.35-2.046-.28a2.425 2.425 0 0 0-1.004.254c-.2-.27-.405-.534-.62-.79l-.568-.643c-.197-.209-.372-.436-.645-.574a.304.304 0 0 0-.229-.009c-.25-.173-.557-.238-.829-.283-.382-.05-.755-.055-1.12-.063-.367-.008-.716-.003-1.055-.063-.335-.056-.688-.138-.978-.272l-.012-.007a.234.234 0 0 0-.306.107.232.232 0 0 0 .104.31c.369.183.73.288 1.113.351.382.065.767.072 1.132.065.364-.004.723-.01 1.067.026.238.025.468.061.679.133.003.04.013.08.034.118l.005.007c.14.251.364.423.564.617l.6.587c.22.215.429.44.641.66-.43.359-.676.83-.783 1.19-.153.517-.076.925.127 1.286-.407-.09-1.41-.274-2.09.372-.019.017-.035.038-.053.057a5.27 5.27 0 0 1-.859-.356l-.07-.026-.004-.002a.333.333 0 0 0-.428.196l-.224.609a.209.209 0 0 0-.022.209l.039.087c.17.38.377.71.62 1.027.24.313.515.608.806.87.292.268.6.504.928.714.16.108.33.204.496.303.147.127.399.104.569.199.317.227.565.535.858.79l.878.797a14.175 14.175 0 0 0 1.496.876c.006.005.014.008.021.012a.232.232 0 0 0 .196-.422l-.006-.002c-.43-.2-.854-.428-1.265-.674a.261.261 0 0 0-.094-.189l-.834-.687-.01-.036c-.05-.186-.105-.37-.158-.555-.176-.555-.709-.84-.713-.112-.042-.037-.083-.073-.122-.113l-.018-.014c-.134-.114-.19-.34-.33-.448a1.68 1.68 0 0 1 .138-.14c.48-.421.752-.14 1.273-.63.154-.144.244-.271.307-.39.053-.097.027-.202-.056-.297a3.866 3.866 0 0 1-.781-1.326.027.027 0 0 1 .012-.033c.011-.008.025-.005.035.005.442.44 1.094.848 2.15 1.41.14.211.611.731 1.534.691-.384-.553-.631-1.102-.53-1.262.1-.16.494-.142.66.045.192.213.43.884.44 1.144.58-.053.557-.638.328-1.383.142-.468.227-.752.227-1.312 0-.013.01-.023.022-.026a.028.028 0 0 1 .03.016c.058.14.112.279.157.417.008.028.03.051.056.063.029.012.06.011.086-.002l.512-.244a.756.756 0 0 0 .33.334c-.11.336-.198.674-.266 1.015-.04.205-.084.41-.088.622-.004.21-.003.421.152.656-.045.317-.156.616-.252.918l-.29.935-.006.02a.267.267 0 0 0 .038.207c-.184.42-.411.825-.667 1.19l-.004.008a.232.232 0 1 0 .396.24c.232-.43.418-.87.56-1.327a.265.265 0 0 0 .2-.2l.216-.954c.07-.319.123-.641.25-.946l.005-.024c.218-.178.282-.38.34-.582.059-.203.078-.411.102-.62.042-.415.067-.835.045-1.261l-.078-.27a.666.666 0 0 0-.188-.397.866.866 0 0 0-.36-.251l-.274-.096a.173.173 0 0 0-.093-.008l-.942.157a5.324 5.324 0 0 0-.07-.592s.174-.422.03-.921c.4-.659.815-1.304 1.262-1.926a17.7 17.7 0 0 1 .734-.968c.25-.316.535-.61.74-.944l.01-.016a.31.31 0 0 0 .042-.168 4.966 4.966 0 0 1 1.468-.903A5.705 5.705 0 0 1 29.29.737c.365-.002.723.036 1.106.079a12.6 12.6 0 0 0 1.151.06c.387.001.774-.018 1.164-.075.393-.07.763-.128 1.175-.373l.001-.001a.23.23 0 0 0 .079-.316M4.61 18.426c-.003.009-.008.012-.01.021l-.27.82-.003.008a.255.255 0 0 0-.014.104.907.907 0 0 1-.435.153 2.533 2.533 0 0 1-.817-.062l-.008-.002-.023-.004a.231.231 0 0 0-.26.2.23.23 0 0 0 .199.26c.33.042.644.044.972-.02.162-.035.328-.089.479-.19.042-.026.075-.066.113-.101a.253.253 0 0 0 .279-.161l.326-1.078c.068-.34-.287-.653-.528.052m5.598-6.835c-.1-.075-.2-.151-.305-.221a8.196 8.196 0 0 0-.82-.478c.014-.017.025-.037.04-.054l.313-.419.033-.045c.022-.028.064-.075.1-.073.034.003.058.056.075.088a12.345 12.345 0 0 0 .544.922l.071.1-.051.18m4.742-.247a9.333 9.333 0 0 1-.512-.855.05.05 0 0 0-.05-.027.048.048 0 0 0-.044.036 2.37 2.37 0 0 0-.066.239 2.813 2.813 0 0 0-1.268.006c-.048.013-.11.045-.128.093-.016.046.014.102.042.143.109.16.192.32.28.487.37.707.563 1.253.531 1.277-.038.033-.205-.2-.27-.291-.12-.164-.242-.328-.364-.49a8.9 8.9 0 0 0-.93-1.026 6.022 6.022 0 0 0-1.11-.85.267.267 0 0 0-.277.009c-.009.006-.014.015-.022.022a.25.25 0 0 0-.163.163c-.02.059-.036.116-.053.174-.08-.085-.159-.174-.24-.257-.165-.166-.343-.362-.488-.45-.072-.044-.127-.03-.127-.03l-.003-.002c-.069-.04-.126.008-.185.072-.096.105-.204.242-.314.376l-.326.406a3.358 3.358 0 0 1-.135.16c-.067-.028-.126-.064-.195-.09a.262.262 0 0 0-.161 0 .258.258 0 0 0-.26.086c-.267.33-.536.662-.805.99a4.59 4.59 0 0 0-1.076.432c-2.123 1.183-3.347 2.67-3.12 4.45.012.105.032.196.054.284l-.236.324-.765.962c-.195.289-.433.55-.573.88-.013.03-.01.065-.011.098a1.326 1.326 0 0 1-.489.304 1.72 1.72 0 0 1-.405.08 1.68 1.68 0 0 1-.406-.017l-.008-.002a.233.233 0 0 0-.272.205c-.013.126.08.24.208.253a2.136 2.136 0 0 0 1.025-.15 1.7 1.7 0 0 0 .592-.407.263.263 0 0 0 .19-.072c.26-.245.563-.674.767-.96l.576-.879.58-.875.298-.433c.11-.137.17-.309.348-.397l-.03.035c.144-.045.218-.153.31-.246l.264-.286.525-.578c.345-.388.692-.776 1.018-1.185a41.73 41.73 0 0 0 1.65-2.211.104.104 0 0 1 .16-.01c.261.278.533.551.81.814.2.196.404.381.61.566a35.38 35.38 0 0 0-.224.838l-.346-.277a15.545 15.545 0 0 1-.758-.634.15.15 0 0 0-.119-.038.152.152 0 0 0-.108.06c-.771 1.032-1.386 1.841-2.11 2.935-.807 1.22-1.074 2.111-.216 2.02.982-.169 2.18-.536 3.007-.869-.064.293-.126.59-.207.882-.103.405-.229.807-.32 1.216-.103.405-.207.81-.208 1.237 0 .019.011.034.015.052-.244.303-.75.415-1.175.42H7.12l-.018.001a.233.233 0 0 0-.21.253.232.232 0 0 0 .254.209c.338-.032.649-.107.955-.262.15-.078.295-.181.411-.318.025-.028.04-.064.062-.096a.263.263 0 0 0 .224-.157c.166-.392.229-.806.295-1.22.074-.41.118-.83.182-1.243.056-.417.127-.828.215-1.237a.754.754 0 0 1 .148-.277.757.757 0 0 0 .137-.289l.158-.608c.205-.81.426-1.618.613-2.435a71.3 71.3 0 0 0 .427-1.865.052.052 0 0 1 .04-.04.05.05 0 0 1 .053.02c.136.195.275.386.414.574l.77 1.052c.627.838 1.57 2.067 1.806 2.153.235.084.457-.002.923-.444.279-.264.697-.821 1.116-1.39.056-.075.062-.128-.018-.202a8.8 8.8 0 0 1-1.127-1.371m6.178 8.671h-.003c-.117.023-.27.024-.403.003a1.128 1.128 0 0 1-.385-.132.946.946 0 0 1-.265-.236c.004-.021.01-.042.008-.064-.03-.388-.18-.883-.276-1.256l-.305-1.113c-.1-.37-.265-.727-.178-1.141.051-.21.01-.399-.043-.583l-.14-.56c-.047-.185-.074-.31-.114-.463-.041-.152-.058-.196-.162-.305a6.187 6.187 0 0 0-.596-.554c-.399-.324-.235.222-.15.67.054.285.128.566.192.849l.13.562c.035.19.083.375.223.538.268.333.28.724.36 1.1l.231 1.131c.083.376.178.886.326 1.244.041.1.146.17.262.16.006 0 .012-.005.018-.006.078.117.167.225.282.311.148.113.317.192.493.242.18.048.35.074.554.06.008 0 .02 0 .031-.003a.231.231 0 1 0-.09-.454m-9.281-5.075a5.21 5.21 0 0 1-.932-.488c-.04-.026-.093-.053-.138-.038-.044.015-.075.073-.091.117-.038.107-.07.227-.096.368-.127.744-.043 1.088.33.517.03-.056.059-.108.09-.173a.417.417 0 0 1 .42-.254c.16.006.294.005.41.002a.03.03 0 0 0 .023-.021c.003-.013-.005-.025-.016-.03m-.236-2.184c-.38-.337-.591-.187-.689.146-.095.323-.06.585.17.817 1.253 1.033 1.746 1.323 1.983 1.31.266-.016.32-.258.235-.376-.497-.674-1.532-1.743-1.7-1.897"/></svg>