<svg width="25" height="24" xmlns="http://www.w3.org/2000/svg"><g fill="#E8E8E8" fill-rule="nonzero"><path d="M12.203 7.975c-2.267 0-4.01 1.697-4.01 3.903s1.743 3.903 4.01 3.903c2.266 0 4.009-1.697 4.009-3.903s-1.743-3.903-4.01-3.903z"/><path d="M23.708 4.072c-.349-.848-.697-1.357-1.395-2.205-.697-.68-1.394-1.019-2.266-1.358-.872-.34-1.743-.34-2.963-.509h-4.881S8.542 0 7.147.17c-1.22 0-2.266.17-3.138.678-.523.17-1.22.51-1.917 1.188-.697.51-1.046 1.358-1.395 2.036C.35 4.752.174 5.77.174 6.957 0 8.314 0 11.877 0 11.877s0 3.564.174 4.922c.175 1.357.175 2.206.698 2.884.348.849.697 1.358 1.394 2.206.697.679 1.395 1.018 2.266 1.358.872.339 1.57.339 2.964.509h4.707s3.66 0 5.055-.17c1.22-.17 2.266-.17 2.963-.679.872-.34 1.395-.678 2.267-1.357.697-.679 1.045-1.358 1.394-2.206.349-.849.349-1.527.523-2.885v-4.581-4.921c-.174-1.188-.174-2.036-.697-2.885zM12.203 17.986c-3.487 0-6.276-2.715-6.276-6.108 0-3.394 2.615-6.109 6.276-6.109 3.66 0 6.275 2.715 6.275 6.109 0 3.393-2.789 6.108-6.275 6.108zm6.45-11.029A1.356 1.356 0 0 1 17.257 5.6c0-.68.697-1.358 1.394-1.358.872 0 1.395.679 1.395 1.358 0 .678-.523 1.357-1.395 1.357z"/></g></svg>