<?xml version="1.0" encoding="UTF-8"?>
<svg width="246px" height="236px" viewBox="0 0 246 236" version="1.1" xmlns="http://www.w3.org/2000/svg" xmlns:xlink="http://www.w3.org/1999/xlink">
    <!-- Generator: Sketch 51.3 (57544) - http://www.bohemiancoding.com/sketch -->
    <title>Group 30</title>
    <desc>Created with Sketch.</desc>
    <defs></defs>
    <g id="Page-1" stroke="none" stroke-width="1" fill="none" fill-rule="evenodd">
        <g id="Group-30" fill-rule="nonzero">
            <path d="M79.3958836,12.5019766 C79.6917742,12.7952748 79.099993,13.7729354 79.2972534,14.555064 C79.0013628,16.119321 83.3410919,17.4880459 83.7356127,15.5327246 C84.0315033,14.0662336 85.5109564,3.60526473 85.6095866,2.62760409 C86.1027377,-0.9897403 88.4698626,-0.598676042 88.0753418,2.13877377 C87.680821,4.87622357 87.2863002,5.75611815 87.3849304,5.85388422 C87.5821908,5.56058602 88.0753418,5.26728783 88.2726022,5.56058602 C88.173972,7.51590732 87.4835606,10.5466553 87.4835606,10.9377196 C87.2863002,11.8176142 87.7794512,12.6975087 87.4835606,13.2841051 C87.9767116,13.088573 88.173972,14.1639997 88.173972,13.6751694 C88.2726022,12.5019766 88.0753418,12.1109123 88.6671231,10.4488893 C88.9630137,10.6444214 89.0616439,11.0354856 88.9630137,11.3287838 C88.4698626,13.9684676 88.8643835,17.7813441 88.7657533,20.0299636 C88.7657533,20.1277296 87.7794512,23.9406062 87.7794512,24.7227347 C87.9767116,25.7003953 86.1027377,26.2869917 85.8068471,26.678056 C85.5109564,27.2646524 82.0588992,28.0467809 81.6643784,27.0691202 C81.467118,26.678056 80.1849253,26.678056 80.0862951,26.775822 C79.6917742,26.8735881 79.9876648,27.9490148 79.3958836,28.4378451 C78.8041024,29.1222076 76.732868,29.3177397 77.0287586,28.242313 C77.2260191,27.2646524 77.4232795,26.2869917 77.5219097,25.3093311 C77.7191701,24.4294365 77.9164305,20.9098582 78.0150607,20.3232618 C78.3109513,17.585812 78.0150607,17.7813441 78.2123211,16.2170871 C78.3109513,14.9461282 78.3109513,13.5774033 78.3109513,13.5774033 C78.4095815,13.1863391 78.3109513,12.7952748 78.8041024,12.4042105 C78.9027326,12.5019766 79.3958836,12.5019766 79.3958836,12.5019766 Z M221.983746,43.7058449 C222.570354,44.8804067 207.123024,46.9358898 200.865878,50.9489758 C199.39936,52.0256575 196.955162,53.2980994 196.173019,54.5705413 C195.19534,56.1366237 194.315429,58.2899869 193.239982,60.0518296 C193.533285,59.9539494 193.826589,59.9539494 194.022125,59.8560693 C195.488643,59.3666686 194.999804,60.1497097 193.826589,61.0306311 C192.946678,61.4221517 192.164535,61.9115524 191.480159,62.5967134 C191.968999,62.1073127 193.728821,61.2263914 194.217661,62.4009531 C194.413196,62.7924737 194.022125,63.0861142 193.533285,63.7712752 C191.773463,66.0225186 192.555606,64.4564362 190.795784,66.7076796 C190.013641,67.3928407 189.035962,67.9801216 189.720337,66.3161591 C186.982836,68.1758819 185.907389,71.2101664 184.734174,74.0486907 C182.974351,78.2575371 181.312297,82.857904 179.259171,86.8709901 C177.010509,91.2755967 174.957383,95.8759637 172.415417,100.18269 C171.437738,101.944533 171.633274,103.216975 172.513185,104.880937 C174.370776,108.502503 176.130598,112.221948 177.988188,115.843514 C178.37926,116.528675 178.965867,117.018076 179.552475,117.605357 C179.454707,117.605357 179.161403,117.703237 178.868099,117.801117 C180.23685,120.443881 181.507833,123.184525 182.876583,125.827289 C183.756495,127.589132 184.734174,129.350974 185.711853,131.112817 C186.493996,132.483139 187.178371,131.700098 187.080603,133.559821 C186.982836,133.853461 187.080603,134.049221 187.178371,134.342862 C187.862747,136.496225 190.111409,140.802952 190.209177,140.802952 C193.728821,146.38212 197.248466,149.612165 196.270787,150.395206 C195.390876,151.276127 189.818105,144.032996 189.622569,143.935116 C189.329265,143.837236 188.253818,142.858435 188.058283,142.956315 C186.885068,143.641476 181.214529,134.440742 181.116761,134.244982 C180.823457,135.321663 181.018993,136.104704 181.801137,136.691985 C181.898904,136.789865 182.09444,136.887746 182.09444,136.985626 C182.485512,138.355948 183.854263,141.096592 183.072119,142.173274 C183.658727,142.956315 183.95203,143.837236 184.343102,144.816038 C185.125245,147.067281 191.089088,154.604052 191.968999,155.876494 C193.33775,158.225618 192.457838,159.7917 190.795784,157.736217 C189.524801,156.170135 186.689532,150.982487 185.516317,149.318524 C185.027477,148.829124 181.996672,145.011798 181.507833,145.011798 C182.09444,145.892719 182.58328,146.67576 183.072119,147.556682 C183.463191,148.241843 185.320781,150.590966 185.516317,151.276127 C185.614085,151.569768 184.734174,152.450689 183.854263,150.590966 C183.365423,149.905805 183.072119,149.416405 182.778816,148.927004 C181.996672,147.752442 181.116761,146.67576 180.432386,145.501199 C176.814973,139.62839 172.122114,134.440742 168.993541,128.274293 C168.309165,126.80609 167.62479,125.337888 166.451575,124.163326 C165.27836,123.086645 163.225234,120.737521 162.93193,120.737521 C162.93193,119.367199 160.585501,118.388398 160.878804,116.920195 C159.70559,117.018076 158.434607,118.388398 157.945767,119.269319 C157.456928,120.15024 156.968088,121.129042 156.479249,122.009963 C155.50157,123.869686 154.426123,125.827289 153.448444,127.687012 C144.551564,144.522397 136.241292,161.651423 128.713163,179.171969 C127.246644,182.695655 124.313607,186.806621 123.433696,190.134546 C123.23816,190.819707 123.140392,191.504868 123.042624,192.190029 C122.847089,192.97307 121.86941,193.853992 121.087266,193.462471 C119.425212,192.67943 120.793963,191.113348 120.989498,190.917587 C122.553785,189.449385 123.922536,189.449385 123.23816,188.470584 C122.456017,188.079063 122.553785,187.296022 122.944857,186.4151 C125.486822,180.640172 128.908699,174.767363 130.27745,168.600914 C130.375217,168.992434 130.375217,169.286075 130.472985,169.579715 C130.179682,168.307273 131.352897,166.15391 131.6462,165.077228 C131.939504,164.098427 133.014951,163.609026 132.819415,162.728105 C132.623879,161.749303 132.623879,160.966262 133.210487,160.183221 C133.406023,159.7917 133.406023,159.204419 133.406023,158.617138 C132.819415,160.378981 129.397538,166.25179 128.615395,167.719992 C125.780126,172.71188 123.042624,177.899528 120.402891,182.989295 C120.109587,182.499895 119.425212,182.793535 119.229676,183.185056 C118.349765,184.946898 118.545301,186.512981 116.981014,188.274823 C115.025656,190.623947 114.047977,195.028553 111.506011,196.692516 C110.6261,197.279797 109.746189,198.747999 109.159582,197.867078 C108.572974,197.181917 108.670742,196.496756 109.061814,195.811595 C109.452885,195.126434 109.746189,194.637033 109.941725,193.951872 C109.648421,193.658231 109.355118,193.853992 108.964046,193.658231 C108.76851,193.560351 108.572974,193.168831 108.475206,192.97307 C108.76851,192.58155 108.866278,192.287909 109.061814,191.994269 C109.25735,191.602748 109.550653,191.211228 109.843957,190.917587 C110.430564,190.428186 110.528332,189.547265 110.039493,188.764224 C105.05333,195.028553 100.164934,201.292883 95.2765389,207.557212 C94.201092,208.731774 93.5167166,207.263572 93.7122524,206.676291 C94.0055561,205.599609 94.3966278,205.69749 94.7876994,205.403849 C95.0810031,204.425048 95.178771,203.739887 96.0586822,202.761085 C97.4274329,201.292883 98.6984157,199.62892 99.9693985,198.062838 C102.413596,195.028553 104.857794,191.896389 107.204224,188.764224 C108.475206,187.100261 110.039493,185.632059 110.723868,183.576576 C110.723868,183.380816 111.212708,183.282936 111.506011,183.087175 C112.092619,182.695655 115.416728,176.137685 118.251997,170.852157 C123.042624,161.847183 124.118071,161.064142 129.202003,150.493086 C129.299771,150.297326 126.757805,154.310412 125.389054,156.170135 C123.824768,158.323498 122.553785,160.574741 120.989498,162.728105 C119.620748,164.587827 116.981014,168.698794 114.927888,171.635198 C113.070298,174.082202 110.137261,172.71188 112.092619,170.460636 C112.288155,170.264876 118.154229,163.315386 119.914051,160.868382 C123.531464,155.876494 127.051109,150.884607 130.864057,146.08848 C131.6462,145.109678 130.179682,145.011798 131.548432,143.445716 C131.743968,143.152075 131.841736,142.760555 132.037272,142.564794 C132.917183,141.683873 133.797094,140.802952 134.677005,139.92203 C137.121203,137.377146 138.881025,133.755581 140.640848,130.721296 C142.302902,127.980652 144.453796,125.435768 146.115851,122.597244 C146.311386,122.205723 148.266744,118.877798 148.266744,118.584158 C148.266744,117.605357 152.959604,107.132181 154.719426,103.902136 C152.470764,102.923334 149.635495,96.4632446 148.657816,94.3098813 C148.46228,93.8204806 148.364512,93.1353196 148.755584,92.9395593 C148.168977,92.4501585 144.942636,88.6328328 144.453796,88.0455519 C143.280581,86.0879489 144.649332,84.4239864 146.311386,86.4794695 C147.289065,87.6540313 150.417638,93.5268401 151.688621,94.4077615 C151.590853,92.6459188 150.613174,90.1989151 149.537727,88.7307129 C148.364512,87.0667504 146.018083,82.857904 145.724779,82.172743 C145.333707,81.1939415 145.920315,81.0960614 146.506922,81.2918217 C147.09353,81.487582 147.680137,81.7812224 148.266744,81.9769827 C148.560048,82.0748629 148.853352,82.0748629 149.146656,82.0748629 C149.048888,81.8791026 149.048888,81.5854621 148.95112,81.3897018 C148.168977,78.9426981 151.395317,78.2575371 153.057372,78.5511775 C153.252908,78.6490577 153.546211,78.7469378 153.741747,78.6490577 C153.937283,78.5511775 154.035051,78.4532974 154.230587,78.4532974 C154.817194,78.2575371 155.306034,78.5511775 155.697105,78.9426981 C156.772552,80.21514 157.652464,82.0748629 159.21675,83.1515445 C160.389965,82.7600239 161.172108,83.7388254 161.172108,85.0112673 C161.172108,86.8709901 162.638627,89.8073945 163.714074,91.3734769 C164.887289,89.7095144 165.7672,87.8497916 167.13595,86.2837092 C169.580148,83.4451849 171.33997,79.529979 175.152919,72.0910878 C175.739526,70.8186459 177.499349,67.7843613 177.206045,66.3161591 C177.010509,65.5331179 168.602469,69.2525635 168.11363,69.2525635 C162.638627,69.2525635 156.577017,72.874129 151.493085,74.4402113 C149.928799,74.8317319 144.551564,75.5168929 144.062724,77.0829753 C143.867189,77.9638966 142.009598,80.21514 140.934151,80.0193797 C140.249776,79.9214996 139.858704,79.2363386 139.760937,78.6490577 C139.858704,79.3342187 137.414507,81.6833423 136.730131,81.487582 C136.045756,81.3897018 135.654684,80.4109003 135.947988,79.7257393 C135.947988,78.3554172 135.459149,77.6702562 133.503791,78.0617768 C131.450664,79.6278592 129.690842,77.4744959 130.961825,76.2999341 C131.157361,76.1041738 132.819415,72.5804885 134.090398,71.5038069 C135.165845,70.6228856 136.534596,71.1122863 136.33906,69.4483238 C136.241292,69.0568032 136.436828,68.7631627 136.045756,68.7631627 C134.48147,68.6652826 132.721647,70.5250054 131.548432,71.3080466 C129.690842,72.5804885 128.224324,74.1465709 126.268965,75.2232525 C123.922536,76.4956944 116.394407,81.5854621 114.634584,83.1515445 C111.603779,85.7943085 108.964046,86.5773497 105.737705,88.3391923 C104.760026,88.6328328 102.7069,89.1222335 102.21806,88.7307129 C101.533685,88.4370725 100.164934,88.7307129 99.7738626,88.8285931 C98.7961836,89.2201136 97.7207366,89.4158739 96.0586822,89.9052747 C94.3966278,90.3946754 92.8323413,89.7095144 93.4189487,89.2201136 C94.0055561,88.7307129 95.0810031,88.8285931 95.9609143,88.6328328 C93.9077882,89.1222335 88.921625,88.2413122 87.7484101,86.5773497 C85.2064445,82.9557842 86.5751952,77.2787356 87.9439459,72.7762488 C88.4327855,71.4059267 86.8684989,71.2101664 87.2595706,69.8398444 C88.7260892,64.8479568 88.921625,61.3242715 91.6591264,56.8217847 C90.0948399,56.6260244 89.7037682,55.2557023 88.1394817,55.1578222 C87.7484101,55.1578222 87.2595706,55.1578222 86.8684989,55.3535825 C86.4774273,55.6472229 86.2818915,56.2345038 86.1841236,56.7239046 C83.5443901,69.2525635 80.9046566,81.7812224 78.2649231,94.3098813 C77.8738515,93.9183607 77.9716194,93.1353196 77.8738515,92.5480387 C77.0917083,92.1565181 76.8961724,93.42896 76.9939403,94.114121 C77.0917083,94.7992821 77.6783157,94.8971622 77.5805478,95.5823233 C77.4827799,96.2674843 76.6028687,96.8547652 75.5274217,96.9526453 C74.5497427,96.8547652 74.6475106,92.6459188 74.158671,90.4925556 C72.9854562,93.3310799 70.8345622,97.6378064 67.8037571,98.1272071 C67.5104534,98.1272071 67.1193818,98.2250872 66.7283101,98.0293269 C65.5550952,97.5399262 65.6528632,95.7780835 66.0439348,94.5056416 C69.5635794,81.7812224 71.9100092,67.4907208 72.3010808,54.7663016 C72.3010808,54.1790207 72.3010808,53.4938597 71.9100092,53.0044589 C71.5189376,52.4171781 70.6390264,52.3192979 69.9546511,52.2214178 C61.8399148,51.5362567 53.7251785,50.7532155 45.6104422,49.9701744 C43.8506199,49.8722942 43.6550841,48.8934927 44.4372274,48.7956126 C45.2193706,48.6977324 46.2948176,48.6977324 48.2501757,48.5019721 C50.4988376,48.404092 50.4010697,48.6977324 53.0408032,48.5019721 C70.052419,47.1316501 69.4658115,43.803725 65.3595594,44.0973655 C64.1863445,44.3910059 61.1555394,45.4676876 60.9600036,44.8804067 C60.2756283,43.6079648 66.1417027,42.6291633 67.7059892,41.9440022 C69.2702757,41.2588412 70.7367943,40.0842794 72.3988487,39.6927588 C74.0609031,39.3012382 76.309565,39.3991184 76.8961724,37.833036 C77.385012,36.462714 76.7984045,34.2114706 78.1671552,34.1135904 C79.0470664,34.9945117 79.2426022,36.462714 78.6559948,37.5393956 C77.9716194,38.8118375 82.3711752,38.5181971 82.566711,38.5181971 C83.9354617,38.5181971 84.8153729,38.5181971 85.5975162,38.7139574 C87.4551064,39.105478 92.3435017,38.7139574 92.5390375,39.3012382 C92.7345734,39.9863993 90.8769831,40.7694405 88.1394817,41.5524816 C88.921625,41.5524816 89.8015361,41.3567214 89.8993041,42.2376427 C89.8015361,43.2164442 88.3350175,43.118564 88.0417138,44.3910059 C87.3573385,47.3274104 87.7484101,49.8722942 86.9662668,52.4171781 C88.4327855,53.5917398 89.997072,54.1790207 91.7568943,54.9620619 C93.4189487,55.0599421 93.4189487,54.1790207 94.2988599,52.7108185 C99.382791,44.5867662 102.315828,43.2164442 107.301991,40.9652008 C106.91092,40.0842794 104.760026,41.6503618 104.56449,41.0630809 C104.466722,40.7694405 106.324312,39.8885191 107.301991,39.4969985 C112.679226,37.3436353 114.145745,37.833036 114.536817,37.6372757 C116.687711,36.6584743 116.883246,36.462714 119.131908,35.8754331 C121.673874,35.190272 122.651553,35.6796728 124.802447,35.6796728 C124.997983,35.7775529 125.193518,35.9733132 125.389054,36.0711934 C125.58459,36.0711934 125.877894,36.0711934 126.07343,36.0711934 C127.44218,35.9733132 131.939504,38.1266765 132.037272,39.6927588 C132.037272,40.4758 131.939504,41.1609611 133.014951,41.8461221 C134.090398,42.5312831 133.601558,43.803725 133.308255,44.8804067 C132.526111,47.1316501 130.27745,48.6977324 129.006467,50.6553354 C128.028788,52.2214178 127.051109,53.68962 125.486822,54.7663016 C123.335928,56.2345038 121.087266,57.6048259 118.838604,58.975148 C116.198871,60.5412303 117.078782,57.702706 117.567622,56.6260244 C118.154229,55.3535825 117.078782,52.4171781 115.514496,52.1235376 C110.821636,51.1447361 105.248865,50.6553354 99.9693985,63.5755149 C99.8716306,63.8691554 99.382791,64.0649157 99.0894873,63.7712752 C99.382791,64.7500767 99.0894873,66.2182789 98.7961836,65.7288782 C98.1118082,68.273762 96.0586822,74.4402113 100.458238,75.2232525 C105.639937,76.1041738 111.994851,74.0486907 116.785478,70.916526 C117.17655,70.7207657 117.66539,70.231365 117.372086,69.8398444 C116.981014,70.1334848 116.296639,70.231365 116.101103,69.8398444 C115.514496,70.7207657 113.754673,71.1122863 113.363602,69.8398444 C113.363602,69.7419642 113.656905,69.4483238 113.852441,69.3504436 C114.047977,69.2525635 114.243513,69.4483238 114.536817,69.5462039 C115.123424,69.1546833 115.710031,68.6652826 116.394407,68.3716422 C117.763158,67.6864811 119.229676,67.1970804 120.500659,66.5119193 C121.967178,65.630998 123.433696,65.7288782 124.900215,64.7500767 C124.997983,64.7500767 126.855573,63.9670355 126.953341,63.9670355 C128.713163,63.2818745 129.886378,62.988234 132.13504,61.7157921 C134.774773,60.2475899 137.023435,58.975148 139.272097,56.6260244 C138.783257,56.7239046 138.294418,56.9196649 137.805578,57.1154252 C138.392186,53.1023391 138.881025,49.089253 139.467633,45.076167 C139.858704,42.6291633 139.467633,38.9097177 140.738616,36.6584743 C140.445312,35.9733132 140.152008,35.3860323 139.956472,34.8966316 C140.249776,34.505111 140.640848,34.2114706 140.934151,33.81995 C140.934151,33.7220698 140.836384,33.5263095 140.738616,33.4284294 C140.05424,33.6241897 139.467633,33.81995 138.881025,34.0157103 C138.489954,34.2114706 138.001114,34.4072309 137.610043,34.4072309 C137.218971,34.3093507 136.827899,34.0157103 136.632364,33.7220698 C136.436828,33.4284294 136.534596,32.7432683 136.730131,32.547508 C139.760937,29.6111036 142.987277,29.4153433 146.995762,28.6323021 C148.46228,28.3386617 152.372997,27.4577404 153.15514,27.2619801 C160.292197,25.3043771 167.62479,25.0107367 174.761847,23.248894 C177.206045,22.6616131 179.943546,22.563733 182.289976,21.8785719 C186.005157,20.8018903 189.818105,19.7252087 193.728821,19.2358079 C193.826589,19.2358079 193.924357,19.1379278 194.022125,19.1379278 C194.804268,18.9421675 195.586411,18.8442874 195.879715,19.6273285 C196.075251,20.3124896 195.390876,20.7040102 194.608732,20.8018903 C193.533285,20.9976506 192.457838,21.0955308 191.382391,21.291291 C189.818105,21.6828116 188.253818,21.9764521 186.689532,22.4658528 C188.351586,22.8573734 189.427033,22.8573734 190.795784,22.6616131 C191.382391,22.563733 192.066767,22.4658528 192.653374,22.563733 C193.239982,22.6616131 193.631053,23.0531337 193.239982,23.3467742 C193.435517,23.3467742 191.871231,23.5425344 192.066767,23.5425344 C190.600248,24.0319352 191.089088,23.7382947 189.622569,24.2276955 C189.13373,24.3255756 188.547122,24.4234558 188.253818,24.2276955 C188.449354,24.3255756 186.493996,24.9128565 186.29846,24.9128565 C186.493996,25.3043771 186.493996,25.6958977 186.689532,25.891658 C186.7873,25.9895381 187.276139,26.1852984 187.471675,26.0874183 C188.15605,25.7937778 188.547122,25.7937778 188.64489,26.3810587 C189.231497,26.1852984 190.50248,25.9895381 190.99132,25.7937778 C192.262303,25.4022573 192.751142,25.9895381 191.480159,26.3810587 C190.698016,26.576819 188.64489,26.9683396 187.764979,27.1640999 C184.538638,28.0450212 182.09444,28.3386617 178.868099,29.1217029 C176.52167,29.7089838 173.393097,30.5899051 171.046667,31.177186 C167.820326,31.862347 164.887289,33.0369088 159.998893,34.8966316 C158.434607,35.4839125 156.87032,37.2457551 155.306034,37.833036 C154.914962,38.0287963 154.52389,38.4203169 154.035051,38.9097177 C153.643979,38.8118375 153.350676,38.6160772 153.057372,38.5181971 C152.959604,38.9097177 152.861836,39.3991184 152.764068,39.790639 C152.568532,41.7482419 152.372997,43.803725 152.079693,45.761328 C151.981925,46.9358898 151.688621,48.0125714 151.493085,49.089253 C152.079693,48.8934927 152.568532,48.6977324 153.15514,48.5019721 C153.15514,48.5019721 153.057372,48.404092 152.861836,48.1104516 C153.350676,48.6977324 164.985057,42.2376427 166.256039,41.6503618 C173.588632,38.2245566 179.650243,34.8966316 186.689532,32.4496279 C187.373907,32.1559875 188.840426,31.7644669 189.035962,32.547508 C189.13373,32.9390286 188.449354,33.3305492 188.253818,33.6241897 C186.885068,35.4839125 184.92971,35.5817926 183.267655,37.2457551 C183.854263,37.3436353 184.538638,37.3436353 185.125245,37.3436353 C182.192208,38.9097177 179.356939,40.4758 176.423902,42.0418824 C176.423902,41.9440022 176.423902,42.0418824 176.423902,42.0418824 C176.326134,42.2376427 174.957383,43.0206839 174.566311,43.2164442 C171.82881,44.8804067 168.993541,46.6422493 166.256039,48.404092 C164.593985,49.4807736 160.781037,50.9489758 160.096661,53.0044589 C159.901125,53.4938597 159.901125,54.0811406 159.607822,54.5705413 C159.314518,54.9620619 158.923446,55.2557023 158.532375,55.5493428 C157.261392,56.332384 155.697105,56.7239046 154.52389,57.6048259 C154.52389,57.6048259 152.177461,59.5624289 153.15514,59.5624289 C151.590853,59.4645487 150.80871,60.7369906 150.222103,62.5967134 C150.906478,62.303073 151.493085,62.2051928 151.981925,61.9115524 C153.15514,61.3242715 154.426123,60.9327509 155.306034,60.0518296 C156.088177,59.2687884 159.118982,59.3666686 159.118982,59.3666686 C157.261392,60.34547 155.306034,61.4221517 153.448444,62.4009531 C152.6663,62.8903539 152.079693,63.3797546 151.884157,64.2606759 C151.884157,64.2606759 151.786389,64.3585561 151.786389,64.3585561 C151.786389,64.4564362 151.786389,64.4564362 151.884157,64.4564362 C151.884157,64.3585561 151.981925,64.3585561 151.981925,64.2606759 C152.861836,63.6733951 157.261392,63.1839943 158.239071,62.7924737 C162.052019,61.2263914 164.300681,61.5200318 167.62479,59.0730281 C169.189077,57.8005862 173.979704,56.7239046 175.837294,55.9408634 C177.89042,55.1578222 180.823457,54.374781 182.876583,53.68962 C184.636406,53.0044589 186.7873,52.7108185 188.449354,52.0256575 C192.653374,50.2638148 196.075251,49.1871332 200.572575,48.2083317 C206.047577,46.9358898 209.66499,46.2507287 215.237761,44.8804067 C217.486423,44.2931258 221.397139,42.5312831 221.983746,43.7058449 Z M29.5560382,49.0128828 C29.656291,49.1073283 30.658819,48.9184373 31.3605886,47.9739824 C31.8618527,47.312864 32.7641279,46.3684091 33.4658975,47.5962004 C33.6664031,48.0684279 36.1727232,47.5962004 36.1727232,48.3517643 C36.1727232,48.7295463 34.4684255,49.3906647 34.0674143,49.4851102 C33.8669087,49.5795557 33.5661503,49.6740012 33.5661503,49.7684467 C33.0648863,50.3351196 32.5636223,50.2406741 31.9621055,50.1462286 C31.2603358,50.0517831 30.8593246,50.0517831 30.658819,50.9017925 C30.7590718,51.185129 32.2628639,50.996238 33.7666559,50.5240106 C36.5737344,49.9573377 42.3883969,50.2406741 36.3732288,51.2795745 C35.2704479,51.37402 35.8719648,51.6573565 34.7691839,51.7518019 C34.4684255,51.7518019 33.8669087,52.1295839 33.9671615,52.1295839 C34.4684255,52.1295839 33.5661503,52.6962568 33.0648863,52.7907023 C32.4633695,52.8851478 33.2653919,52.8851478 30.2578078,53.4518208 C28.8542686,52.5073659 27.9519934,53.6407117 26.9494653,54.1129392 C26.2476957,54.3962756 25.6461789,54.7740576 24.9444093,54.9629486 C24.5433981,55.0573941 23.8416285,54.9629486 23.5408701,54.7740576 C23.2401117,54.5851666 23.039606,54.0184937 23.039606,53.5462662 C23.039606,52.4129204 22.8391004,51.185129 23.3403645,50.3351196 C23.7413757,49.5795557 23.6411229,48.5406553 24.6436509,47.9739824 C24.8441565,47.6906459 28.4532574,48.1628734 29.5560382,49.0128828 Z M234.431994,40.1319887 C233.710945,39.8591962 230.105699,41.0412971 230.002692,40.6775737 C229.899684,40.2229195 232.783881,39.3136112 233.401924,38.9498878 C234.431994,38.4043028 235.668078,38.1315103 236.904163,37.6768561 C237.213184,37.5859252 237.419198,37.3131327 237.625212,37.131271 C237.934233,36.9494094 238.243254,36.6766169 238.552275,36.6766169 C240.303395,36.7675477 242.260528,36.3128935 243.805634,36.040101 C245.350739,35.7673085 246.174796,36.9494094 245.968782,37.6768561 C245.762768,38.4043028 244.526683,38.5861645 244.526683,39.1317495 C244.526683,39.404542 244.011648,39.6773345 243.702627,39.8591962 C243.290599,40.1319887 242.466543,40.0410579 242.672557,40.8594354 C242.672557,40.9503663 242.260528,41.3140896 241.951507,41.3140896 C241.024444,41.4959513 239.994374,41.5868821 239.06731,41.677813 C237.934233,41.7687438 236.698149,41.8596746 235.565071,41.8596746 C235.153043,41.8596746 234.535001,42.3143288 234.431994,41.5868821 C234.122973,41.2231588 234.328987,40.8594354 234.431994,40.1319887 Z" id="Combined-Shape" fill="#FFFFFF"></path>
            <path d="M154,39 C154.2,39 154.2,39 154,39 Z" id="Shape" fill="#000000"></path>
            <path d="M154.2,39 C154.2,39 154.2,39 154.2,39 C154.2,39 154.2,39 154.2,39 C154,39 154,39 154,39 C154.2,39 154.2,39 154.2,39 Z" id="Shape" fill="#000000"></path>
            <path d="M152.088889,64.4 C152.088889,64.2 152.088889,64.2 152.288889,64 C152.088889,64.2 152.088889,64.2 152.088889,64.4 C151.888889,64.4 152.088889,64.6 152.088889,64.4 Z" id="Shape" fill="#000000"></path>
            <path d="M176,42.15 C176.2,42.15 176.2,42.15 176,42.15 C176.2,41.95 176.2,41.95 176,42.15 Z" id="Shape" fill="#000000"></path>
            <path d="M147.881477,103.472518 C146.606769,100.049963 144.057353,98.5831539 140.821556,97.2141318 C140.233229,96.9207699 139.056576,94.7694496 138.664358,94.9650242 C137.487704,95.5517479 136.605214,94.4760877 135.526615,94.0849386 C134.251907,93.6937894 131.8986,94.7694496 132.094709,94.9650242 C131.408328,95.0628115 130.721947,94.6716623 130.035566,94.573875 C128.760858,94.1827259 125.623115,95.9428971 125.72117,96.9207699 C125.819224,97.7030683 124.152298,97.4097064 123.465917,98.1920047 C123.073699,98.6809411 122.485372,98.8765157 121.897046,99.1698776 C120.034011,100.049963 118.170976,101.321198 116.307942,102.396858 C116.013778,103.570306 113.660471,104.548178 113.954635,105.037115 C114.248798,105.526051 114.73907,104.939328 115.131288,104.743753 C116.209887,104.059242 117.386541,103.081369 118.661249,102.69022 C118.661249,103.081369 118.46514,103.276944 118.367085,103.570306 C116.111833,109.53533 112.97409,111.588863 111.993546,118.042824 C111.797437,119.020697 111.503273,123.6167 111.895491,124.496785 C112.189655,125.083509 112.581872,125.963595 111.993546,126.256957 C111.307164,126.648106 109.836348,125.963595 109.836348,126.354744 C109.640239,126.745893 109.051912,125.963595 109.149966,126.256957 C109.248021,126.941468 109.051912,127.23483 108.463585,127.430404 C106.992768,127.821553 105.325843,128.408277 103.756971,128.408277 C103.756971,128.114915 103.658917,127.821553 103.756971,127.528191 C103.364754,127.723766 100.521174,129.581724 100.030902,129.679512 C98.5600852,129.972874 92.9709812,131.244108 91.5982188,131.439683 C90.6176742,131.635258 89.7351841,132.221981 88.852694,132.515343 C89.0488029,132.221981 89.2449119,131.928619 89.4410208,131.635258 C90.3235109,130.657385 91.1079465,129.777299 91.9904366,128.799426 C92.8729267,127.919341 94.0495802,127.23483 95.0301248,126.550319 C96.4028872,125.572446 97.2853773,124.203424 98.5600852,123.225551 C99.9328476,122.052103 101.207555,120.683081 102.1881,119.118485 C102.384209,118.825123 102.580318,118.531761 102.776427,118.238399 C103.266699,117.651675 103.855026,117.358313 104.345298,116.869377 C104.933625,116.282653 105.227788,115.402568 105.227788,114.522482 C106.110278,114.522482 106.894714,114.033546 107.483041,113.446822 C108.365531,112.566736 108.953858,111.295501 109.738293,110.219841 C110.130511,109.633118 110.424674,109.53533 110.816892,108.655245 C111.20911,107.775159 110.228565,107.677372 109.640239,108.068521 C109.051912,108.45967 106.600551,111.00214 105.914169,111.882225 C105.620006,110.61099 106.502496,108.264095 105.423897,108.655245 C104.933625,108.850819 104.443353,108.850819 104.149189,108.45967 C104.639461,108.068521 105.031679,107.481797 104.933625,107.090648 C104.83557,106.699499 104.247244,106.895073 102.874481,106.895073 C103.266699,106.503924 103.560862,106.112775 103.95308,105.623839 C104.639461,104.743753 105.423897,103.863667 105.620006,102.788007 C105.71806,102.396858 105.620006,102.005709 105.423897,101.712347 C105.129734,101.223411 104.443353,101.125623 103.855026,101.027836 C100.815338,100.636687 99.3445208,100.734474 96.5009416,101.907922 C93.9515257,102.983582 89.4410208,103.570306 86.695496,104.157029 C83.7538623,104.743753 80.6161197,105.917201 77.674486,106.406137 C76.2036692,106.601712 71.9873276,109.046394 70.8106741,108.264095 C70.1242929,107.775159 67.4768226,109.437543 66.692387,109.53533 C66.3982236,109.53533 58.4558127,110.024267 61.2013374,111.588863 C61.7896642,111.980012 62.4760454,112.175587 63.0643721,112.468949 C63.0643721,112.566736 63.0643721,112.762311 62.9663176,112.762311 C61.3974463,113.642396 59.5344117,114.326907 57.7694315,114.718057 C53.4550354,115.695929 52.9647631,116.576015 48.6503671,116.869377 C48.1600948,116.869377 47.6698225,116.967164 47.2776047,117.260526 C47.2776047,117.260526 47.2776047,117.260526 47.2776047,117.260526 C46.5912235,117.945037 41.1982284,119.802996 40.2176838,119.99857 C38.6488125,120.291932 35.9032878,120.976443 34.3344165,121.269805 C33.8441442,120.683081 33.2558175,121.465379 32.5694363,121.563167 C31.9811095,121.660954 31.0986194,121.465379 31.0986194,122.736614 C31.5888917,124.887935 36.0993967,122.052103 39.3351937,122.052103 C39.3351937,122.052103 43.0612631,121.269805 43.0612631,121.172018 C43.5515353,121.172018 44.2379165,121.758741 44.2379165,122.638827 C44.2379165,122.932189 43.9437532,123.127763 43.6495898,123.323338 C41.5904462,124.301211 39.1390848,124.203424 36.9818868,124.985722 C35.2169066,125.572446 33.5499808,126.452531 31.6869462,126.941468 C29.3336392,127.723766 25.2153521,127.625979 23.7445352,130.168448 C23.5484263,130.46181 23.5484263,130.950747 23.6464808,131.244108 C23.7445352,131.439683 24.8231342,132.124194 26.0978422,131.53747 C39.4332482,126.648106 46.5912235,123.812274 49.2386938,122.345465 C51.003674,121.367592 52.3764364,120.487507 53.4550354,119.900783 C54.9258522,119.118485 61.2013374,116.869377 58.8480305,119.411846 C58.0635948,119.802996 57.3772136,120.291932 56.6908325,120.976443 C55.7102879,120.683081 54.9258522,121.465379 54.43558,122.247678 C53.2589265,124.007849 55.2200156,124.105636 56.0044513,124.790147 C56.2005602,124.985722 58.3577582,124.007849 58.6519216,123.910062 C59.6324661,123.6167 60.7110651,123.225551 61.6916097,122.932189 C63.5546444,122.247678 63.6526988,123.029976 64.2410256,123.127763 C64.9274068,123.225551 64.7312978,125.083509 65.417679,125.279084 C65.5157335,125.279084 65.613788,125.279084 65.613788,125.376871 C65.613788,125.474658 65.613788,125.474658 65.613788,125.572446 C65.5157335,125.963595 65.1235157,130.070661 64.8293523,130.070661 C64.8293523,130.070661 64.6332434,130.070661 64.4371345,130.070661 C64.5351889,130.46181 63.7507533,133.982152 63.3585355,135.448962 C62.5740998,138.578155 61.9857731,141.511774 61.2993919,144.738754 C60.3188473,149.041395 60.3188473,150.214842 58.9460849,152.855099 C58.6519216,153.344036 56.592778,153.832972 56.1025057,154.224121 C54.8277978,155.201994 53.3569809,155.984292 51.9842186,156.962165 C51.3958918,157.353315 50.9056195,157.842251 50.3172928,158.2334 C48.7484215,159.30906 47.0814958,159.993571 45.41457,160.971444 C44.7281888,161.362593 44.8262433,161.558168 44.6301344,161.753743 C44.2379165,162.536041 45.0223522,162.438254 45.2184611,162.047104 C47.3756591,160.77587 49.5328572,159.602422 51.6900552,158.331187 C50.7095106,158.917911 52.8667087,159.895784 54.5336344,158.820124 C53.9453077,159.602422 51.8861641,162.340466 52.8667087,162.536041 C53.3569809,162.633828 53.9453077,162.536041 54.43558,162.340466 C54.3375255,163.122765 54.7297433,163.416126 54.9258522,162.829403 C56.6908325,161.753743 55.3180701,160.77587 57.2791592,159.895784 C57.3772136,160.091359 57.4752681,160.286933 57.4752681,160.482508 C57.1811047,161.753743 56.8869414,162.92719 56.592778,164.198425 C56.4947235,164.491787 55.8083423,164.491787 55.8083423,164.785149 C55.7102879,167.132043 55.6122334,169.576726 54.43558,171.728046 C54.239471,172.119195 54.239471,172.608132 54.1414166,172.999281 C53.4550354,175.835112 53.0628176,178.768731 51.4939463,181.506775 C51.5920007,181.408988 52.4744908,181.897924 52.5725453,182.191286 C52.5725453,182.582435 51.6900552,184.049244 51.2978374,184.440394 C50.8075651,184.92933 47.8659314,187.862949 46.9834413,189.036396 C45.5126245,190.992142 43.4534809,193.534611 41.982664,195.39257 C40.6099017,197.054954 41.8846096,197.739465 43.0612631,196.566017 C43.5515353,196.077081 44.7281888,194.610272 45.3165155,194.31691 C46.6892779,193.632399 47.7678769,192.752313 48.5523126,191.383291 C48.9445304,190.69878 50.6114562,190.014269 51.2978374,190.209844 C50.8075651,191.089929 47.3756591,193.045675 46.3951146,194.512484 C45.9048423,195.196995 45.8067878,195.685932 45.2184611,196.077081 C44.0418076,196.957167 41.1982284,199.499636 41.1001739,199.499636 C40.2176838,199.206274 36.0013422,202.531042 35.1188521,203.215553 C32.8635996,204.877937 30.9025105,206.93147 28.9414214,208.985003 C25.2153521,212.798707 24.332862,214.558879 19.3320847,216.807986 C17.0768322,217.785859 15.6060154,218.274796 12.9585451,220.523903 C10.801347,222.186287 9.91885691,222.870798 8.34998562,224.23982 C6.58500541,225.022119 5.11418857,224.337607 5.31029748,224.337607 C3.15309945,225.217693 1.87839152,227.369013 0.603683589,229.226972 C0.309520221,229.715908 -0.0826976033,230.204845 0.0153568527,230.791569 C0.113411309,231.378292 0.897846957,231.867229 1.29006478,231.378292 C0.995901413,232.55174 0.897846957,233.6274 0.799792501,234.800847 C0.799792501,235.680933 1.68228261,236.267657 2.46671825,235.876508 C3.34920836,235.387571 4.32975292,235.094209 4.62391629,234.800847 C5.50640639,234.214124 5.89862422,233.138463 6.68305986,232.55174 C7.56554997,231.867229 8.64414899,231.769441 9.62469355,231.378292 C11.5857827,230.595994 12.3702183,228.835823 13.6449262,227.369013 C14.0371441,226.880077 14.5274163,226.097779 14.8215797,225.608842 C17.2729411,220.915052 19.7243025,219.057094 25.6075699,214.069942 C27.3725501,212.505346 29.3336392,211.136323 31.3927828,209.962876 C31.8830551,209.669514 36.7857779,204.975724 39.4332482,203.900064 C38.2565947,205.953597 39.5313026,204.682362 37.9624313,206.442534 C36.8838323,207.615981 31.0986194,213.092069 32.2752729,213.874368 C33.4519264,214.656666 38.6488125,207.615981 45.3165155,199.792998 C46.0028967,198.912912 44.5320799,199.108487 45.2184611,198.521763 C47.6698225,196.174868 49.925075,193.534611 52.7686542,191.578866 C55.2200156,189.231971 54.8277978,191.481078 54.239471,192.067802 C52.6705998,195.490357 51.1017285,195.588145 48.6503671,198.521763 C48.9445304,198.130614 45.2184611,202.23768 46.1990057,203.117766 C46.5912235,203.508915 48.9445304,200.673084 49.5328572,200.281934 C50.6114562,199.695211 51.3958918,198.521763 52.2783819,197.641678 C53.2589265,196.663805 54.0433621,195.588145 55.0239067,194.610272 C55.2200156,194.414697 57.1811047,192.654526 57.1811047,192.8501 C57.2791592,193.436824 57.5733226,193.730186 57.671377,194.023548 C57.8674859,194.805846 58.0635948,195.588145 58.0635948,196.370443 C58.0635948,197.054954 58.4558127,197.739465 58.8480305,198.326189 C58.9460849,198.521763 59.3383028,198.61955 59.6324661,198.61955 C59.9266295,198.61955 60.5149562,198.326189 60.6130107,198.130614 C61.0052285,197.446103 61.5935553,195.294783 61.6916097,194.610272 C61.6916097,193.925761 63.1624265,191.481078 63.260481,190.894355 C63.3585355,190.307631 64.9274068,190.112056 64.1429711,189.231971 C64.5351889,188.449672 66.3001691,186.885076 66.7904414,186.493927 C68.4573672,184.92933 72.281491,182.77801 72.4775999,182.680222 C76.3997781,178.964305 80.4200108,175.248388 84.3421891,171.532471 C86.4013326,169.576726 88.4604762,167.62098 90.6176742,165.763021 C91.4021099,165.07851 92.3826545,164.687361 93.2651446,164.100637 C93.363199,164.00285 93.4612535,164.00285 93.4612535,163.905063 C95.716506,161.362593 97.9717584,158.820124 100.128956,156.277654 C101.109501,155.104207 101.893937,153.832972 102.678372,152.561737 C102.972536,152.072801 103.07059,151.38829 103.266699,150.899353 C103.168645,150.997141 102.972536,151.094928 102.874481,151.192715 C102.776427,151.094928 102.776427,151.094928 102.678372,150.997141 C103.658917,149.921481 108.56164,143.760881 109.738293,138.969304 C111.111056,140.92505 113.464363,141.022837 113.954635,141.413986 C116.013778,142.098497 118.46514,142.196285 120.23012,141.707348 C122.583427,141.120625 126.60366,140.338326 127.584204,140.142752 C128.662803,139.947177 129.643348,139.360453 130.623892,138.77373 C133.271363,136.915771 134.938288,135.448962 133.957744,135.448962 C133.761635,135.1556 131.996655,135.937898 131.702491,136.720197 C131.310274,136.817984 131.01611,136.817984 130.721947,136.915771 C130.13362,137.209133 128.858912,138.675942 124.152298,138.284793 C123.662026,138.284793 123.171754,138.089219 122.583427,137.991431 C123.269808,136.915771 124.054244,136.817984 124.838679,136.622409 C125.917278,136.426835 127.093932,136.329047 127.976422,135.840111 C129.25113,135.057813 130.525838,134.177727 131.8986,133.591003 C133.075254,133.102067 134.644125,131.928619 135.526615,130.950747 C137.585759,128.506064 139.841011,126.256957 141.409882,123.421125 C142.880699,120.487507 145.52817,117.553888 146.116496,114.22912 C146.214551,113.740184 147.097041,111.588863 146.900932,111.197714 C146.998986,111.491076 146.998986,108.264095 146.998986,106.30835 C147.195095,105.037115 148.371749,104.84154 147.881477,103.472518 Z M60.5149562,122.052103 C60.4169018,122.149891 60.3188473,122.247678 60.3188473,122.345465 C59.7305206,121.465379 59.1421939,122.443252 58.4558127,122.345465 C59.2402483,121.269805 60.2207929,120.683081 61.3974463,120.389719 C61.103283,120.976443 60.8091196,121.563167 60.5149562,122.052103 Z M80.7141742,114.815844 C80.9102831,115.109206 81.0083376,115.402568 81.2044465,115.598142 C80.8122286,115.011418 83.459699,114.326907 83.5577534,114.326907 C84.1460801,114.22912 87.3818772,113.837971 88.2643673,113.740184 C87.8721495,114.326907 87.4799317,114.815844 87.1857683,115.30478 C88.6565851,115.989291 88.7546396,114.326907 89.7351841,113.544609 C89.2449119,116.38044 87.774095,118.238399 85.2246792,119.216272 C85.2246792,118.92291 84.8324613,118.727335 84.8324613,118.727335 C84.3421891,118.531761 83.26359,118.336186 83.1655356,118.238399 C82.0869366,118.140612 81.0083376,118.042824 79.8316841,117.84725 C80.1258474,116.77159 80.4200108,115.793717 80.7141742,114.815844 Z M76.9881049,129.581724 C77.2822682,128.114915 77.5764316,126.745893 77.870595,125.279084 C78.0667039,124.301211 78.4589217,123.323338 78.6550306,122.345465 C78.8511395,121.563167 78.949194,120.683081 79.0472484,119.802996 C79.1453029,119.118485 79.2433573,119.216272 79.9297385,119.314059 C80.6161197,119.509634 81.4005554,119.509634 81.9888821,119.216272 C82.7733178,118.92291 83.3616445,119.020697 84.0480257,119.314059 C84.6363524,119.509634 85.2246792,119.509634 86.1071693,119.509634 C85.616897,120.194145 85.1266247,120.683081 84.6363524,121.269805 C84.4402435,121.465379 84.2441346,121.660954 84.0480257,121.856529 C82.3810999,124.398998 80.4200108,126.550319 78.2628128,128.701639 C77.870595,129.092788 77.674486,129.581724 77.3803227,129.972874 C77.2822682,130.070661 77.0861593,130.070661 76.8900504,130.168448 C76.9881049,129.972874 76.8900504,129.777299 76.9881049,129.581724 Z M93.7554168,150.019268 C93.8534713,150.117055 93.6573624,150.508204 93.4612535,150.605992 C93.363199,150.703779 93.363199,150.997141 93.363199,150.997141 C92.6768178,151.583864 91.9904366,152.072801 91.5001643,152.561737 C84.2441346,159.015698 76.9881049,165.46966 68.9476395,171.043535 C68.1632038,171.532471 67.4768226,172.021408 66.692387,172.510344 C66.5943325,172.412557 66.4962781,172.412557 66.4962781,172.31477 C66.4962781,172.31477 67.4768226,166.056383 67.5748771,165.46966 C67.770986,163.513914 68.3593127,160.873657 69.8301296,159.30906 C70.2223474,158.917911 70.0262385,158.037826 70.3204018,157.548889 C71.5951098,155.201994 72.3795454,152.268376 74.7328524,151.094928 C75.8114514,149.628119 78.949194,147.574586 79.6355752,146.498925 C79.9297385,146.009989 80.6161197,145.814414 81.2044465,145.61884 C84.3421891,144.640967 87.5779861,143.760881 90.7157287,142.880796 C92.2846,142.489647 94.9320703,142.391859 96.1087238,141.316199 C96.3048327,141.120625 96.8931594,141.218412 97.2853773,141.218412 C97.4814862,143.46752 95.0301248,149.628119 93.7554168,150.019268 Z M135.62467,112.468949 C135.428561,113.15346 135.036343,113.837971 134.938288,114.620269 C134.742179,115.793717 134.349962,116.869377 133.66358,117.84725 C132.879145,118.825123 132.192764,119.802996 130.820001,120.096357 C130.231674,120.194145 129.643348,120.585294 128.956967,120.976443 C129.153075,121.269805 129.349184,121.465379 129.545293,121.758741 C129.349184,121.856529 129.055021,121.954316 128.760858,122.052103 C128.662803,121.172018 128.172531,120.976443 127.388095,120.976443 C125.819224,121.07423 125.328952,120.487507 125.328952,119.020697 C125.328952,116.38044 125.819224,113.837971 127.780313,111.882225 C128.760858,110.806565 130.035566,110.024267 131.310274,109.241968 C131.604437,109.046394 132.388873,108.655245 132.584981,109.633118 C132.584981,109.730905 133.075254,109.926479 133.271363,109.926479 C135.232452,108.948606 136.114942,110.61099 135.62467,112.468949 Z M137.585759,108.264095 C137.291595,108.264095 136.997432,108.166308 136.899377,108.068521 C136.212996,107.188435 135.428561,106.601712 134.251907,106.601712 C133.957744,106.601712 133.66358,106.014988 133.369417,105.721626 C133.66358,105.428264 133.859689,105.037115 134.251907,104.939328 C135.62467,104.548178 136.409105,104.939328 137.193541,106.30835 C137.487704,106.797286 137.683813,107.38401 138.076031,107.970734 C137.879922,108.068521 137.781868,108.264095 137.585759,108.264095 Z" id="Shape" fill="#FFFFFF"></path>
        </g>
    </g>
</svg>