<svg viewBox="0 0 604 687" xmlns="http://www.w3.org/2000/svg" xmlns:xlink="http://www.w3.org/1999/xlink"><defs><path id="a" d="M0 0h604v687H0z"/><path id="c" d="M.436.414h93.326V388.1H.436z"/></defs><g fill="none" fill-rule="evenodd"><mask id="b" fill="#fff"><use xlink:href="#a"/></mask><path fill="#1D1D1D" d="M.5.5h603v686H.5z"/><g mask="url(#b)"><path fill="#FF1A1F" d="M132.778 398c-.649 0-1.353-.07-2.114-.208a1.11 1.11 0 0 1-.898-1.296 1.115 1.115 0 0 1 1.298-.894c2.033.372 3.4.154 4.06-.637 1.962-2.362-.996-10.032-3.156-15.635-1.646-4.268-3.07-7.954-2.962-10.16 1.035-21.702 20.673-37.27 38.706-44.608 10.284-4.18 24.132-9.815 19.448-22.487-.937-2.53-2.311-4.534-3.641-6.474-2.855-4.158-5.55-8.086-2.508-15.525 3.15-7.71 7.634-7.12 11.964-6.55 1.976.26 4.02.532 6.147.112 3.183-.626 5.37-2.429 6.16-5.08.947-3.17-.28-7.004-3.125-9.768-1.159-1.129-2.268-1.93-3.342-2.706-3.118-2.254-5.583-4.037-5.018-10.956.58-7.108 4.856-11.018 9.388-14.184 1.545-1.08 3.301-2.052 5.161-3.08 4.228-2.338 8.6-4.756 10.741-8.617 2.357-4.249 2.717-12.431 2.956-17.846l.07-1.553c.185-3.834.194-7.695.202-11.431.019-8.894.036-17.294 2.215-25.731.265-1.03.516-2.073.77-3.12 1.102-4.552 2.24-9.262 4.58-13.275 1.624-2.788 3.494-5.2 5.305-7.53 2.341-3.018 4.552-5.87 6.26-9.456.584-1.232 1.176-2.457 1.764-3.68 2.957-6.128 5.75-11.917 7.818-18.288 1.047-3.22 1.96-6.462 2.84-9.597 2.413-8.569 4.69-16.661 9.537-24.628 8.146-13.397 27.901-27.569 46.857-28.096 9.918-.291 18.08 3.394 23.738 10.642 1.241-1.95 3.283-3.296 6.005-3.936 8.5-1.999 22.726 3.275 27.149 7.645 9.055 8.948 12.507 19.127 9.72 28.66-.338 1.156-1.192 2.229-2.018 3.267-.725.91-1.474 1.852-1.606 2.556-.178.953 2.085 4.3 3.174 5.908.875 1.291 1.629 2.404 1.973 3.183 2.017 4.564 2.505 9.508 2.716 13.741.037.744.024 1.489.012 2.229-.028 1.5-.053 2.916.37 4.173.198.588.609 1.198 1.04 1.843.704 1.046 1.43 2.13 1.465 3.425.064 2.342-4.187 8.63-5.737 9.442a1.125 1.125 0 0 1-1.51-.47 1.114 1.114 0 0 1 .472-1.504c1.043-.633 4.578-6.136 4.543-7.41-.018-.65-.538-1.424-1.088-2.242-.497-.74-1.01-1.505-1.303-2.375-.546-1.62-.516-3.3-.487-4.923.013-.691.026-1.385-.007-2.077-.213-4.234-.664-8.733-2.53-12.953-.263-.595-1.001-1.685-1.78-2.836-2.264-3.346-3.842-5.845-3.519-7.563.233-1.246 1.157-2.408 2.052-3.532.691-.87 1.408-1.768 1.624-2.506 3.435-11.756-4.257-21.62-9.149-26.453-3.988-3.941-17.353-8.866-25.064-7.059-2.743.645-4.513 2.087-5.26 4.283-.136.4-.486.688-.905.745a1.11 1.11 0 0 1-1.074-.474c-5.226-7.6-13.154-11.45-22.953-11.203-17.955.5-37.343 14.418-45.01 27.024-4.689 7.71-6.925 15.658-9.294 24.075-.889 3.157-1.807 6.42-2.867 9.684-2.117 6.511-5.071 12.64-7.93 18.567-.587 1.217-1.176 2.438-1.761 3.667-1.81 3.806-4.2 6.886-6.51 9.865-1.766 2.275-3.591 4.627-5.14 7.286-2.178 3.734-3.276 8.281-4.34 12.678-.255 1.06-.51 2.113-.78 3.153-2.108 8.167-2.124 16.43-2.144 25.18-.006 3.761-.016 7.65-.203 11.535l-.07 1.542c-.262 5.96-.622 14.122-3.233 18.828-2.451 4.42-7.318 7.112-11.613 9.487-1.806 1-3.513 1.942-4.963 2.956-4.72 3.299-7.964 6.693-8.443 12.54-.462 5.671 1.16 6.844 4.104 8.973 1.085.784 2.313 1.672 3.59 2.912 3.432 3.334 4.887 8.045 3.707 11.998-1.024 3.433-3.893 5.851-7.87 6.632-2.484.489-4.816.184-6.871-.09-4.28-.564-7.105-.937-9.605 5.183-2.586 6.329-.437 9.46 2.285 13.428 1.341 1.955 2.86 4.168 3.892 6.961 5.432 14.692-10.19 21.045-20.527 25.25-17.567 7.144-36.505 22.067-37.492 42.72-.083 1.738 1.392 5.56 2.817 9.256 2.747 7.123 5.588 14.49 2.791 17.854-.893 1.074-2.257 1.614-4.066 1.614"/><path stroke="#FF120F" stroke-width="1.818" d="M132.778 398c-.649 0-1.353-.07-2.114-.208a1.11 1.11 0 0 1-.898-1.296 1.115 1.115 0 0 1 1.298-.894c2.033.372 3.4.154 4.06-.637 1.962-2.362-.996-10.032-3.156-15.635-1.646-4.268-3.07-7.954-2.962-10.16 1.035-21.702 20.673-37.27 38.706-44.608 10.284-4.18 24.132-9.815 19.448-22.487-.937-2.53-2.311-4.534-3.641-6.474-2.855-4.158-5.55-8.086-2.508-15.525 3.15-7.71 7.634-7.12 11.964-6.55 1.976.26 4.02.532 6.147.112 3.183-.626 5.37-2.429 6.16-5.08.947-3.17-.28-7.004-3.125-9.768-1.159-1.129-2.268-1.93-3.342-2.706-3.118-2.254-5.583-4.037-5.018-10.956.58-7.108 4.856-11.018 9.388-14.184 1.545-1.08 3.301-2.052 5.161-3.08 4.228-2.338 8.6-4.756 10.741-8.617 2.357-4.249 2.717-12.431 2.956-17.846l.07-1.553c.185-3.834.194-7.695.202-11.431.019-8.894.036-17.294 2.215-25.731.265-1.03.516-2.073.77-3.12 1.102-4.552 2.24-9.262 4.58-13.275 1.624-2.788 3.494-5.2 5.305-7.53 2.341-3.018 4.552-5.87 6.26-9.456.584-1.232 1.176-2.457 1.764-3.68 2.957-6.128 5.75-11.917 7.818-18.288 1.047-3.22 1.96-6.462 2.84-9.597 2.413-8.569 4.69-16.661 9.537-24.628 8.146-13.397 27.901-27.569 46.857-28.096 9.918-.291 18.08 3.394 23.738 10.642 1.241-1.95 3.283-3.296 6.005-3.936 8.5-1.999 22.726 3.275 27.149 7.645 9.055 8.948 12.507 19.127 9.72 28.66-.338 1.156-1.192 2.229-2.018 3.267-.725.91-1.474 1.852-1.606 2.556-.178.953 2.085 4.3 3.174 5.908.875 1.291 1.629 2.404 1.973 3.183 2.017 4.564 2.505 9.508 2.716 13.741.037.744.024 1.489.012 2.229-.028 1.5-.053 2.916.37 4.173.198.588.609 1.198 1.04 1.843.704 1.046 1.43 2.13 1.465 3.425.064 2.342-4.187 8.63-5.737 9.442a1.125 1.125 0 0 1-1.51-.47 1.114 1.114 0 0 1 .472-1.504c1.043-.633 4.578-6.136 4.543-7.41-.018-.65-.538-1.424-1.088-2.242-.497-.74-1.01-1.505-1.303-2.375-.546-1.62-.516-3.3-.487-4.923.013-.691.026-1.385-.007-2.077-.213-4.234-.664-8.733-2.53-12.953-.263-.595-1.001-1.685-1.78-2.836-2.264-3.346-3.842-5.845-3.519-7.563.233-1.246 1.157-2.408 2.052-3.532.691-.87 1.408-1.768 1.624-2.506 3.435-11.756-4.257-21.62-9.149-26.453-3.988-3.941-17.353-8.866-25.064-7.059-2.743.645-4.513 2.087-5.26 4.283-.136.4-.486.688-.905.745a1.11 1.11 0 0 1-1.074-.474c-5.226-7.6-13.154-11.45-22.953-11.203-17.955.5-37.343 14.418-45.01 27.024-4.689 7.71-6.925 15.658-9.294 24.075-.889 3.157-1.807 6.42-2.867 9.684-2.117 6.511-5.071 12.64-7.93 18.567-.587 1.217-1.176 2.438-1.761 3.667-1.81 3.806-4.2 6.886-6.51 9.865-1.766 2.275-3.591 4.627-5.14 7.286-2.178 3.734-3.276 8.281-4.34 12.678-.255 1.06-.51 2.113-.78 3.153-2.108 8.167-2.124 16.43-2.144 25.18-.006 3.761-.016 7.65-.203 11.535l-.07 1.542c-.262 5.96-.622 14.122-3.233 18.828-2.451 4.42-7.318 7.112-11.613 9.487-1.806 1-3.513 1.942-4.963 2.956-4.72 3.299-7.964 6.693-8.443 12.54-.462 5.671 1.16 6.844 4.104 8.973 1.085.784 2.313 1.672 3.59 2.912 3.432 3.334 4.887 8.045 3.707 11.998-1.024 3.433-3.893 5.851-7.87 6.632-2.484.489-4.816.184-6.871-.09-4.28-.564-7.105-.937-9.605 5.183-2.586 6.329-.437 9.46 2.285 13.428 1.341 1.955 2.86 4.168 3.892 6.961 5.432 14.692-10.19 21.045-20.527 25.25-17.567 7.144-36.505 22.067-37.492 42.72-.083 1.738 1.392 5.56 2.817 9.256 2.747 7.123 5.588 14.49 2.791 17.854-.893 1.074-2.257 1.614-4.066 1.614z"/><path fill="#FF1A1F" d="M276.631 348.612v.004-.004zm157.656 9.586c-.896.414-1.016.71-1.018.715.01.025.09.165.324.372.257-.382.495-.75.694-1.087zM405.065 369c-5.82 0-11.646-.447-17.538-.968a165.196 165.196 0 0 1-16.964-2.388c-1.788-.346-3.902-.52-6.14-.702-4.463-.368-9.073-.746-12.38-2.548-3.691-.017-7.73-.97-11.633-1.95-2.524-.635-4.907-1.233-7.148-1.55-6.799-.951-14.618-2.375-21.413-3.634-10.963-2.026-21.27-3.557-34.347-5.367a1.117 1.117 0 0 1-.625-.307c-.41-.399-1.171-1.145-.758-2.01.207-.431.79-.724 1.266-.667.373.045 1.13.323 1.446.922 12.626 1.753 22.707 3.26 33.424 5.242 6.773 1.253 14.564 2.67 21.316 3.617 2.361.334 4.914.975 7.383 1.595 3.868.972 7.889 1.988 11.34 1.877a1.1 1.1 0 0 1 .594.151c2.887 1.683 7.376 2.054 11.718 2.41 2.301.19 4.473.367 6.381.738a162.07 162.07 0 0 0 16.736 2.354c10.283.91 20.353 1.592 30.46.022.706-.112 1.47-.215 2.268-.324 3.508-.477 7.875-1.072 10.43-2.749.254-.215.802-.868 1.412-1.669-.592-.485-1.013-1.034-1.174-1.635-.305-1.14.103-2.738 3.786-3.868 1.435-.435 1.951.497 2.043.691.42.89-.348 2.507-1.39 4.083 1.58.602 3.544.94 4.874.808 1.698-3.457 3.493-6.884 5.385-10.502 5.042-9.636 10.256-19.599 13.584-30.252 3.265-10.448 2.261-20.867.85-29.683-.32-1.998-.795-4.023-1.255-5.982-.737-3.143-1.5-6.392-1.689-9.748-.232-4.093.964-8.143 2.12-12.06.725-2.465 1.413-4.793 1.77-7.123 1.028-6.717 1.56-19.358-6.428-28.543-6.835-7.86-15.47-7.759-25.448-7.626a346.5 346.5 0 0 1-4.343.032c-5.178-.03-10.247.868-15.052 1.723-6.541 1.163-13.304 2.364-20.812 1.27-12.693-1.854-22.987-5.358-31.47-10.709a1.11 1.11 0 0 1-.508-.772c-.19-1.252.128-3.536.658-4.697.253-.556.91-.807 1.473-.554 3.725 1.68 11.093-.932 15.05-2.334l.227-.08c3.036-1.074 5.055-2.45 5.998-4.088 1.083-1.878.484-3.415-.585-5.766-.594-1.309-1.207-2.66-1.341-4.162a1.11 1.11 0 0 1 .502-1.029c.317-.205.617-.392.903-.57 1.914-1.184 2.558-1.584 2.43-3.919-.064-1.198-.562-2.758-.944-2.973l-.028.01-.005-.013c-.576.197-1.113-.088-1.321-.66-.211-.577.754-1.141.754-1.352v.834h-.192c1.854 0 3.425-4.748 3.381-7.162-3.099-1.903-1.874-6.256-1.126-8.783.213-.72.415-1.512.482-1.98.078-.537.534-.997 1.078-1.01.827-.019 1.014-.364 1.095-.499.905-1.532-.507-5.901-4.2-12.958a54.5 54.5 0 0 1-.547-1.073c-.647-1.336-1.387-2.675-2.115-3.994-2.531-4.578-4.923-8.901-3.428-12.736.948-2.43 3.338-4.26 7.307-5.59a1.111 1.111 0 1 1 .709 2.108c-3.303 1.108-5.246 2.51-5.94 4.288-1.115 2.862 1.03 6.743 3.303 10.85.75 1.355 1.508 2.727 2.171 4.1.108.222.288.566.517 1.003 3.034 5.801 5.9 12.133 4.144 15.105-.331.558-.944 1.207-2.062 1.46-.103.407-.234.85-.377 1.333-.889 2.997-1.414 5.359.508 6.213.351.156.596.483.65.864.323 2.339-.774 6.247-2.89 8.386 1.145 1.44 1.296 3.985 1.303 4.108.199 3.65-1.506 4.707-3.481 5.932l-.26.163c.197.908.614 1.826 1.05 2.785 1.03 2.266 2.196 4.834.488 7.797-1.216 2.11-3.634 3.82-7.187 5.076l-.225.08c-4.177 1.478-10.93 3.877-15.532 2.676a9.997 9.997 0 0 0-.224 1.998c8.126 5.015 17.99 8.318 30.129 10.093 7.146 1.041 13.44 1.225 20.099.04 4.858-.863 9.882-.456 15.31-.456h.54c1.322 0 2.626-1.318 3.908-1.333 10.113-.12 19.651-.895 27.16 7.74 8.574 9.863 8.034 22.917 6.949 30.014-.382 2.48-1.123 4.827-1.837 7.253-1.102 3.736-2.243 7.517-2.032 11.227.179 3.161.918 6.275 1.634 9.325.468 1.997.953 4.04 1.284 6.116 1.454 9.072 2.48 19.803-.92 30.689-3.39 10.842-8.65 20.89-13.739 30.612-1.979 3.784-3.85 7.358-5.608 10.963a1.117 1.117 0 0 1-.755.598c-1.828.414-4.895-.02-7.222-1.042-1.035 1.314-1.983 2.323-2.1 2.4-2.98 1.954-7.624 2.585-11.355 3.093-.783.106-1.533.207-2.225.314-4.502.704-8.982.968-13.462.968z"/><path stroke="#FF120F" stroke-width="2" d="M276.631 348.612v.004-.004zm157.656 9.586c-.896.414-1.016.71-1.018.715.01.025.09.165.324.372.257-.382.495-.75.694-1.087zM405.065 369c-5.82 0-11.646-.447-17.538-.968a165.196 165.196 0 0 1-16.964-2.388c-1.788-.346-3.902-.52-6.14-.702-4.463-.368-9.073-.746-12.38-2.548-3.691-.017-7.73-.97-11.633-1.95-2.524-.635-4.907-1.233-7.148-1.55-6.799-.951-14.618-2.375-21.413-3.634-10.963-2.026-21.27-3.557-34.347-5.367a1.117 1.117 0 0 1-.625-.307c-.41-.399-1.171-1.145-.758-2.01.207-.431.79-.724 1.266-.667.373.045 1.13.323 1.446.922 12.626 1.753 22.707 3.26 33.424 5.242 6.773 1.253 14.564 2.67 21.316 3.617 2.361.334 4.914.975 7.383 1.595 3.868.972 7.889 1.988 11.34 1.877a1.1 1.1 0 0 1 .594.151c2.887 1.683 7.376 2.054 11.718 2.41 2.301.19 4.473.367 6.381.738a162.07 162.07 0 0 0 16.736 2.354c10.283.91 20.353 1.592 30.46.022.706-.112 1.47-.215 2.268-.324 3.508-.477 7.875-1.072 10.43-2.749.254-.215.802-.868 1.412-1.669-.592-.485-1.013-1.034-1.174-1.635-.305-1.14.103-2.738 3.786-3.868 1.435-.435 1.951.497 2.043.691.42.89-.348 2.507-1.39 4.083 1.58.602 3.544.94 4.874.808 1.698-3.457 3.493-6.884 5.385-10.502 5.042-9.636 10.256-19.599 13.584-30.252 3.265-10.448 2.261-20.867.85-29.683-.32-1.998-.795-4.023-1.255-5.982-.737-3.143-1.5-6.392-1.689-9.748-.232-4.093.964-8.143 2.12-12.06.725-2.465 1.413-4.793 1.77-7.123 1.028-6.717 1.56-19.358-6.428-28.543-6.835-7.86-15.47-7.759-25.448-7.626a346.5 346.5 0 0 1-4.343.032c-5.178-.03-10.247.868-15.052 1.723-6.541 1.163-13.304 2.364-20.812 1.27-12.693-1.854-22.987-5.358-31.47-10.709a1.11 1.11 0 0 1-.508-.772c-.19-1.252.128-3.536.658-4.697.253-.556.91-.807 1.473-.554 3.725 1.68 11.093-.932 15.05-2.334l.227-.08c3.036-1.074 5.055-2.45 5.998-4.088 1.083-1.878.484-3.415-.585-5.766-.594-1.309-1.207-2.66-1.341-4.162a1.11 1.11 0 0 1 .502-1.029c.317-.205.617-.392.903-.57 1.914-1.184 2.558-1.584 2.43-3.919-.064-1.198-.562-2.758-.944-2.973l-.028.01-.005-.013c-.576.197-1.113-.088-1.321-.66-.211-.577.754-1.141.754-1.352v.834h-.192c1.854 0 3.425-4.748 3.381-7.162-3.099-1.903-1.874-6.256-1.126-8.783.213-.72.415-1.512.482-1.98.078-.537.534-.997 1.078-1.01.827-.019 1.014-.364 1.095-.499.905-1.532-.507-5.901-4.2-12.958a54.5 54.5 0 0 1-.547-1.073c-.647-1.336-1.387-2.675-2.115-3.994-2.531-4.578-4.923-8.901-3.428-12.736.948-2.43 3.338-4.26 7.307-5.59a1.111 1.111 0 1 1 .709 2.108c-3.303 1.108-5.246 2.51-5.94 4.288-1.115 2.862 1.03 6.743 3.303 10.85.75 1.355 1.508 2.727 2.171 4.1.108.222.288.566.517 1.003 3.034 5.801 5.9 12.133 4.144 15.105-.331.558-.944 1.207-2.062 1.46-.103.407-.234.85-.377 1.333-.889 2.997-1.414 5.359.508 6.213.351.156.596.483.65.864.323 2.339-.774 6.247-2.89 8.386 1.145 1.44 1.296 3.985 1.303 4.108.199 3.65-1.506 4.707-3.481 5.932l-.26.163c.197.908.614 1.826 1.05 2.785 1.03 2.266 2.196 4.834.488 7.797-1.216 2.11-3.634 3.82-7.187 5.076l-.225.08c-4.177 1.478-10.93 3.877-15.532 2.676a9.997 9.997 0 0 0-.224 1.998c8.126 5.015 17.99 8.318 30.129 10.093 7.146 1.041 13.44 1.225 20.099.04 4.858-.863 9.882-.456 15.31-.456h.54c1.322 0 2.626-1.318 3.908-1.333 10.113-.12 19.651-.895 27.16 7.74 8.574 9.863 8.034 22.917 6.949 30.014-.382 2.48-1.123 4.827-1.837 7.253-1.102 3.736-2.243 7.517-2.032 11.227.179 3.161.918 6.275 1.634 9.325.468 1.997.953 4.04 1.284 6.116 1.454 9.072 2.48 19.803-.92 30.689-3.39 10.842-8.65 20.89-13.739 30.612-1.979 3.784-3.85 7.358-5.608 10.963a1.117 1.117 0 0 1-.755.598c-1.828.414-4.895-.02-7.222-1.042-1.035 1.314-1.983 2.323-2.1 2.4-2.98 1.954-7.624 2.585-11.355 3.093-.783.106-1.533.207-2.225.314-4.502.704-8.982.968-13.462.968z"/><path fill="#FF1A1F" d="M362.746 187c-1.552 0-2.82-.564-3.6-2.029-.29-.546-.134-1.254.348-1.58.48-.332 1.105-.152 1.396.392 1.258 2.372 7.077-.486 10.929-2.376 2.506-1.228 4.67-2.288 6.092-2.404.573-.049 1.049.434 1.087 1.068.038.634-.383 1.187-.943 1.23-1.076.086-3.19 1.122-5.428 2.22-3.403 1.668-7.097 3.479-9.881 3.479"/><path stroke="#FF120F" stroke-width="1.818" d="M362.746 187c-1.552 0-2.82-.564-3.6-2.029-.29-.546-.134-1.254.348-1.58.48-.332 1.105-.152 1.396.392 1.258 2.372 7.077-.486 10.929-2.376 2.506-1.228 4.67-2.288 6.092-2.404.573-.049 1.049.434 1.087 1.068.038.634-.383 1.187-.943 1.23-1.076.086-3.19 1.122-5.428 2.22-3.403 1.668-7.097 3.479-9.881 3.479z"/><path fill="#FF1A1F" d="M350.14 147a2.66 2.66 0 0 1-.276-.013c-.517-.053-.904-.603-.86-1.23.041-.628.485-1.117 1.015-1.046.345.036.63-.077.827-.333.1-.134.175-.301.22-.49a2.675 2.675 0 0 1-1.314-1.095c-.32-.515-.65-1.43-.42-2.869.099-.619.592-1.024 1.103-.903.51.12.845.719.746 1.336-.055.343-.085.804.078 1.067.13.211.434.353.852.4.427.048.773.441.843.953.16 1.186-.103 2.334-.723 3.148-.533.7-1.267 1.075-2.09 1.075"/><path stroke="#FF120F" stroke-width="1.818" d="M350.14 147a2.66 2.66 0 0 1-.276-.013c-.517-.053-.904-.603-.86-1.23.041-.628.485-1.117 1.015-1.046.345.036.63-.077.827-.333.1-.134.175-.301.22-.49a2.675 2.675 0 0 1-1.314-1.095c-.32-.515-.65-1.43-.42-2.869.099-.619.592-1.024 1.103-.903.51.12.845.719.746 1.336-.055.343-.085.804.078 1.067.13.211.434.353.852.4.427.048.773.441.843.953.16 1.186-.103 2.334-.723 3.148-.533.7-1.267 1.075-2.09 1.075z"/><path fill="#FF1A1F" d="M380.718 147c-.044 0-.086-.002-.131-.007-.647-.062-1.115-.57-1.042-1.136.408-3.213-.517-7.338-3.072-9.003-.521-.34-.628-.985-.24-1.44.39-.457 1.13-.55 1.652-.208 3.436 2.24 4.487 7.077 4.004 10.879-.068.526-.578.915-1.17.915"/><path stroke="#FF120F" stroke-width="1.818" d="M380.718 147c-.044 0-.086-.002-.131-.007-.647-.062-1.115-.57-1.042-1.136.408-3.213-.517-7.338-3.072-9.003-.521-.34-.628-.985-.24-1.44.39-.457 1.13-.55 1.652-.208 3.436 2.24 4.487 7.077 4.004 10.879-.068.526-.578.915-1.17.915z"/><path fill="#FF1A1F" d="M464.91 743c-.565 0-1.044-1.41-1.083-2.001-1.378-20.803-8.659-40.538-17.317-61.756-4.49-10.998-8.448-22.583-12.278-33.552-2.174-6.234-4.423-12.8-6.76-19.153-1.383-3.763-2.606-7.814-3.902-12.036-3.076-10.031-6.256-20.437-11.788-28.016a1.167 1.167 0 0 1-.018-1.331c1.976-2.867 2.65-7.01 1.902-11.65-.467-2.892-1.68-3.96-3.085-5.19-1.046-.915-2.23-1.952-3.077-3.766-1.04-2.22-1.062-5.401-1.085-8.48-.017-2.17-.032-4.22-.386-5.746-.801-3.429-1.947-7.945-3.736-12.458-.741-1.87-1.494-3.577-2.208-5.193-2.92-6.621-5.228-11.85-3.488-20.448 1.46-7.211 2.753-16.758 3.46-25.54.892-11.047 1.814-22.47 5.854-31.684 1.86-4.24 4.275-8.485 6.61-12.592 2.039-3.588 4.147-7.298 5.926-11.057 7.844-16.578 15.924-42.33 15.078-64.889a1.131 1.131 0 0 1 .475-.967 1.054 1.054 0 0 1 1.049-.098c.268.122.412.068.76-.124.196-.108.419-.232.709-.266.601-.07 1.134.372 1.202.986a1.117 1.117 0 0 1-.801 1.204c-.283.156-.684.37-1.182.457.519 22.658-7.523 48.164-15.334 64.675-1.815 3.836-3.945 7.582-6.005 11.204-2.413 4.244-4.691 8.252-6.505 12.387-3.886 8.862-4.792 20.09-5.668 30.95-.716 8.867-2.023 18.515-3.5 25.81-1.593 7.882.476 12.573 3.34 19.069.726 1.644 1.489 3.376 2.241 5.272 1.844 4.653 3.02 9.273 3.837 12.783.413 1.773.428 3.947.446 6.246.02 2.833.043 5.761.871 7.53.648 1.387 1.56 2.186 2.527 3.032 1.51 1.321 3.223 2.821 3.819 6.518.788 4.881.136 9.324-1.834 12.62 5.473 7.813 8.62 18.08 11.668 28.02 1.287 4.193 2.5 8.152 3.863 11.859 2.342 6.371 4.595 12.826 6.772 19.066 3.82 10.944 7.769 22.26 12.236 33.205 8.736 21.404 16.08 41.804 17.483 62.948.039.616-.413 2.152-1.013 2.152h-.075z"/><path stroke="#FF120F" stroke-width="2" d="M464.91 743c-.565 0-1.044-1.41-1.083-2.001-1.378-20.803-8.659-40.538-17.317-61.756-4.49-10.998-8.448-22.583-12.278-33.552-2.174-6.234-4.423-12.8-6.76-19.153-1.383-3.763-2.606-7.814-3.902-12.036-3.076-10.031-6.256-20.437-11.788-28.016a1.167 1.167 0 0 1-.018-1.331c1.976-2.867 2.65-7.01 1.902-11.65-.467-2.892-1.68-3.96-3.085-5.19-1.046-.915-2.23-1.952-3.077-3.766-1.04-2.22-1.062-5.401-1.085-8.48-.017-2.17-.032-4.22-.386-5.746-.801-3.429-1.947-7.945-3.736-12.458-.741-1.87-1.494-3.577-2.208-5.193-2.92-6.621-5.228-11.85-3.488-20.448 1.46-7.211 2.753-16.758 3.46-25.54.892-11.047 1.814-22.47 5.854-31.684 1.86-4.24 4.275-8.485 6.61-12.592 2.039-3.588 4.147-7.298 5.926-11.057 7.844-16.578 15.924-42.33 15.078-64.889a1.131 1.131 0 0 1 .475-.967 1.054 1.054 0 0 1 1.049-.098c.268.122.412.068.76-.124.196-.108.419-.232.709-.266.601-.07 1.134.372 1.202.986a1.117 1.117 0 0 1-.801 1.204c-.283.156-.684.37-1.182.457.519 22.658-7.523 48.164-15.334 64.675-1.815 3.836-3.945 7.582-6.005 11.204-2.413 4.244-4.691 8.252-6.505 12.387-3.886 8.862-4.792 20.09-5.668 30.95-.716 8.867-2.023 18.515-3.5 25.81-1.593 7.882.476 12.573 3.34 19.069.726 1.644 1.489 3.376 2.241 5.272 1.844 4.653 3.02 9.273 3.837 12.783.413 1.773.428 3.947.446 6.246.02 2.833.043 5.761.871 7.53.648 1.387 1.56 2.186 2.527 3.032 1.51 1.321 3.223 2.821 3.819 6.518.788 4.881.136 9.324-1.834 12.62 5.473 7.813 8.62 18.08 11.668 28.02 1.287 4.193 2.5 8.152 3.863 11.859 2.342 6.371 4.595 12.826 6.772 19.066 3.82 10.944 7.769 22.26 12.236 33.205 8.736 21.404 16.08 41.804 17.483 62.948.039.616-.413 2.152-1.013 2.152h-.075z"/><path fill="#FF1A1F" d="M279.492 743c-.434 0-.848-.247-1.033-.665-1.659-3.73 1.444-10.706 5.052-18.133.599-1.23 1.126-2.317 1.5-3.17 3.22-7.32 4.374-13.38 5.836-21.053l.265-1.383c1.91-9.993 2.13-21.482 2.307-31.674-.556-.697-.747-1.366-.917-1.964-.097-.344-.197-.71-.405-1.127a1.107 1.107 0 0 1 .558-1.51c7.348-3.202 21.205-.137 25.415 4.43 3.296 3.58 5.354 8.514 7.345 13.283 1.294 3.1 2.516 6.029 4.042 8.588 9.383 15.74 22.18 32.59 34.232 45.074.43.446.412 1.15-.039 1.574a1.135 1.135 0 0 1-1.593-.037c-12.164-12.6-25.076-29.603-34.542-45.48-1.606-2.697-2.917-5.836-4.183-8.87-1.917-4.593-3.9-9.342-6.93-12.63-3.415-3.707-15.21-6.398-21.838-4.268.04.129.074.252.108.372.169.597.272.956.69 1.38.208.212.323.499.318.795-.18 10.386-.382 22.159-2.355 32.477l-.263 1.382c-1.43 7.502-2.663 13.978-5.984 21.53-.382.872-.922 1.983-1.534 3.245-2.394 4.927-6.4 13.172-5.022 16.274a1.105 1.105 0 0 1-.579 1.465 1.09 1.09 0 0 1-.451.095"/><path stroke="#FF120F" stroke-width="1.818" d="M279.492 743c-.434 0-.848-.247-1.033-.665-1.659-3.73 1.444-10.706 5.052-18.133.599-1.23 1.126-2.317 1.5-3.17 3.22-7.32 4.374-13.38 5.836-21.053l.265-1.383c1.91-9.993 2.13-21.482 2.307-31.674-.556-.697-.747-1.366-.917-1.964-.097-.344-.197-.71-.405-1.127a1.107 1.107 0 0 1 .558-1.51c7.348-3.202 21.205-.137 25.415 4.43 3.296 3.58 5.354 8.514 7.345 13.283 1.294 3.1 2.516 6.029 4.042 8.588 9.383 15.74 22.18 32.59 34.232 45.074.43.446.412 1.15-.039 1.574a1.135 1.135 0 0 1-1.593-.037c-12.164-12.6-25.076-29.603-34.542-45.48-1.606-2.697-2.917-5.836-4.183-8.87-1.917-4.593-3.9-9.342-6.93-12.63-3.415-3.707-15.21-6.398-21.838-4.268.04.129.074.252.108.372.169.597.272.956.69 1.38.208.212.323.499.318.795-.18 10.386-.382 22.159-2.355 32.477l-.263 1.382c-1.43 7.502-2.663 13.978-5.984 21.53-.382.872-.922 1.983-1.534 3.245-2.394 4.927-6.4 13.172-5.022 16.274a1.105 1.105 0 0 1-.579 1.465 1.09 1.09 0 0 1-.451.095z"/><path fill="#FF1A1F" d="M206.136 531.84c-5.18 10.15-9.243 21.21-13.174 31.914l-1.582 4.296c-.415 1.123-1.152 2.775-2.087 4.867-3.485 7.816-9.976 22.364-7.504 28.58.242.609.563 1.113.974 1.519 2.171-11.857 6.812-23.115 11.306-34.02 2.06-4.996 4.19-10.163 6.038-15.293 2.796-7.747 5.198-14.837 6.03-21.864M183.583 606c-.15 0-.3-.029-.442-.088-1.614-.682-2.777-1.891-3.452-3.592-2.82-7.09 3.666-21.624 7.54-30.31.88-1.973 1.64-3.677 2.03-4.733l1.58-4.29c4.062-11.057 8.262-22.49 13.71-32.991a1.129 1.129 0 0 1 1.79-.292c.03-.413.053-.826.07-1.238.056-1.313.085-2.56.114-3.768.138-5.947.26-11.083 3.452-17.489 5.337-10.708 12.112-20.42 18.663-29.81 5.833-8.361 11.863-17.01 16.733-26.193 10.25-19.328 14.204-38.478 13.226-64.03a1.123 1.123 0 0 1 1.086-1.16c.566-.12 1.146.456 1.17 1.075.994 25.97-3.038 45.459-13.484 65.16-4.934 9.305-11.005 18.006-16.876 26.423-6.504 9.325-13.231 18.967-18.494 29.528-2.972 5.96-3.081 10.633-3.22 16.548-.028 1.22-.058 2.485-.114 3.808-.36 8.464-3.127 16.737-6.433 25.902-1.867 5.177-4.007 10.366-6.074 15.384-4.66 11.305-9.477 22.993-11.461 35.213a1.123 1.123 0 0 1-1.114.943"/><path stroke="#FF120F" stroke-width="1.818" d="M206.136 531.84c-5.18 10.15-9.243 21.21-13.174 31.914l-1.582 4.296c-.415 1.123-1.152 2.775-2.087 4.867-3.485 7.816-9.976 22.364-7.504 28.58.242.609.563 1.113.974 1.519 2.171-11.857 6.812-23.115 11.306-34.02 2.06-4.996 4.19-10.163 6.038-15.293 2.796-7.747 5.198-14.837 6.03-21.864zM183.584 606c-.15 0-.3-.029-.442-.088-1.614-.682-2.777-1.891-3.452-3.592-2.82-7.09 3.666-21.624 7.54-30.31.88-1.973 1.64-3.677 2.03-4.733l1.58-4.29c4.062-11.057 8.262-22.49 13.71-32.991a1.129 1.129 0 0 1 1.79-.292c.03-.413.053-.826.07-1.238.056-1.313.085-2.56.114-3.768.138-5.947.26-11.083 3.452-17.489 5.337-10.708 12.112-20.42 18.663-29.81 5.833-8.361 11.863-17.01 16.733-26.193 10.25-19.328 14.204-38.478 13.226-64.03a1.123 1.123 0 0 1 1.086-1.16c.566-.12 1.146.456 1.17 1.075.994 25.97-3.038 45.459-13.484 65.16-4.934 9.305-11.005 18.006-16.876 26.423-6.504 9.325-13.231 18.967-18.494 29.528-2.972 5.96-3.081 10.633-3.22 16.548-.028 1.22-.058 2.485-.114 3.808-.36 8.464-3.127 16.737-6.433 25.902-1.867 5.177-4.007 10.366-6.074 15.384-4.66 11.305-9.477 22.993-11.461 35.213a1.123 1.123 0 0 1-1.114.943z"/><path fill="#FF1A1F" d="M193.1 729c-.416 0-.814-.245-.996-.657-1.716-3.86-3.597-13.646-4.324-19.978a5.54 5.54 0 0 0-.335 1.073 1.105 1.105 0 0 1-.883.867 1.082 1.082 0 0 1-1.116-.512c-2.372-3.919-5.282-7.574-8.363-11.444-3.656-4.59-7.436-9.337-10.277-14.603-1.235-2.286-2.404-4.57-3.562-6.835-1.555-3.038-3.025-5.91-4.631-8.765-.725-1.29-1.671-2.623-2.672-4.037-2.056-2.897-4.182-5.894-4.741-9.026-.647-3.628.396-7.031 1.404-10.321.637-2.078 1.297-4.225 1.497-6.37.413-4.428.27-9.152.129-13.719-.057-1.87-.116-3.727-.135-5.548-.046-4.19-.573-8.608-1.085-12.88-.9-7.523-1.832-15.302-.179-22.222 1.745-7.313 3.676-14.604 5.543-21.655 2.54-9.588 5.166-19.502 7.333-29.51 2.382-11.009 4.257-22.32 6.07-33.26 1.266-7.64 2.576-15.538 4.048-23.28 2.138-11.239 6.868-21.543 11.94-31.985 11.959-24.62 18.065-44.659 20.63-68.073-2.812 3.848-7.423 6.38-11.605 8.678l-.983.541a1.08 1.08 0 0 1-1.482-.45 1.129 1.129 0 0 1 .441-1.514l.989-.544c5.056-2.777 10.785-5.925 12.529-11.197.135-.408.49-.702.91-.75.303-.037.6-.03.883.015.57.09.972.62.918 1.206-2.308 25.56-8.472 46.734-21.27 73.08-5.004 10.3-9.666 20.453-11.753 31.42-1.468 7.714-2.774 15.6-4.038 23.227-1.818 10.967-3.698 22.306-6.091 33.366-2.18 10.062-4.811 20-7.356 29.612-1.864 7.04-3.792 14.317-5.532 21.606-1.558 6.522-.692 13.757.226 21.418.52 4.331 1.055 8.813 1.102 13.126.018 1.807.075 3.648.132 5.503.142 4.637.29 9.433-.137 14-.222 2.377-.915 4.64-1.586 6.827-.972 3.168-1.89 6.166-1.34 9.251.47 2.634 2.448 5.422 4.36 8.117.991 1.398 2.016 2.842 2.798 4.234 1.628 2.896 3.176 5.92 4.674 8.844 1.15 2.248 2.311 4.518 3.536 6.79 2.748 5.091 6.464 9.758 10.06 14.273 2.526 3.174 5.128 6.44 7.348 9.814.235-.423.485-.792.722-1.141.264-.392.53-.777.747-1.234.218-.46.713-.705 1.206-.606.49.105.848.535.87 1.049.23 5.628 2.598 18.5 4.423 22.6.248.56.005 1.221-.545 1.477-.146.07-.3.102-.45.102"/><path stroke="#FF120F" stroke-width="1.818" d="M193.1 729c-.416 0-.814-.245-.996-.657-1.716-3.86-3.597-13.646-4.324-19.978a5.54 5.54 0 0 0-.335 1.073 1.105 1.105 0 0 1-.883.867 1.082 1.082 0 0 1-1.116-.512c-2.372-3.919-5.282-7.574-8.363-11.444-3.656-4.59-7.436-9.337-10.277-14.603-1.235-2.286-2.404-4.57-3.562-6.835-1.555-3.038-3.025-5.91-4.631-8.765-.725-1.29-1.671-2.623-2.672-4.037-2.056-2.897-4.182-5.894-4.741-9.026-.647-3.628.396-7.031 1.404-10.321.637-2.078 1.297-4.225 1.497-6.37.413-4.428.27-9.152.129-13.719-.057-1.87-.116-3.727-.135-5.548-.046-4.19-.573-8.608-1.085-12.88-.9-7.523-1.832-15.302-.179-22.222 1.745-7.313 3.676-14.604 5.543-21.655 2.54-9.588 5.166-19.502 7.333-29.51 2.382-11.009 4.257-22.32 6.07-33.26 1.266-7.64 2.576-15.538 4.048-23.28 2.138-11.239 6.868-21.543 11.94-31.985 11.959-24.62 18.065-44.659 20.63-68.073-2.812 3.848-7.423 6.38-11.605 8.678l-.983.541a1.08 1.08 0 0 1-1.482-.45 1.129 1.129 0 0 1 .441-1.514l.989-.544c5.056-2.777 10.785-5.925 12.529-11.197.135-.408.49-.702.91-.75.303-.037.6-.03.883.015.57.09.972.62.918 1.206-2.308 25.56-8.472 46.734-21.27 73.08-5.004 10.3-9.666 20.453-11.753 31.42-1.468 7.714-2.774 15.6-4.038 23.227-1.818 10.967-3.698 22.306-6.091 33.366-2.18 10.062-4.811 20-7.356 29.612-1.864 7.04-3.792 14.317-5.532 21.606-1.558 6.522-.692 13.757.226 21.418.52 4.331 1.055 8.813 1.102 13.126.018 1.807.075 3.648.132 5.503.142 4.637.29 9.433-.137 14-.222 2.377-.915 4.64-1.586 6.827-.972 3.168-1.89 6.166-1.34 9.251.47 2.634 2.448 5.422 4.36 8.117.991 1.398 2.016 2.842 2.798 4.234 1.628 2.896 3.176 5.92 4.674 8.844 1.15 2.248 2.311 4.518 3.536 6.79 2.748 5.091 6.464 9.758 10.06 14.273 2.526 3.174 5.128 6.44 7.348 9.814.235-.423.485-.792.722-1.141.264-.392.53-.777.747-1.234.218-.46.713-.705 1.206-.606.49.105.848.535.87 1.049.23 5.628 2.598 18.5 4.423 22.6.248.56.005 1.221-.545 1.477-.146.07-.3.102-.45.102z"/><path fill="#FF1A1F" d="M235.148 467a1.134 1.134 0 0 1-1.148-1.121c0-15.713 2.556-29.72 8.287-45.422 5.914-16.202 6.87-30.567 6.991-45.905a20.446 20.446 0 0 1 .023-4.557c.071-.59.61-1.06 1.206-.988a1.134 1.134 0 0 1 1.081 1.12c0 1.48-.004 2.951-.016 4.412.556 5.005 3.07 10.038 7.704 11.839.589.229.877.88.643 1.455a1.157 1.157 0 0 1-1.49.627c-3.142-1.22-5.462-3.648-6.996-6.578-.417 12.888-1.907 25.416-6.985 39.328-5.64 15.449-8.153 29.225-8.153 44.669 0 .62-.514 1.121-1.147 1.121"/><path stroke="#FF120F" stroke-width="1.818" d="M235.148 467a1.134 1.134 0 0 1-1.148-1.121c0-15.713 2.556-29.72 8.287-45.422 5.914-16.202 6.87-30.567 6.991-45.905a20.446 20.446 0 0 1 .023-4.557c.071-.59.61-1.06 1.206-.988a1.134 1.134 0 0 1 1.081 1.12c0 1.48-.004 2.951-.016 4.412.556 5.005 3.07 10.038 7.704 11.839.589.229.877.88.643 1.455a1.157 1.157 0 0 1-1.49.627c-3.142-1.22-5.462-3.648-6.996-6.578-.417 12.888-1.907 25.416-6.985 39.328-5.64 15.449-8.153 29.225-8.153 44.669 0 .62-.514 1.121-1.147 1.121z"/><path fill="#FF1A1F" d="M372.596 137a.57.57 0 0 1-.563-.48c-.242-1.552.907-3.202 1.913-4.312 1.744-1.92 4.634-3.854 6.362-3.765.315.017.556 1.404.539 1.716-.016.312-.298 1.66-.597 1.66h-.065c-1.109 0-3.555.243-5.394 2.27-.865.953-1.415 1.315-1.59 2.076.824-.266 1.836-.78 2.96-1.038 4.62-1.064 10.372-2.527 9.63-7.404-.048-.31.167-.668.478-.715.31-.048.6.13.648.44.9 5.914-5.689 7.414-10.5 8.52-1.483.34-2.765.627-3.591.992a.559.559 0 0 1-.23.04m-38.021 8c-.267 0-.509-.152-.563-.372-.065-.251.136-.496.449-.549.29-.047 1.526-.579 2.723-1.091 6.034-2.587 12.14-4.995 14.685-3.557.766.43 1.125 1.149 1.073 2.14.916.02 1.756-.068 2.645-.161l.77-.077a.641.641 0 0 1 .45.114.433.433 0 0 1 .193.35c-.002.34-.009.746-.017 1.074-.006.208-.18.386-.43.44l-.228.049c-1.091.233-2.05.418-2.57.398-.317-.016-.559-.236-.539-.492.02-.258.322-.428.612-.435.356.02 1.354-.188 2.01-.328l.004-.181-.107.01c-1.086.114-2.208.233-3.474.139a.629.629 0 0 1-.398-.173.4.4 0 0 1-.12-.353c.15-.878-.03-1.468-.533-1.752-2.187-1.224-9.816 2.042-13.485 3.616-1.742.747-2.6 1.109-3.034 1.181a.772.772 0 0 1-.116.01m6.981-11.443c4.44 0 8.823 1.23 12.358 3.12-.274-3.409-5.747-4.346-6.415-4.447-3.53-.539-7.403.3-10.998 1.895a22.173 22.173 0 0 1 5.055-.568M326.538 141a.535.535 0 0 1-.393-.902c4.981-5.305 13.977-10.066 21.516-8.928 3.724.567 7.866 2.605 7.284 6.48a.535.535 0 0 1-.298.403.534.534 0 0 1-.505-.02c-6.9-4.025-17.7-5.414-25.101 1.047a.516.516 0 0 1-.438.126 26.066 26.066 0 0 0-1.673 1.624.54.54 0 0 1-.392.17"/><path fill="#FF1A1F" d="M344.792 147c-3.087 0-6.497-.6-10.403-1.813a.552.552 0 0 1-.35-.31.505.505 0 0 1 .033-.453c1.791-3.019 9.433-6.276 12.298-7.003 1.83-.46 3.613-.248 5.34-.043 2.821.34 5.257.627 7.254-2.145a.595.595 0 0 1 .787-.143.513.513 0 0 1 .152.739c-2.389 3.312-5.41 2.955-8.336 2.605-1.617-.193-3.289-.396-4.902.015-2.971.752-9.155 3.58-11.204 5.946 5.742 1.695 10.325 1.983 14.38.907a.571.571 0 0 1 .7.368.528.528 0 0 1-.39.656 20.785 20.785 0 0 1-5.36.674m9.945 4c-.068 0-.14-.004-.218-.01-.316-.027-.546-.272-.515-.545.032-.275.317-.472.632-.446.133.014.2 0 .225-.006-.01-.014.006-.122-.07-.364-.083-.266.098-.54.406-.611.311-.072.622.083.705.35.176.553.117.987-.172 1.282-.163.166-.462.35-.993.35m14.72 18c-1.076 0-1.958-.167-2.573-.562-.756-.485-1.029-1.25-.81-2.268.048-.224.319-.374.608-.337.288.037.481.251.432.475-.154.716-.01 1.204.44 1.493 1.929 1.232 8.828-.822 12.534-1.927 1.854-.552 2.846-.843 3.346-.872.294-.023.545.153.565.381.023.227-.195.426-.486.442-.372.022-1.672.41-3.05.82-4.087 1.22-8.202 2.355-11.006 2.355m3.089 22a.731.731 0 0 1-.308-.065c-.247-.118-.312-.35-.143-.521 1.097-1.105 3.707-1.23 6.008-1.342.454-.022.892-.043 1.298-.071.302-.013.568.129.597.336.03.205-.189.39-.488.41-.416.029-.865.051-1.33.074-1.954.094-4.385.21-5.182 1.016a.648.648 0 0 1-.452.163m8.884-6a.573.573 0 0 1-.53-.357c-.167-.205-.367-.449-.455-.784-.228-.038-.434-.088-.626-.133-.574-.137-.947-.227-1.52.03a.569.569 0 0 1-.796-.423c-.08-.445-.254-.75-.532-.937-.445-.299-1.231-.324-2.27-.085a.565.565 0 0 1-.685-.43.572.572 0 0 1 .428-.687c1.39-.324 2.423-.242 3.156.246.384.254.67.61.852 1.063.624-.131 1.136-.013 1.631.107.284.069.582.142.934.163a.576.576 0 0 1 .533.662c-.024.156.018.217.159.386.095.115.2.241.261.42a.576.576 0 0 1-.356.73.614.614 0 0 1-.184.029"/><path fill="#FF1A1F" d="M366.506 185c-.26 0-.483-.353-.504-.7-.022-.365.184-.728.46-.76.188-.022.377-.061.567-.078.189-.021.38-.054.572-.078 1.068-.12 2.166-.244 3.328-.202.009-.097.02-.202.031-.3.037-.306.073-.62.064-.831-.012-.266.1-.517.282-.635.728-.467 1.536-.543 2.337-.216.268.11.417.48.334.83-.084.351-.368.543-.635.439-.457-.187-.9-.194-1.315-.007-.015.203-.04.412-.062.617l-.035.294c.41.007.82.011 1.225.011.28 0 .508.297.508.664 0 .369-.228.665-.508.665-.586 0-1.177-.01-1.77-.02a41.917 41.917 0 0 0-4.284.16c-.188.021-.373.147-.558.147h-.037zm-6.929-1c-.248 0-.476-.138-.552-.354-.092-.264.078-.543.383-.624 5.135-1.36 9.074-3.926 13.244-6.644l.425-.278a.637.637 0 0 1 .808.101c.19.22.139.534-.115.7l-.424.276c-4.255 2.771-8.272 5.39-13.6 6.8a.676.676 0 0 1-.17.023m-.03 26c-15.258 0-42.742-4.746-45.377-19.449-.541-.586-.596-.82-.707-1.567l-.046-.294c-.103-.184-.185-.428-.276-.716a.511.511 0 0 1-.14-.344c-.006-.27.203-.578.476-.622.496-.071.635.358.728.646.042.132.14.443.194.525a.75.75 0 0 1 .102.235l.065.414c.097.65.097.65.534 1.108a.537.537 0 0 1 .142.283c2.607 15.692 36.66 19.643 49.149 18.504.3-.04.58.189.608.487a.544.544 0 0 1-.503.589 54.928 54.928 0 0 1-4.95.201m-88.83 21.751c.351 1.03.945 1.79 1.83 2.19 1.932.878 3.334.027 4.172-.841 1.857-1.93 2.605-5.726 1.541-7.812-.753-1.474-1.604-2.173-2.54-2.08-1.67.165-3.548 2.844-4.188 5.144a49.338 49.338 0 0 0-.815 3.4M201.56 373a.555.555 0 0 1-.552-.652c.978-5.607 6.597-9.198 12.032-12.668 2.99-1.911 6.085-3.887 8.273-6.14 5.567-5.736 7.965-10.742 8.021-16.737.031-3.324-.556-6.629-1.125-9.823-.869-4.894-1.768-9.953-.463-15.181 1.857-7.442 7.574-15.715 15.295-22.128 12.721-10.566 20.184-22.581 23.488-37.816.733-3.384 1.173-6.956 1.6-10.41.391-3.181.793-6.438 1.428-9.614-1.524-5.185 1.923-14.612 3.81-19.145 2.726-6.55 7.282-11.152 12.108-16.027a196.95 196.95 0 0 0 3.692-3.795c15.794-16.829 26.592-36.634 28.888-52.985.257-1.828.487-3.667.717-5.51.815-6.51 1.657-13.242 3.704-19.628.222-.69.43-1.364.635-2.027.974-3.146 1.892-6.117 3.719-9.126 1.062-1.75 2.16-3.56 3.598-5.2 2.119-2.417 5.182-5.914 8.1-6.738 3.12-.882 7.828-1.049 10.791.666 1.405.814 2.301 1.973 2.665 3.448a.558.558 0 0 1-.41.672.557.557 0 0 1-.678-.408c-.286-1.168-1.007-2.093-2.14-2.749-2.861-1.657-7.502-1.242-9.921-.558-2.6.734-5.65 4.215-7.472 6.295-1.465 1.672-2.538 3.44-3.576 5.148-1.754 2.892-2.654 5.8-3.607 8.876a172.79 172.79 0 0 1-.638 2.04c-2.016 6.287-2.852 12.967-3.66 19.426-.231 1.85-.462 3.694-.718 5.526-2.326 16.568-13.235 36.602-29.18 53.593-1.223 1.302-2.472 2.563-3.711 3.817-4.747 4.793-9.23 9.323-11.874 15.671-2.246 5.395-4.022 11.276-4.09 15.463l.141-.522c.648-2.324 2.676-5.709 5.156-5.955.988-.095 2.426.288 3.649 2.685 1.296 2.536.486 6.783-1.73 9.085-1.533 1.597-3.465 1.982-5.446 1.085a4.215 4.215 0 0 1-1.707-1.402c-.472 2.663-.806 5.373-1.133 8.028-.43 3.479-.872 7.076-1.616 10.512-3.358 15.488-10.943 27.701-23.866 38.435-7.544 6.266-13.124 14.32-14.927 21.542-1.246 4.998-.406 9.719.48 14.716.578 3.244 1.174 6.599 1.143 10.026-.058 6.308-2.552 11.541-8.337 17.502-2.28 2.347-5.428 4.358-8.473 6.304-5.231 3.34-10.64 6.796-11.532 11.92a.56.56 0 0 1-.55.463M359.9 87a.57.57 0 0 1-.495-.277.524.524 0 0 1 .096-.652c1.68-1.573 2.6-4.096 2.592-7.105-.012-4.2-1.785-8.554-4.518-11.089-7.228-6.708-17.545-5.384-30.668 3.93a.586.586 0 0 1-.794-.112.524.524 0 0 1 .117-.758c13.637-9.678 24.449-10.972 32.136-3.837 2.942 2.729 4.85 7.386 4.863 11.865.006 2.364-.526 4.47-1.527 6.13 3.776-2.384 6.613-8.687 7.088-14.11.44-5.02-1.103-8.646-4.236-9.946a.533.533 0 0 1-.295-.713.58.58 0 0 1 .747-.28c3.608 1.497 5.4 5.517 4.916 11.03-.587 6.69-4.7 14.68-9.886 15.907a.56.56 0 0 1-.137.017m10.588 10a.474.474 0 0 1-.375-.191c-.848-1.095-1.733-2.28-2.434-3.686a.598.598 0 0 1-.063-.256c-.35-.247-.75-.43-1.216-.534-.268-.06-.443-.348-.39-.647.054-.303.322-.495.581-.435.65.144 1.19.4 1.653.743 4.586-4.635 5.942-11.983 3.716-20.283-.078-.292.07-.601.332-.688.262-.087.538.08.617.372 2.324 8.666.9 16.38-3.898 21.314.82.94 1.362 2.2 1.923 3.5.107.25.033.55-.176.7a.446.446 0 0 1-.27.091"/><path fill="#FF1A1F" d="M205.895 265a.562.562 0 0 1-.48-.266c-1.168-1.878.131-5.075 3.862-9.5 2.906-3.45 6.901-5.225 10.764-6.942 1.993-.886 4.053-1.802 5.903-2.93 2.627-1.6 4.381-3.985 4.94-6.718.536-2.61-.103-5.346-1.8-7.708-.875-1.219-1.895-2.191-2.88-3.13-1.814-1.731-3.689-3.52-4.446-6.745-.882-3.756-.12-7.55 2.143-10.686 8.622-11.933 19.966-15.324 33.1-19.253l1.246-.372c2.58-.774 5.181-1.438 7.7-2.08 4.839-1.235 9.41-2.401 14-4.307 13.67-5.676 20.864-16.78 27.46-31.706 4.272-9.663 5.621-19.147 7.052-29.189.248-1.738.497-3.494.764-5.265 1.193-7.898 3.732-14.392 7.548-19.298 5.078-6.527 16.875-14.944 25.823-13.8 4.278.552 7.428 3.145 9.361 7.705a.553.553 0 0 1-.3.73.56.56 0 0 1-.736-.298c-1.768-4.169-4.62-6.533-8.47-7.03-8.535-1.102-19.874 7.06-24.785 13.374-3.698 4.754-6.165 11.073-7.328 18.78a625.25 625.25 0 0 0-.763 5.259c-1.44 10.119-2.802 19.676-7.135 29.48-6.705 15.171-14.04 26.468-28.055 32.288-4.666 1.936-9.49 3.167-14.155 4.357-2.508.64-5.1 1.302-7.657 2.067l-1.245.373c-12.938 3.869-24.11 7.21-32.51 18.835-2.102 2.912-2.78 6.296-1.962 9.783.682 2.904 2.358 4.5 4.13 6.193 1.022.975 2.08 1.985 3.018 3.289 1.877 2.616 2.583 5.661 1.985 8.577-.622 3.037-2.56 5.683-5.453 7.444-1.912 1.168-4.007 2.098-6.032 3-3.747 1.663-7.621 3.385-10.36 6.638-3.244 3.847-4.617 6.836-3.77 8.2a.556.556 0 0 1-.477.851m203.844-10.638c-.705.923-.978 1.812-.757 2.486.257.778 1.108 1.18 1.898 1.391.04-1.632-.283-2.987-1.141-3.877M316.172 320c-1.29 0-2.595-.008-3.917-.026-4.538-.058-9.046-.268-13.404-.47-7.112-.329-14.467-.672-22.235-.368-.215.02-.452-.136-.54-.36-.17-.437-.356-.809-.531-1.159-.488-.967-.947-1.884-.772-3.537-2.478-4.037-7.084-8.7-12.715-9.865-3.567-.736-6.99.058-10.178 2.36a.549.549 0 0 1-.776-.13.566.566 0 0 1 .129-.784c3.45-2.494 7.17-3.353 11.047-2.547 6.06 1.252 10.97 6.27 13.545 10.546.067.112.093.24.075.367-.19 1.436.157 2.126.637 3.082.14.277.284.565.424.887 7.67-.268 14.924.06 21.941.385 4.35.202 8.847.41 13.368.468 18.825.246 34.348-1.21 50.314-4.698 15.126-3.302 28.285-4.1 39.142-2.383-4.06-7.41-.118-22.89 1.827-30.53l.385-1.519c.414-1.657 1.365-3.977 2.467-6.662 1.769-4.316 3.948-9.633 4.396-13.68-1.925-.449-2.627-1.421-2.876-2.176-.39-1.187.084-2.615 1.338-4.016a.558.558 0 0 1 .746-.076c4.42 3.312.542 12.774-2.575 20.377-1.084 2.646-2.02 4.93-2.415 6.508l-.387 1.525c-2.006 7.872-6.177 24.25-1.307 30.672.14.186.151.436.033.636a.552.552 0 0 1-.574.26c-10.946-1.96-24.395-1.237-39.964 2.164-14.93 3.26-29.465 4.749-46.648 4.749m11.47-65.987c.423 2.015 1.164 4.035 2.383 5.099.705.616 1.503.846 2.425.71 1.034-.153 2.295-.504 2.431-1.312.203-1.21-1.92-3.287-3.146-3.95-.756-.408-2.325-.537-4.093-.547M331.95 261c-.98.001-1.864-.342-2.64-1.018-1.554-1.356-2.367-3.806-2.792-5.962-1.187.02-2.401.079-3.477.13-1.602.077-2.988.146-3.972.1-2.654-.115-5.621-.002-8.763.12-7.102.274-14.443.555-19.955-1.674a.569.569 0 0 1-.35-.557c.02-.432.048-1.088.54-1.278.445-.16.766.187.981.42.089.094.272.293.352.317.304-.056.57.156.622.468a.51.51 0 0 1 .001.17c5.08 1.482 11.52 1.233 17.768.994 3.166-.121 6.16-.236 8.851-.119.939.043 2.363-.028 3.873-.098 1.093-.053 2.232-.106 3.332-.132a25.619 25.619 0 0 1-.268-3.006c-.07-3.22.199-6.34.461-9.357.572-6.626 1.113-12.883-1.696-20.06-.929-2.37-3.192-5.664-5.587-9.15-5.556-8.085-12.47-18.146-7.8-24.096a.54.54 0 0 1 .777-.085.581.581 0 0 1 .084.801c-4.144 5.279 2.502 14.951 7.841 22.72 2.435 3.543 4.733 6.888 5.71 9.383 2.91 7.433 2.333 14.12 1.773 20.588-.259 2.986-.525 6.072-.455 9.229.017.829.098 1.895.274 3.022 2.037 0 3.834.153 4.816.681 1.236.67 4.066 3.104 3.721 5.153-.199 1.19-1.331 1.946-3.364 2.246a4.54 4.54 0 0 1-.658.05m24.336-4a.402.402 0 0 1-.068-.005c-1.775-.232-3.115-1.095-3.773-2.428-.68-1.38-.578-3.134.287-4.94 1.577-3.285 5.713-3.927 9.036-4.442.907-.14 1.764-.273 2.484-.447 6.53-1.573 23.386-5.634 29.908-12.206-.16-.049-.312-.111-.462-.172-.158-.062-.323-.128-.514-.185-.295-.088-.47-.416-.389-.734.08-.317.382-.51.684-.418.225.067.422.146.608.22.441.177.707.287 1.217.143a.543.543 0 0 1 .613.262.63.63 0 0 1-.052.704c-5.37 6.665-20.474 10.926-31.37 13.551-.76.183-1.638.32-2.568.463-3.07.476-6.891 1.068-8.207 3.809-.693 1.447-.797 2.808-.293 3.833.468.947 1.458 1.577 2.796 1.784.25-.113.41-.308.23-.95-.087-.316.08-.648.374-.743.298-.097.604.086.694.4.335 1.208-.05 2.109-1.06 2.47a.526.526 0 0 1-.175.031m-1.436-24c-.306 0-.576-.196-.62-.466-.688-4.08.298-8.384 1.251-12.548.494-2.145 1.003-4.365 1.263-6.496.036-.3.349-.529.693-.485.345.032.596.3.56.6-.268 2.18-.78 4.425-1.279 6.594-.934 4.073-1.9 8.283-1.243 12.176.05.3-.188.575-.532.62a.823.823 0 0 1-.092.005"/><path fill="#FF1A1F" d="M154.562 438h-.026c-.31 0-.55-1.72-.535-2.03.098-2.022.786-4.566 2.168-6.45 4.858-6.619 16.677-6.64 22.36-6.483 22.73.638 38.761-8.764 47.62-27.622 6.239-13.286 8.552-28.55 10.789-43.226.904-5.933 1.84-12.114 3.015-17.888.193-.951.387-1.972.588-3.008 1.579-8.149 3.649-18.84 9.514-24.561.942-1.026 2.174-1.933 3.78-2.677a.562.562 0 0 1 .745.261.554.554 0 0 1-.263.74 12.978 12.978 0 0 0-3.36 2.354c-3.14 3.356-2.772 8.245-2.389 13.354.168 2.25.343 4.576.188 6.74-.203 2.851-.77 5.373-1.32 7.812-.914 4.057-1.775 7.888-.95 12.896.532 3.237 1.466 6.184 2.455 9.304 1.147 3.616 2.331 7.355 2.81 11.527l.156 1.4c.644 5.905 1.37 12.573 7.005 15.628 1.285-4.91 1.66-6.107 4.122-9.803 2.092-3.143 4.465-5.825 6.977-8.66l1.022-1.154c.23-.263.616-.668 1.106-1.181 2.715-2.847 9.074-9.515 8.725-12.967a1.755 1.755 0 0 0-.78-1.334.554.554 0 0 1-.135-.777.565.565 0 0 1 .782-.136c.738.515 1.16 1.236 1.25 2.136.402 3.959-5.966 10.636-9.026 13.844-.477.501-.853.893-1.077 1.148l-1.022 1.158c-2.487 2.806-4.836 5.457-6.885 8.538-2.467 3.705-2.754 4.807-4.138 10.099a.601.601 0 0 1-.31.386.594.594 0 0 1-.484.018c-6.76-3.162-7.551-10.42-8.25-16.824l-.153-1.392c-.468-4.068-1.637-7.754-2.766-11.32-.959-3.021-1.95-6.144-2.494-9.457-.86-5.222.025-9.156.963-13.321.54-2.4 1.098-4.88 1.297-7.647.148-2.083-.022-4.368-.188-6.577-.229-3.043-.46-6.132.088-8.915-3.207 5.694-4.695 13.369-5.893 19.549-.2 1.038-.395 2.04-.589 2.993-1.17 5.749-2.061 11.597-3.005 17.792-2.25 14.751-4.574 30.007-10.882 43.439-9.065 19.303-25.448 28.724-48.669 28.086-5.493-.165-16.912-.481-21.423 5.663-1.244 1.7-1.866 4.772-1.952 6.57-.014.298-.262 1.975-.561 1.975"/><path stroke="#FF170F" stroke-width="3" d="M154.562 438h-.026c-.31 0-.55-1.72-.535-2.03.098-2.022.786-4.566 2.168-6.45 4.858-6.619 16.677-6.64 22.36-6.483 22.73.638 38.761-8.764 47.62-27.622 6.239-13.286 8.552-28.55 10.789-43.226.904-5.933 1.84-12.114 3.015-17.888.193-.951.387-1.972.588-3.008 1.579-8.149 3.649-18.84 9.514-24.561.942-1.026 2.174-1.933 3.78-2.677a.562.562 0 0 1 .745.261.554.554 0 0 1-.263.74 12.978 12.978 0 0 0-3.36 2.354c-3.14 3.356-2.772 8.245-2.389 13.354.168 2.25.343 4.576.188 6.74-.203 2.851-.77 5.373-1.32 7.812-.914 4.057-1.775 7.888-.95 12.896.532 3.237 1.466 6.184 2.455 9.304 1.147 3.616 2.331 7.355 2.81 11.527l.156 1.4c.644 5.905 1.37 12.573 7.005 15.628 1.285-4.91 1.66-6.107 4.122-9.803 2.092-3.143 4.465-5.825 6.977-8.66l1.022-1.154c.23-.263.616-.668 1.106-1.181 2.715-2.847 9.074-9.515 8.725-12.967a1.755 1.755 0 0 0-.78-1.334.554.554 0 0 1-.135-.777.565.565 0 0 1 .782-.136c.738.515 1.16 1.236 1.25 2.136.402 3.959-5.966 10.636-9.026 13.844-.477.501-.853.893-1.077 1.148l-1.022 1.158c-2.487 2.806-4.836 5.457-6.885 8.538-2.467 3.705-2.754 4.807-4.138 10.099a.601.601 0 0 1-.31.386.594.594 0 0 1-.484.018c-6.76-3.162-7.551-10.42-8.25-16.824l-.153-1.392c-.468-4.068-1.637-7.754-2.766-11.32-.959-3.021-1.95-6.144-2.494-9.457-.86-5.222.025-9.156.963-13.321.54-2.4 1.098-4.88 1.297-7.647.148-2.083-.022-4.368-.188-6.577-.229-3.043-.46-6.132.088-8.915-3.207 5.694-4.695 13.369-5.893 19.549-.2 1.038-.395 2.04-.589 2.993-1.17 5.749-2.061 11.597-3.005 17.792-2.25 14.751-4.574 30.007-10.882 43.439-9.065 19.303-25.448 28.724-48.669 28.086-5.493-.165-16.912-.481-21.423 5.663-1.244 1.7-1.866 4.772-1.952 6.57-.014.298-.262 1.975-.561 1.975z"/><path fill="#FF1A1F" d="M168.53 439a.553.553 0 0 1-.5-.318c-3.932-8.282 4.164-21.005 11.332-25.215 2.274-1.335 4.61-2.399 6.867-3.428 5.3-2.409 10.303-4.689 14.596-10.231 9.032-11.66 11.108-32.798 6.34-64.625-3.382-22.593-5.25-44.027 8.852-57.927 4.713-4.649 11.926-8.651 19.56-12.889 15.165-8.416 32.281-17.913 32.313-34.848-8.48 14.181-22.556 22.862-36.185 31.269-4.114 2.536-8.367 5.16-12.426 7.906-11.664 7.884-22.345 17.488-21.527 34.242.296 6.055.573 26.473-8.273 35.03-2.879 2.785-6.467 3.994-10.647 3.637a.556.556 0 0 1-.503-.605c.026-.307.304-.548.602-.507 3.84.34 7.14-.778 9.78-3.33 8.728-8.44 8.14-29.945 7.934-34.17-.845-17.305 10.081-27.157 22.015-35.225 4.08-2.757 8.342-5.387 12.465-7.929 14.686-9.058 28.558-17.615 36.764-32.548a.555.555 0 0 1 .605-.276c.24.053.416.26.434.505 1.363 18.858-16.794 28.935-32.815 37.826-7.567 4.2-14.713 8.167-19.32 12.708-13.728 13.53-11.867 34.668-8.53 56.968 4.814 32.142 2.666 53.561-6.563 65.474-4.46 5.76-9.825 8.2-15.014 10.563-2.23 1.016-4.54 2.067-6.765 3.373-6.09 3.577-14.681 15.787-10.892 23.772a.558.558 0 0 1-.5.798m176.064-121c-.328 0-.593-.247-.593-.55 0-12.775 1.464-30.445 14.138-36.39.293-.137.649-.03.797.24.15.271.032.601-.26.738-12.09 5.672-13.487 22.927-13.487 35.413 0 .302-.266.549-.595.549m-17.095 154.157c-.923 1.073-1.392 2.312-1.45 3.875 1.136-1.408 2.24-2.82 2.646-3.89-.389.03-.79.054-1.196.015m-2.313 6.774c-1.34 1.771-2.39 3.498-1.93 4.574.283.662 1.194 1.123 2.71 1.368 1.212-1.206 1.81-3.553 1.207-4.913-.29-.65-.816-.929-1.574-.9a.528.528 0 0 1-.413-.13m.972 7.07a.687.687 0 0 1-.084-.006c-2.142-.3-3.412-.98-3.882-2.08-.76-1.78.873-4.14 2.752-6.507-.235-2.63.357-4.553 1.89-6.19a.586.586 0 0 1 .53-.174c.458.08.945.036 1.463-.002.191-.018.382-.03.57-.041.19 0 .326.053.44.164a.522.522 0 0 1 .162.422c-.12 1.5-1.995 3.433-3.648 5.478-.177.218-.846.44-.846.662v.003c0 .09.311.176.28.253.98.101 1.884.64 2.29 1.557.824 1.855.096 4.868-1.611 6.322-.107.09-.164.139-.306.139m-106.619 57c-.183 0-.358-.159-.429-.418-.46-1.667-1.348-2.431-2.592-2.228-.247.044-.482-.213-.514-.574-.03-.364.15-.693.405-.735 1.64-.29 2.946.83 3.56 3.053.093.34-.022.722-.26.856a.343.343 0 0 1-.17.046m-30.602 121c-.72 0-1.49-.074-2.313-.22a.546.546 0 0 1-.46-.543c.058-2.783-1.679-4.56-3.515-6.439-1.881-1.922-3.825-3.912-3.877-7.06-.885-2.566-2.014-5.15-3.21-7.887-2.076-4.75-4.222-9.66-5.024-14.532-.098-.348-.436-1.315-1.435-3.652-.072-.17-.263-.619.188-.85l.263.479.525-.193.064.15c.82 1.922 1.324 3.214 1.494 3.842.792 4.796 2.91 9.646 4.96 14.336 1.163 2.66 2.367 5.413 3.27 8.046.02.054.029.111.029.169.013 2.77 1.74 4.538 3.57 6.408 1.818 1.86 3.693 3.778 3.817 6.734 2.635.386 4.594-.107 5.826-1.463 4.388-4.834-.523-19.386-2.62-25.6-.267-.791-.494-1.465-.66-1.99-1.13-3.578-1.388-7.495-1.637-11.284-.227-3.474-.462-7.067-1.366-10.426-1.466-5.466-4.475-8.78-7.96-12.62-.732-.807-1.484-1.635-2.25-2.514a.529.529 0 0 1 .069-.763.575.575 0 0 1 .792.067c.759.869 1.508 1.695 2.236 2.497 3.579 3.94 6.668 7.346 8.202 13.062.93 3.459 1.169 7.104 1.4 10.626.255 3.9.496 7.583 1.59 11.04.163.519.388 1.186.653 1.97 2.339 6.93 7.206 21.353 2.396 26.649-1.185 1.306-2.868 1.961-5.017 1.961"/><path stroke="#FF170F" stroke-width="1.818" d="M188.936 664c-.72 0-1.49-.074-2.313-.22a.546.546 0 0 1-.46-.543c.058-2.783-1.679-4.56-3.515-6.439-1.881-1.922-3.825-3.912-3.877-7.06-.885-2.566-2.014-5.15-3.21-7.887-2.076-4.75-4.222-9.66-5.024-14.532-.098-.348-.436-1.315-1.435-3.652-.072-.17-.263-.619.188-.85l.263.479.525-.193.064.15c.82 1.922 1.324 3.214 1.494 3.842.792 4.796 2.91 9.646 4.96 14.336 1.163 2.66 2.367 5.413 3.27 8.046.02.054.029.111.029.169.013 2.77 1.74 4.538 3.57 6.408 1.818 1.86 3.693 3.778 3.817 6.734 2.635.386 4.594-.107 5.826-1.463 4.388-4.834-.523-19.386-2.62-25.6-.267-.791-.494-1.465-.66-1.99-1.13-3.578-1.388-7.495-1.637-11.284-.227-3.474-.462-7.067-1.366-10.426-1.466-5.466-4.475-8.78-7.96-12.62-.732-.807-1.484-1.635-2.25-2.514a.529.529 0 0 1 .069-.763.575.575 0 0 1 .792.067c.759.869 1.508 1.695 2.236 2.497 3.579 3.94 6.668 7.346 8.202 13.062.93 3.459 1.169 7.104 1.4 10.626.255 3.9.496 7.583 1.59 11.04.163.519.388 1.186.653 1.97 2.339 6.93 7.206 21.353 2.396 26.649-1.185 1.306-2.868 1.961-5.017 1.961z"/><path fill="#FF1A1F" d="M187.622 708c-.317 0-.599-.168-.771-.476-.884-1.58-2.14-2.874-3.472-4.241-1.168-1.202-2.375-2.444-3.336-3.921-1.3-1.993-2.191-4.357-3.053-6.644-.601-1.59-1.222-3.235-1.978-4.754-1.331-2.68-2.967-5.258-4.55-7.75-1.967-3.098-4.001-6.302-5.492-9.76-.493-1.143-.854-2.389-1.203-3.594-1.044-3.6-2.032-7.005-6.33-7.957a.563.563 0 0 1-.424-.671.558.558 0 0 1 .66-.434c4.941 1.096 6.069 4.983 7.16 8.743.338 1.171.69 2.38 1.153 3.458 1.456 3.374 3.465 6.54 5.41 9.602 1.598 2.517 3.25 5.12 4.608 7.85.78 1.573 1.412 3.245 2.022 4.862.88 2.333 1.71 4.537 2.942 6.426.9 1.383 2.07 2.584 3.2 3.748 1.281 1.318 2.604 2.678 3.555 4.317 1.435-.973 5.585-9.834 5.147-12.044-.684-3.466-3.512-8.166-6.007-12.31-1.133-1.881-2.201-3.658-2.984-5.176l-.079-.15c-4.937-9.575-7.657-14.85-4.57-25.715.087-.3.398-.48.689-.383a.566.566 0 0 1 .379.7c-2.964 10.426-.474 15.252 4.486 24.87l.079.153c.766 1.485 1.825 3.245 2.948 5.11 2.541 4.225 5.424 9.015 6.148 12.68.517 2.607-3.96 12.623-5.988 13.395a.987.987 0 0 1-.35.066"/><path stroke="#FF170F" stroke-width="1.818" d="M187.622 708c-.317 0-.599-.168-.771-.476-.884-1.58-2.14-2.874-3.472-4.241-1.168-1.202-2.375-2.444-3.336-3.921-1.3-1.993-2.191-4.357-3.053-6.644-.601-1.59-1.222-3.235-1.978-4.754-1.331-2.68-2.967-5.258-4.55-7.75-1.967-3.098-4.001-6.302-5.492-9.76-.493-1.143-.854-2.389-1.203-3.594-1.044-3.6-2.032-7.005-6.33-7.957a.563.563 0 0 1-.424-.671.558.558 0 0 1 .66-.434c4.941 1.096 6.069 4.983 7.16 8.743.338 1.171.69 2.38 1.153 3.458 1.456 3.374 3.465 6.54 5.41 9.602 1.598 2.517 3.25 5.12 4.608 7.85.78 1.573 1.412 3.245 2.022 4.862.88 2.333 1.71 4.537 2.942 6.426.9 1.383 2.07 2.584 3.2 3.748 1.281 1.318 2.604 2.678 3.555 4.317 1.435-.973 5.585-9.834 5.147-12.044-.684-3.466-3.512-8.166-6.007-12.31-1.133-1.881-2.201-3.658-2.984-5.176l-.079-.15c-4.937-9.575-7.657-14.85-4.57-25.715.087-.3.398-.48.689-.383a.566.566 0 0 1 .379.7c-2.964 10.426-.474 15.252 4.486 24.87l.079.153c.766 1.485 1.825 3.245 2.948 5.11 2.541 4.225 5.424 9.015 6.148 12.68.517 2.607-3.96 12.623-5.988 13.395a.987.987 0 0 1-.35.066z"/><path fill="#FF1A1F" d="M320.398 575c-13.35 0-26.528-1.451-38.987-5.476-6.139-1.986-12.268-4.173-18.195-6.29-4.807-1.719-9.775-3.493-14.64-5.117-4.468-1.491-8.732-3.642-12.855-5.718-5.999-3.024-11.665-5.88-17.973-6.94a.574.574 0 0 1-.467-.536c-.021-.331-.058-.682-.095-1.034-.047-.454-.096-.92-.117-1.37-1.453-.272-2.809-.781-4.122-1.275-1.22-.46-2.37-.895-3.482-1.088a.577.577 0 0 1-.457-.668c.05-.316.342-.546.64-.475 1.214.21 2.41.662 3.677 1.138 1.402.53 2.85 1.075 4.368 1.298.276.04.481.287.48.579-.005.537.06 1.145.121 1.736.021.21.044.418.063.624 6.306 1.148 12.172 4.104 17.849 6.965 4.089 2.063 8.317 4.194 12.71 5.66 4.875 1.627 9.85 3.405 14.662 5.123 5.92 2.115 12.04 4.3 18.163 6.279 24.487 7.912 51.863 5.785 77.8 2.302 14.7-1.972 42.504-7.716 43.353-12.675.055-.317.354-.53.647-.471a.58.58 0 0 1 .45.672c-1.286 7.518-43.877 13.567-44.305 13.626C346.775 573.6 333.502 575 320.398 575"/><path fill="#FF1A1F" d="M297.638 623.42c-.384 5.785-.577 12.971.99 14.987.153-5.001-.303-10.018-.99-14.988M299.155 640a.621.621 0 0 1-.161-.022c-3.49-1.02-3.001-10.62-2.133-21.218.008-.103.015-.203.024-.304-.263-1.622-.54-3.237-.812-4.843-.61-3.572-1.239-7.27-1.714-10.904-.313-2.394-1.478-5.606-2.712-9.005-2.72-7.497-5.803-15.995-1.538-20.326 2.606-2.647 9.945-4.635 16.042-4.351 2.564.122 5.98.714 7.707 2.844 1.659 2.045 1.502 6.069-.415 10.06-1.716 3.575-4.993 7.9-8.13 7.9h-.144c-2.98 0-4.354-1.695-4.984-2.777-1.076-1.841-.814-4.719.681-7.17 1.69-2.77 4.456-4.518 7.336-4.445.266.01.489.148.537.403.622 3.323-.429 5.94-3.124 7.828a.578.578 0 0 1-.787-.143.56.56 0 0 1 .133-.784c2.214-1.549 3.114-3.613 2.742-6.29-2.68.117-4.77 1.999-5.867 3.795-1.266 2.074-1.53 5.339-.673 6.808.688 1.178 2.072 2.774 4.01 2.774h.124c2.239 0 5.235-3.884 7.125-7.818 1.703-3.546 1.916-7.279.553-8.96-1.141-1.408-3.584-2.514-6.878-2.67-5.72-.259-12.805 1.483-15.179 3.891-3.774 3.835-.817 11.926 1.793 19.119 1.254 3.457 2.438 6.691 2.768 9.206.472 3.612 1.1 7.284 1.708 10.847.004.029.009.049.015.08a.564.564 0 0 1 .559-.488.56.56 0 0 1 .564.555c0 1.037-.132 2.708-.304 4.822 1.122 6.922 2.03 13.994 1.697 21.055a.547.547 0 0 1-.236.43.582.582 0 0 1-.327.101m-104.748-31c-5.316.002-10.05-.911-12.274-3.494a.547.547 0 0 1 .068-.78.579.579 0 0 1 .795.067c4.967 5.762 25.64 2.336 32.688-.606a.602.602 0 0 1 .285-.038c7.226.786 23.551-12.43 29.616-24.016 1.968-3.752 3.668-8.919.611-12.207a.544.544 0 0 1 .039-.78.568.568 0 0 1 .798.037c2.765 2.975 2.612 7.626-.44 13.455-6.317 12.055-22.8 25.284-30.602 24.623-3.904 1.588-13.427 3.739-21.584 3.739m171-1.113c8.258 4.064 19.419 5.234 29.138 2.52 9.174-2.567 15.365-8.087 17.706-15.689-10.256 12.868-29.787 16.254-46.844 13.169M383.539 613c-7.982 0-15.89-2.112-21.75-5.871a60.702 60.702 0 0 1-3.522-.955.563.563 0 0 1-.395-.504.565.565 0 0 1 .324-.552c.18-.083.355-.176.525-.273a21.716 21.716 0 0 1-2.366-2.387c-4.842-5.714-5.664-12.85-2.377-20.634a.547.547 0 0 1 .724-.295.57.57 0 0 1 .288.744c-3.105 7.356-2.345 14.081 2.197 19.445.738.87 1.566 1.688 2.471 2.458 1.326-1.133 2.274-2.869 2.825-5.177 1.952-8.184-1.755-21.714-5.21-26.21a.577.577 0 0 1-.053-.616.557.557 0 0 1 .532-.297c2.415.202 3.373.674 3.995 2.06.2-.84.402-1.763.431-2.396a.559.559 0 0 1 .307-.48.535.535 0 0 1 .559.04c1.532 1.09 2.457 2.128 3.107 3.615.135-.81.255-1.676.262-2.216a.565.565 0 0 1 .469-.551.56.56 0 0 1 .607.381c.215.652.445 1.152.667 1.635.223.482.438.952.619 1.526.41-1.024.797-2.195.748-3.717a.574.574 0 0 1 .289-.517.552.552 0 0 1 .58.034c9.139 6.532 4.514 23.864.792 32.115a.54.54 0 0 1-.732.276.57.57 0 0 1-.27-.75c3.465-7.681 7.807-23.479.41-30.05-.14 1.46-.612 2.602-1.008 3.557-.172.417-.337.81-.458 1.2a.538.538 0 0 1-.584.388.557.557 0 0 1-.492-.504c-.134-1.33-.077-2.068-.43-2.844-.116.799-.072 1.635-.072 2.166v-.21h-.727c-.085 0-.174.565-.267.618-.173.096-.385.158-.554.054a.502.502 0 0 1-.253-.327c-.524-2.071-1.196-3.241-2.586-4.394-.117.686-.3 1.446-.455 2.096-.146.603-.296 1.235-.308 1.466a.562.562 0 0 1-.497.539.538.538 0 0 1-.59-.427c-.537-2.22-.797-2.838-2.449-3.118 3.352 5.417 6.646 17.948 4.693 26.125-.585 2.459-1.596 4.339-3.01 5.628.522.4 1.067.787 1.633 1.16 18.037 4.22 40.896.845 50.811-14.25a.542.542 0 0 1 .667-.208.57.57 0 0 1 .335.626c-1.692 9.447-8.495 16.293-19.155 19.277-3.638 1.016-7.478 1.501-11.297 1.501m-95.11-52a.43.43 0 0 1-.302-.735l1.142-1.141a.431.431 0 0 1 .606 0 .43.43 0 0 1-.001.608l-1.143 1.143a.429.429 0 0 1-.302.125"/><path fill="#FF1A1F" d="M234.783 598a.583.583 0 0 1-.589-.574c0-1.401-.042-2.942-.089-4.567-.286-10.08-.679-23.888 9.035-28.796a.598.598 0 0 1 .793.246c.15.28.038.627-.25.772-9.06 4.575-8.68 17.969-8.403 27.747.048 1.637.091 3.186.091 4.598a.582.582 0 0 1-.588.574"/><path fill="#FF1A1F" d="M224.95 603a.488.488 0 0 1-.384-.194c-2.802-3.58-3.988-9.084-3.433-15.918.859-10.565 5.92-22.762 11.52-27.764a.48.48 0 0 1 .705.067.597.597 0 0 1-.044.775c-1.003.998-2.107 2.753-2.663 4.716 2.445-2.872 4.784-4.194 7.1-4.017.18.013.34.13.419.308a.606.606 0 0 1-.03.552c-.617 1.033-.666 1.65-.737 2.508-.02.239-.041.493-.076.77.458-.354.934-.74 1.356-1.08 1.588-1.29 1.79-1.45 2.16-1.087.18.175.202.547.082.773a.546.546 0 0 1-.464.278c-.271.195-.763.595-1.176.931-.815.66-1.737 1.404-2.452 1.882a.473.473 0 0 1-.572-.039.588.588 0 0 1-.177-.598c.216-.79.264-1.369.31-1.932.055-.677.108-1.322.45-2.14-2.1.233-4.284 1.939-6.65 5.176a.479.479 0 0 1-.58.17.567.567 0 0 1-.32-.555c.048-.77.188-1.527.394-2.258-3.845 5.863-6.9 14.725-7.545 22.663-.371 4.553-.117 10.865 3.19 15.093a.596.596 0 0 1-.053.785.484.484 0 0 1-.33.135m96.116 28c-4.719 0-9.311-.78-13.711-2.669a.617.617 0 0 1-.348-.662.583.583 0 0 1 .525-.51c6.774-.395 12.736-1.849 17.72-4.321l.669-.33c5.448-2.696 19.121-9.458 22.876-15.388-9.658 5.398-30.973 9.35-40.713 6.089-.296-.1-.463-.44-.37-.76.09-.32.407-.501.702-.4 10.1 3.374 32.945-1.194 41.41-6.957a.535.535 0 0 1 .644.032.638.638 0 0 1 .195.663c-1.969 6.79-17.6 14.523-24.276 17.824l-.668.33c-4.436 2.2-9.615 3.613-15.425 4.213 14.152 4.635 30.358-1.505 46.06-7.449 9.224-3.489 17.935-6.786 26.012-7.87.298-.042.588.195.628.526.038.336-.18.638-.49.68-7.957 1.067-16.613 4.344-25.778 7.81-11.94 4.52-24.17 9.149-35.662 9.149m17.493 16a.565.565 0 0 1-.552-.489.579.579 0 0 1 .467-.663c27.39-4.408 65.805-12.394 86.832-31.07a28.365 28.365 0 0 0-3.177 1.419c-.034.827-.362 1.24-1.053 1.357-.252.179-.653.126-.828-.139-.177-.262-.165-.616.09-.8.2-.143.406-.177.557-.203.076-.002.135-.1.113-.54a.58.58 0 0 1 .301-.543c1.062-.569 3.777-1.933 6.04-2.317.25-.056.484.085.594.316a.595.595 0 0 1-.121.678c-20.81 20.053-60.86 28.431-89.176 32.988a.687.687 0 0 1-.087.006m2.005 21a.56.56 0 0 1-.552-.433.543.543 0 0 1 .438-.643c12.362-2.466 24.187-7.644 35.623-12.646 13.314-5.827 27.084-11.854 41.303-13.276.265-.02.49.113.584.339a.532.532 0 0 1-.18.632c-2.913 2.156-7.943 4.646-11.524 5.012-.312.026-.591-.186-.622-.481a.548.548 0 0 1 .503-.598c2.444-.25 6.08-1.7 9.118-3.563-13.193 1.756-25.609 7.19-38.713 12.925-11.492 5.027-23.375 10.227-35.861 12.72a.582.582 0 0 1-.117.012m-92.204-11c-.934 0-1.866-.01-2.795-.029-.322-.008-.575-.203-.565-.435.009-.23.265-.385.6-.41 8.383.168 17.08-.513 24.754-1.123.31-.026.607.14.643.373.034.232-.196.44-.515.465-6.865.547-14.545 1.159-22.122 1.159m-.806-17c-.256 0-.487-.14-.542-.34-.064-.231.128-.459.429-.508a135.94 135.94 0 0 1 8.935-1.148c.292-.03.581.136.62.372.037.235-.18.448-.484.477a136.01 136.01 0 0 0-8.842 1.137.71.71 0 0 1-.116.01m90.976-186a.528.528 0 0 1-.296-.094.565.565 0 0 1-.143-.764c4.563-7.035 7.846-17.423 10.74-26.59.657-2.075 1.287-4.073 1.903-5.93 3.707-11.187 4.207-21.985 4.207-31.07 0-.304.237-.552.53-.552a.54.54 0 0 1 .529.552c0 9.177-.507 20.09-4.265 31.428-.614 1.855-1.243 3.847-1.897 5.917-2.918 9.233-6.224 19.699-10.87 26.86a.523.523 0 0 1-.438.243m-156.25-45a.553.553 0 0 1-.467-.251c-5.364-8.138-2.361-19.209 3.185-25.49 3.555-4.025 7.323-5.104 11.313-6.248 1.469-.419 2.986-.854 4.538-1.45 17.571-6.746 20.99-20.447 24.608-34.95 2.052-8.228 4.176-16.735 8.946-24.455 3.957-6.4 9.343-11.011 15.167-12.984 2.016-.68 4.228-1.096 6.366-1.499 4.362-.822 8.871-1.67 12.004-4.812 4.345-4.358 4.453-10.86 4.567-17.745.087-5.283.177-10.745 2.387-15.132 2.29-4.55 6.248-7.984 10.074-11.307 3.22-2.794 6.548-5.683 8.925-9.248 6.011-9.02 9.044-19.994 9.01-32.622-.008-3.324.009-6.65.024-9.975.018-3.843.037-7.684.017-11.523-.012-2.178.218-4.543.462-7.044.36-3.7.733-7.525.247-10.624a.557.557 0 0 1 1.104-.17c.504 3.236.125 7.132-.24 10.9-.242 2.473-.47 4.81-.457 6.93.02 3.845 0 7.69-.017 11.536-.017 3.323-.033 6.646-.024 9.968.034 12.85-3.06 24.034-9.197 33.237-2.46 3.69-5.846 6.63-9.121 9.473-3.916 3.4-7.616 6.612-9.81 10.966-2.094 4.161-2.182 9.494-2.27 14.651-.111 6.804-.229 13.837-4.89 18.512-3.376 3.385-8.059 4.268-12.588 5.121-2.197.412-4.273.802-6.213 1.46-5.58 1.89-10.757 6.331-14.577 12.513-4.68 7.574-6.782 15.996-8.814 24.141-3.69 14.792-7.176 28.764-25.288 35.718-1.6.613-3.14 1.055-4.632 1.484-3.993 1.143-7.443 2.132-10.783 5.91-5.276 5.974-8.15 16.47-3.09 24.15.169.255.096.6-.16.767a.542.542 0 0 1-.307.092"/><path fill="#FF1A1F" d="M428.81 337.277c-2.601 4.169-3.362 9.112-.275 16.25 2.327 5.376 3.767 5.615 4.137 5.546.766-.116 1.75-1.797 2.216-6.168.679-6.37-1.031-11.25-5.227-14.919a20.732 20.732 0 0 0-.852-.709M318.69 574c-.89 0-1.798-.013-2.723-.036a.558.558 0 0 1-.547-.571c.007-.307.236-.516.573-.542 10.641.268 18.795-.863 26.506-7.33 12.176-10.214 22.685-33.034 22.947-49.833.04-2.52-.145-5.05-.325-7.496-.323-4.412-.657-8.975.34-13.541 1.084-4.969 3.526-7.747 6.114-10.69 1.59-1.81 3.236-3.68 4.576-6.144 3.205-5.887 3.437-12.996 3.662-19.875.199-6.108.406-12.422 2.665-17.973 1.397-3.438 2.974-6.515 4.5-9.493 3.444-6.723 6.697-13.074 6.841-21.854.212-13.032-12.239-29.637-23.896-37.546-10.868-7.379-24.273-9.332-37.238-11.222-1.373-.201-2.74-.401-4.098-.605-7.656-1.155-15.397-1.723-22.882-2.273-9.943-.728-20.225-1.482-30.898-3.61l-.675-.135c-4.158-.817-9.334-1.834-10.785-6.62-.595-1.962-.422-3.689.512-5.133 2.449-3.777 9.614-4.732 14.353-5.362l.528-.072c9.473-1.269 19.167-.748 28.54-.24 6.766.365 13.766.744 20.603.44 4.69-.208 9.346-.367 13.983-.523 14.358-.49 27.92-.953 41.95-2.775 1.712-.22 3.51-.482 5.363-.754 12.82-1.868 28.595-4.168 39.362 3.487 2.023-2.857 4.798-5.361 7.633-7.917 3.31-2.986 6.732-6.074 9.293-9.95 2.32-3.517 4.793-11.24 4.369-15.242-.61-5.74-4.268-7.433-8.503-9.393-2.13-.984-4.332-2.004-6.295-3.614-5.282-4.326-4.165-8.118-2.873-12.509.689-2.334 1.463-4.966 1.293-8-1.932-.674-3.027-1.603-3.346-2.833-.622-2.397 2.042-5.195 4.392-7.665 1.077-1.13 2.092-2.197 2.67-3.087 2.504-3.855 3.343-6.672 2.643-8.867-.755-2.37-3.331-4.247-8.894-6.481-9.878-3.964-20.185-4.05-30.152-4.132-1.204-.011-2.41-.02-3.613-.037a.558.558 0 0 1-.507-.337c-1.386-3.195.094-6.607 1.498-9.043a3.423 3.423 0 0 0-.654-.22 9.493 9.493 0 0 1-.355-.1c-.388.742-.902 1.147-1.404 1.541-.31.243-.63.495-.933.84a.561.561 0 0 1-.79.056.554.554 0 0 1-.056-.785c.37-.424.75-.723 1.085-.984.548-.431.979-.772 1.27-1.554a.55.55 0 0 1 .297-.316.55.55 0 0 1 .437-.009c.292.117.524.178.736.235.413.108.84.222 1.449.641a.553.553 0 0 1 .162.742c-1.405 2.344-2.862 5.366-1.846 8.184 1.08.014 2.156.024 3.233.032 10.071.084 20.487.171 30.562 4.214 4.995 2.005 8.53 3.993 9.544 7.176.808 2.536-.072 5.653-2.772 9.807-.633.977-1.684 2.08-2.797 3.25-2.15 2.259-4.588 4.821-4.122 6.62.232.892 1.23 1.623 2.966 2.17.217.069.37.26.388.488.274 3.393-.567 6.248-1.31 8.768-1.277 4.34-2.2 7.476 2.512 11.336 1.853 1.52 3.989 2.508 6.055 3.464 4.354 2.015 8.468 3.92 9.144 10.284.447 4.218-2.128 12.306-4.547 15.968-2.639 3.997-6.116 7.135-9.478 10.166-2.854 2.574-5.56 5.016-7.494 7.759.328.259.652.524.971.804 4.49 3.925 6.32 9.118 5.601 15.874-.48 4.5-1.543 6.908-3.161 7.152-1.675.282-3.42-1.783-5.335-6.209-3.294-7.617-2.374-12.94.413-17.359-10.413-7.424-25.958-5.152-38.578-3.314-1.86.274-3.662.536-5.38.759-14.084 1.827-27.672 2.29-42.057 2.78a1358.3 1358.3 0 0 0-13.972.525c-6.896.305-13.919-.071-20.714-.442-9.326-.5-18.963-1.025-28.33.234l-.527.07c-4.536.605-11.392 1.517-13.56 4.863-.76 1.171-.887 2.548-.383 4.207 1.257 4.144 5.864 5.051 9.93 5.851l.677.133c10.605 2.116 20.853 2.866 30.761 3.593 7.507.55 15.269 1.12 22.969 2.282 1.354.204 2.72.404 4.091.604 13.09 1.907 26.627 3.882 37.708 11.403 11.897 8.073 24.601 25.084 24.385 38.484-.15 9.038-3.46 15.5-6.963 22.341-1.515 2.957-3.082 6.014-4.462 9.404-2.184 5.369-2.387 11.584-2.583 17.595-.228 7.006-.466 14.252-3.796 20.369-1.4 2.573-3.086 4.492-4.718 6.347-2.489 2.83-4.84 5.503-5.862 10.191-.963 4.41-.649 8.692-.317 13.226.181 2.47.368 5.025.328 7.592-.267 17.074-10.958 40.274-23.345 50.666-7.304 6.128-14.93 7.63-24.532 7.63"/><g transform="translate(221 359)"><mask id="d" fill="#fff"><use xlink:href="#c"/></mask><path fill="#FF1A1F" d="M22.465 388.101a.56.56 0 0 1-.278-.073c-7.426-4.238-6.09-31.205-3.975-39.209.551-2.083 2.317-4.08 4.023-6.012 2.007-2.27 4.083-4.62 4.165-7.038.167-4.788-5.267-6.703-10.522-8.553-3.979-1.401-7.737-2.725-9.384-5.26a.553.553 0 0 1 .205-.794c1.218-.647 2.91-1.11 4.701-1.6 2.973-.809 6.344-1.73 7.125-3.565.341-.8.193-1.764-.453-2.942-1.449-2.648-6.232-4.143-10.451-5.46-2.689-.84-5.228-1.634-6.922-2.682a.549.549 0 0 1-.255-.374.56.56 0 0 1 .109-.44c2.066-2.653 7.327-3.092 12.415-3.52 4.513-.378 9.18-.768 10.706-2.716.47-.6.628-1.336.48-2.252-.458-2.856-3.153-3.602-6.274-4.465-3.421-.945-7.303-2.019-7.899-6.5-.78-5.881 7.908-16.678 8.9-17.891 1.91-2.331 4.746-4.817 7.749-7.45 7.637-6.698 16.295-14.287 14.458-22.99-.96-4.546-4.272-8.706-7.476-12.728-5.431-6.82-11.049-13.871-5.686-23.14 1.853-3.197 5.647-4.918 9.318-6.582 2.328-1.055 4.738-2.148 6.609-3.597 6.263-4.847 10.412-15.072 6.52-23.795-1.391-3.115-5.988-5.922-10.852-8.895-5.917-3.612-12.035-7.348-13.034-12.188-.426-2.07.13-4.212 1.654-6.366 1.127-1.592 2.842-2.715 4.657-3.907 1.776-1.165 3.611-2.37 5.023-4.1 3.34-4.098 4.356-8.16 5.53-12.86.32-1.276.647-2.588 1.034-3.951 1.089-3.832 2.502-7.575 3.87-11.195 2.455-6.501 4.993-13.223 5.605-20.468l.091-1.102c.579-7.027.705-7.224 6.777-10.446l.671-.357c5.644-3.002 11.684-9.18 10.137-16.713-.358-1.737-1.468-3.259-2.643-4.87-1.986-2.716-4.037-5.524-2.223-9.427a.557.557 0 0 1 .41-.313c8.493-1.454 20.237-4.204 24.189-11.267 1.853-3.316 1.834-7.376-.057-12.07-1.676-4.166-5.692-5.681-9.577-7.15-3.698-1.397-7.52-2.84-9.03-6.597a.558.558 0 0 1 .386-.748c2.043-.496 4.264-.42 6.414-.345 2.548.088 5.19.18 7.505-.69a.563.563 0 0 1 .719.322.558.558 0 0 1-.326.719c-2.524.953-5.274.854-7.939.762-1.916-.069-3.74-.13-5.444.172 1.485 2.864 4.709 4.08 8.11 5.365 4.108 1.554 8.358 3.158 10.217 7.775 2.022 5.02 2.02 9.403-.005 13.026-4.138 7.397-15.986 10.266-24.678 11.771-1.326 3.175.402 5.54 2.228 8.04 1.195 1.637 2.43 3.328 2.835 5.302 1.672 8.134-4.72 14.736-10.703 17.918l-.674.359c-5.648 3-5.648 3-6.188 9.553l-.092 1.103c-.624 7.401-3.19 14.196-5.673 20.77-1.359 3.598-2.764 7.318-3.839 11.103a125.69 125.69 0 0 0-1.025 3.917c-1.208 4.833-2.25 9.004-5.749 13.293-1.519 1.865-3.427 3.118-5.273 4.328-1.726 1.133-3.355 2.202-4.36 3.62-1.357 1.919-1.84 3.717-1.472 5.5.901 4.367 6.809 7.973 12.522 11.463 5.017 3.064 9.757 5.958 11.291 9.392 4.115 9.221-.254 20.017-6.856 25.125-1.976 1.532-4.444 2.65-6.832 3.733-3.671 1.664-7.14 3.237-8.813 6.128-4.982 8.608.154 15.06 5.593 21.886 3.286 4.124 6.681 8.388 7.693 13.19 1.973 9.342-6.944 17.16-14.813 24.059-2.966 2.602-5.767 5.057-7.62 7.32-3.49 4.258-9.243 12.638-8.659 17.037.5 3.752 3.703 4.635 7.093 5.575 3.199.884 6.506 1.798 7.077 5.361.197 1.221-.04 2.27-.704 3.114-1.824 2.331-6.52 2.724-11.49 3.14-4.486.376-9.113.762-11.181 2.616 1.566.82 3.763 1.505 6.074 2.228 4.637 1.447 9.431 2.945 11.096 5.99.808 1.476.977 2.79.502 3.909-.994 2.333-4.483 3.284-7.859 4.206-1.443.393-2.82.77-3.88 1.226 1.629 1.905 4.944 3.073 8.436 4.301 5.634 1.985 11.46 4.037 11.266 9.643-.096 2.818-2.307 5.317-4.445 7.736-1.695 1.918-3.296 3.729-3.78 5.56-1.937 7.327-3.272 34.121 3.45 37.957a.556.556 0 0 1-.275 1.04" mask="url(#d)"/></g><path fill="#FF1A1F" d="M430.571 262c-.246 0-.474-.121-.548-.307-.088-.226.083-.465.386-.533 2.234-.5 4.632-.899 6.936-1.154.309-.04.601.126.649.36.046.235-.17.453-.481.487-2.252.251-4.594.64-6.779 1.129a.762.762 0 0 1-.163.018m-47.146-100a.584.584 0 0 1-.44-.198c-2.742-3.135-4.509-7.209-6.217-11.149-2.49-5.737-5.063-11.671-10.692-14.843-.388-.225-1.323-.04-2.145.122-1.125.219-2.287.446-3.061-.07-5.283-3.53-4.244-7.002-3.043-11.02.426-1.427.868-2.903 1.119-4.564.865-5.759-.684-9.73-2.323-13.936-.816-2.092-1.658-4.253-2.23-6.703-.274-.237-.615-.48-.968-.734a15.8 15.8 0 0 1-1.239-.948.535.535 0 0 1-.035-.78.596.596 0 0 1 .813-.033c.34.3.753.595 1.151.88.448.322.88.634 1.2.93.082.076.14.173.163.28.554 2.444 1.4 4.619 2.222 6.722 1.692 4.34 3.29 8.441 2.382 14.48-.261 1.735-.733 3.316-1.15 4.709-1.212 4.054-2.014 6.733 2.596 9.812.374.252 1.37.053 2.174-.105 1.076-.21 2.187-.426 2.959.007 5.958 3.36 8.607 9.466 11.168 15.371 1.752 4.042 3.409 7.857 6.036 10.866a.534.534 0 0 1-.07.775.589.589 0 0 1-.37.129m-53.167-90.34c-.538 0-1.08.027-1.624.09-5.196.585-10.476 2.783-15.267 6.356-9.203 6.861-15.69 17.776-18.263 30.732-5.457 27.487-21.463 39.959-43.813 50.228-17.623 8.097-33.021 17.19-28.3 38.894.67-1.22 1.618-2.263 2.605-3.35l.508-.56c7.408-8.24 16.144-14.958 23.972-18.433 6.051-2.684 12.974-3.88 19.668-5.033 8.832-1.524 17.963-3.1 25.329-8.102 14.04-9.539 17.64-27.43 21.12-44.73 1.677-8.332 3.26-16.2 5.943-23.084 3.943-10.114 10.181-17.387 17.113-19.958a17.25 17.25 0 0 1 4.001-.968c-1.976-.086-3.934-.54-5.99-1.015-2.273-.526-4.612-1.067-7.002-1.067M222.848 203h-.005c-.251 0-.468-1.52-.53-1.763-6.098-23.733 10.01-34.003 28.517-42.509 22.67-10.417 37.803-22.655 43.188-49.771 2.628-13.226 9.264-24.548 18.688-31.573 4.948-3.691 10.414-6.046 15.805-6.654 3.146-.354 6.12.291 9 .957 2.338.54 4.535 1.032 6.734.975a.61.61 0 0 1 .355.106c.17.1.78.415 1.363.717-1.456-3.902-4.256-6.564-8.339-7.92-10.023-3.326-24.955 2.091-31.449 7.109-7.089 5.478-10.907 15.062-13.975 24.607-2.341 7.27-8.515 26.487-17.968 25.104-4.077 2.817-8.784 3.902-13.338 4.953-4.572 1.052-9.3 2.142-13.395 4.993-6.122 4.263-11.846 8.543-17.384 12.681a.554.554 0 1 1-.88-.52c1.461-10.817 12.31-17.72 21.883-23.81 3.122-1.986 6.071-3.863 8.456-5.733 7.967-6.25 10.728-14.087 13.653-22.384 1.205-3.42 2.451-6.958 4.104-10.516 8.426-18.18 35.712-29.694 55.087-23.237a.555.555 0 0 1-.348 1.054c-18.898-6.301-45.518 4.924-53.736 22.65-1.63 3.511-2.866 7.023-4.063 10.419-2.98 8.455-5.795 16.438-14.016 22.887-2.428 1.905-5.399 3.796-8.544 5.797-8.952 5.696-19.043 12.117-21.138 21.666 5.196-3.882 10.57-7.88 16.294-11.866 4.27-2.974 9.105-4.087 13.779-5.164 4.728-1.09 9.193-2.119 13.134-4.909a.55.55 0 0 1 .418-.092c8.641 1.572 14.67-17.238 16.948-24.315 3.123-9.714 7.025-19.483 14.355-25.147 6.683-5.163 22.095-10.727 32.472-7.284 4.649 1.544 7.76 4.652 9.257 9.242 2.457.293 4.951 1.111 7.469 2.457a.556.556 0 0 1 .29.44c.072.798-.24 1.211-.493 1.543-.135.178-.25.33-.316.553a.552.552 0 0 1-.69.373.558.558 0 0 1-.372-.691c.126-.417.332-.689.498-.907.141-.185.233-.308.264-.487-2.19-1.135-4.361-1.849-6.497-2.14a.56.56 0 0 1-.773.177c-.043-.025-.276-.144-.583-.304a15.959 15.959 0 0 0-6.395.988c-6.634 2.46-12.636 9.502-16.465 19.32-2.649 6.793-4.223 14.617-5.888 22.898-3.525 17.522-7.171 35.639-21.586 45.432-7.562 5.135-16.814 6.732-25.76 8.275-6.63 1.144-13.482 2.326-19.41 4.956-7.688 3.413-16.29 10.032-23.595 18.16l-.515.565c-1.366 1.504-2.547 4.15-3.032 5.89-.067.241-.286 1.752-.533 1.752M374.5 177c-.188 0-.369-.144-.454-.385-.116-.336-.006-.731.244-.886 2.09-1.291 4.577-2.624 7.195-2.728.334-.022.506.28.515.648.007.368-.21.674-.485.685-2.437.096-4.808 1.37-6.804 2.604a.406.406 0 0 1-.21.062m-2.902-7a.392.392 0 0 1-.35-.232c-.08-.164-.876-2.16-1.223-3.164-.078-.23.025-.485.231-.574.205-.089.439.027.518.256a69.799 69.799 0 0 0 1.18 3.061c.101.216.027.486-.167.6a.37.37 0 0 1-.189.053m-18.933-19c-.262 0-.508-.093-.615-.247-.141-.203.02-.438.36-.522.566-.141 1.796-.676 2.425-1.099.248-.165.669-.176.941-.031.275.146.299.4.054.565-.719.481-2.105 1.103-2.91 1.303-.082.02-.168.031-.255.031M118.17 569a.558.558 0 0 1-.54-.413c-2.24-8.373 1.935-17.19 5.618-24.968a240.523 240.523 0 0 0 1.571-3.364.56.56 0 0 1 .257-.265c3.063-1.544 7.408-2.487 11.61-3.398 5.617-1.22 11.427-2.479 14.199-5.14 9.468-9.086 6.69-19.436 4.003-29.443-3.478-12.954-6.764-25.192 16.313-32.943 6.044-2.032 11.697-3.193 16.685-4.218 16.944-3.487 26.277-5.404 21.518-34.004-1.75-10.517-8.585-20.893-15.195-30.927-11.117-16.878-21.619-32.822-5.335-46.28 5.306-4.382 12.159-6.655 18.788-8.854 8.297-2.753 16.878-5.599 22.155-12.622 6.546-8.712 5.623-19.637 4.731-30.204-.927-10.976-1.887-22.328 5.702-30.94 5.925-6.726 16.252-8.952 26.242-11.107 13.682-2.95 27.833-6.002 31.403-20.488a.562.562 0 0 1 .677-.407c.3.073.485.374.412.67-3.738 15.162-18.236 18.288-32.255 21.311-10.261 2.213-19.955 4.302-25.636 10.752-7.275 8.258-6.38 18.875-5.429 30.116.91 10.773 1.852 21.91-4.949 30.96-5.488 7.301-14.237 10.205-22.698 13.011-6.53 2.165-13.282 4.408-18.426 8.657-15.518 12.825-5.282 28.365 5.556 44.817 6.673 10.132 13.572 20.608 15.362 31.355 4.935 29.65-5.352 31.766-22.396 35.271-4.956 1.02-10.573 2.174-16.554 4.183-22.082 7.418-19.074 18.626-15.588 31.606 2.77 10.318 5.634 20.986-4.308 30.526-3.001 2.879-8.968 4.173-14.737 5.427-4.053.879-8.24 1.786-11.167 3.216-.477 1.04-.982 2.11-1.497 3.197-3.601 7.608-7.684 16.23-5.55 24.212a.554.554 0 0 1-.542.698"/><path fill="#FF1A1F" d="M247.56 313a.562.562 0 0 1-.498-.818c2.683-5.232 8.114-7.78 12.905-10.028 4.08-1.914 7.606-3.567 8.173-6.363a.567.567 0 0 1 .242-.357c3.263-2.129 3.867-5.279 4.506-8.613.456-2.381.928-4.843 2.358-7.135 1.32-2.117 3.851-3.725 6.298-5.28 1.618-1.027 3.29-2.092 4.51-3.25a.561.561 0 0 1 .772.812c-1.297 1.234-3.017 2.327-4.68 3.384-2.342 1.49-4.763 3.027-5.949 4.928-1.319 2.114-1.772 4.472-2.208 6.753-.645 3.356-1.309 6.824-4.803 9.213-.803 3.198-4.49 4.926-8.743 6.923-4.63 2.17-9.875 4.632-12.385 9.526a.56.56 0 0 1-.498.305m43.894 352a.546.546 0 0 1-.51-.34 165.842 165.842 0 0 0-2.9-6.936.514.514 0 0 1 .29-.685.563.563 0 0 1 .715.275 168.532 168.532 0 0 1 2.916 6.98.515.515 0 0 1-.32.673.548.548 0 0 1-.19.033m-75.822-104c-4.408 0-10.448-2.93-14.487-7.119a.523.523 0 0 1 .007-.731.501.501 0 0 1 .722.007c4.128 4.28 10.39 7.19 14.563 6.765.285.006.531.182.56.467a.517.517 0 0 1-.458.568 9.355 9.355 0 0 1-.907.043m180.881 14a.524.524 0 0 1-.212-.996c1.297-.6 2.39-1.202 3.446-1.788 1.743-.963 3.394-1.877 5.603-2.533-.016-1.25.486-1.672 1.18-2.107.19-.121.4-.251.612-.444a.512.512 0 0 1 .726.04.53.53 0 0 1-.04.74c-.262.236-.52.4-.756.55-.547.342-.772.486-.674 1.563a.524.524 0 0 1-.377.551c-2.296.63-3.912 1.525-5.782 2.558-1.073.591-2.18 1.206-3.514 1.818a.518.518 0 0 1-.212.048m-2.957 19a.548.548 0 0 1-.55-.44c-.05-.282.157-.552.462-.598 4.522-.678 9.255-3.57 13.43-6.123l1.24-.755a.582.582 0 0 1 .77.154.5.5 0 0 1-.164.721l-1.235.752c-4.269 2.61-9.108 5.568-13.864 6.282a.613.613 0 0 1-.09.007"/></g></g></svg>