<?xml version="1.0" encoding="UTF-8"?>
<svg width="2264px" height="441px" viewBox="0 0 2264 441" version="1.1" xmlns="http://www.w3.org/2000/svg" xmlns:xlink="http://www.w3.org/1999/xlink">
    <!-- Generator: Sketch 51.2 (57519) - http://www.bohemiancoding.com/sketch -->
    <title>Group 7 Copy 2</title>
    <desc>Created with Sketch.</desc>
    <defs></defs>
    <g id="Page-1" stroke="none" stroke-width="1" fill="none" fill-rule="evenodd">
        <g id="Group-7-Copy-2" fill="#FF161F">
            <path d="M2126.23982,322.944534 C2091.08474,322.944534 2073.42007,287.32332 2056.335,252.877099 C2039.553,219.052486 2022.20654,111.396674 1988.47206,111.396674 C1954.74137,111.396674 1937.39491,183.582885 1920.6167,253.40016 C1903.52784,324.494766 1885.86317,398 1850.71567,398 C1815.56438,398 1797.89971,324.487185 1780.81464,253.39637 C1764.04021,183.582885 1746.68997,52.5030353 1712.96306,52.5030353 C1679.23237,52.5030353 1661.88592,219.052486 1645.11149,252.880889 C1628.02642,287.327111 1610.36175,322.944534 1575.21425,322.944534 C1540.06674,322.944534 1522.40207,287.327111 1505.31701,252.880889 C1488.53879,219.052486 1471.19234,112.537553 1437.46164,112.537553 C1403.73095,112.537553 1386.38449,219.052486 1369.60628,252.880889 C1352.525,287.327111 1334.85654,363.261926 1299.70904,363.261926 C1264.56154,363.261926 1246.89308,307.290606 1229.8118,253.161371 C1213.03737,199.998662 1195.68713,145.035562 1161.95265,145.035562 C1128.22574,145.035562 1110.8755,199.998662 1094.09728,253.161371 C1077.016,307.290606 1059.34755,397.715728 1024.20004,397.715728 C989.052539,397.715728 971.384081,287.327111 954.302803,252.880889 C937.524587,219.052486 920.178131,148.647715 886.451226,148.647715 C852.724321,148.647715 835.377865,219.052486 818.599649,252.880889 C801.518372,287.327111 783.853702,322.944534 748.706198,322.944534 C713.562483,322.944534 695.897813,287.327111 678.812747,252.880889 C662.038319,219.052486 625.348993,26.2400657 591.625876,26.2400657 C557.898972,26.2400657 540.552516,219.052486 523.778088,252.880889 C506.69681,287.327111 489.03214,322.944534 453.884637,322.944534 C418.740922,322.944534 420.419122,287.327111 403.334056,252.880889 C386.559628,219.052486 369.209384,132.573065 335.486268,132.573065 C301.759363,132.573065 284.412907,219.052486 267.638479,252.880889 C250.557201,287.327111 232.892531,391.294964 197.748816,391.294964 C162.601313,391.294964 144.936643,287.327111 127.851577,252.880889 C111.077149,219.052486 93.7269047,184.071833 60,184.071833 L60,181.831768 C95.1475033,181.831768 112.812173,217.449191 129.897239,251.899202 C146.675456,285.723815 164.021911,389.054899 197.748816,389.054899 C231.471933,389.054899 248.818389,285.723815 265.592817,251.899202 C282.677882,217.449191 300.338764,130.332999 335.486268,130.332999 C370.629983,130.332999 388.294653,217.449191 405.37593,251.895412 C422.154147,285.723815 420.16152,320.704468 453.884637,320.704468 C487.611541,320.704468 504.957997,285.723815 521.732426,251.895412 C538.817491,217.449191 556.478373,24 591.625876,24 C626.769591,24 663.777132,217.449191 680.858409,251.895412 C697.632838,285.723815 714.983082,320.704468 748.706198,320.704468 C782.433103,320.704468 799.779559,285.723815 816.557775,251.895412 C833.639053,217.449191 851.303723,146.40765 886.451226,146.40765 C921.598729,146.40765 939.263399,217.449191 956.348465,251.895412 C973.126682,285.723815 990.473138,394.198332 1024.20004,394.198332 C1057.93074,394.198332 1075.27719,304.773849 1092.05541,251.61493 C1109.14047,197.485695 1126.80514,141.518166 1161.95265,141.518166 C1197.10773,141.518166 1214.7724,197.485695 1231.85746,251.61872 C1248.63568,304.773849 1265.98213,359.74074 1299.70904,359.74074 C1333.43594,359.74074 1350.7824,285.723815 1367.5644,251.899202 C1384.64568,217.449191 1402.31414,110.297488 1437.46164,110.297488 C1472.60915,110.297488 1490.27761,217.449191 1507.35888,251.895412 C1524.14089,285.723815 1541.48734,320.704468 1575.21425,320.704468 C1608.94115,320.704468 1626.2914,285.723815 1643.06583,251.899202 C1660.1471,217.452981 1677.81556,47.8864532 1712.96306,47.8864532 C1748.11436,47.8864532 1765.77524,180.281536 1782.85652,251.372351 C1799.63852,321.189626 1816.98498,393.383418 1850.71567,393.383418 C1884.44257,393.383418 1901.79282,321.189626 1918.57482,251.372351 C1935.6561,180.281536 1953.32456,106.772511 1988.47206,106.772511 C2023.62714,106.772511 2041.29181,217.449191 2058.37688,251.895412 C2075.15888,285.723815 2092.50913,320.704468 2126.23982,320.704468 C2159.97051,320.704468 2177.32076,285.723815 2194.09897,251.895412 C2211.18404,217.449191 2228.8525,181.831768 2264,181.831768 L2264,184.071833 C2230.26931,184.071833 2212.91906,219.052486 2196.14463,252.880889 C2179.05578,287.327111 2161.38732,322.944534 2126.23982,322.944534" id="Fill-1"></path>
            <path d="M483.778786,363 C459.280132,363 447.68049,328.420822 436.467252,294.985291 C426.011664,263.814258 415.203768,231.583166 395.629847,231.583166 C375.283122,231.583166 365.07756,244.86619 354.269664,258.924311 C342.927624,273.677739 331.206759,288.9327 307.473333,288.9327 C283.220915,288.9327 271.556874,263.103752 260.279234,238.122092 C249.406938,214.04471 239.140764,191.304749 219.316818,191.304749 C199.197388,191.304749 188.976672,207.931327 178.153624,225.538174 C166.826737,243.961911 155.121025,263.016364 131.156515,263.016364 C108.014056,263.016364 96.3575915,254.699276 85.0837404,246.65955 C74.2076563,238.908586 63.9376932,231.583166 43,231.583166 L43,224.850466 C66.1424584,224.850466 77.8027116,233.159955 89.0803509,241.20348 C99.9526468,248.954444 110.22261,256.279865 131.156515,256.279865 C151.275945,256.279865 161.49666,239.649487 172.319709,222.042641 C183.646596,203.622703 195.356096,184.56825 219.316818,184.56825 C243.573024,184.56825 255.233277,210.400997 266.510916,235.378858 C277.383212,259.460039 287.653175,282.2 307.473333,282.2 C327.81627,282.2 338.025621,268.916975 348.829728,254.858855 C360.171768,240.101627 371.896421,224.850466 395.629847,224.850466 C420.136078,224.850466 431.731931,259.425844 442.94517,292.865174 C453.396969,324.036208 464.208653,356.2673 483.778786,356.2673 C503.348918,356.2673 514.160602,324.036208 524.61619,292.861375 C535.829429,259.425844 547.425282,224.850466 571.927724,224.850466 C595.070182,224.850466 606.726647,233.159955 618.000498,241.20348 C628.872794,248.954444 639.142757,256.279865 660.076662,256.279865 C681.010567,256.279865 691.276742,248.954444 702.152826,241.20348 C713.426677,233.159955 725.083142,224.850466 748.225601,224.850466 C772.186322,224.850466 783.895823,243.89732 795.218921,262.328656 C806.038182,279.931703 816.262686,296.56208 836.378327,296.56208 C856.501545,296.56208 866.722261,279.931703 877.54531,262.328656 C888.872196,243.89732 900.581697,224.850466 924.542419,224.850466 C948.332669,224.850466 960.057322,240.998307 971.391785,256.61422 C982.199681,271.50443 992.409032,285.56635 1012.69515,285.56635 C1032.49257,285.56635 1042.76632,262.024697 1053.64241,237.100028 C1064.91247,211.271081 1076.56894,184.56825 1100.85545,184.56825 C1124.81617,184.56825 1136.52567,203.622703 1147.84877,222.042641 C1158.67182,239.649487 1168.89253,256.279865 1189.01575,256.279865 C1209.94966,256.279865 1220.22341,248.954444 1231.0957,241.20348 C1242.37334,233.159955 1254.02981,224.850466 1277.17605,224.850466 C1300.31851,224.850466 1311.97498,233.159955 1323.25262,241.20348 C1334.12491,248.954444 1344.39866,256.279865 1365.33257,256.279865 C1386.27026,256.279865 1396.54401,248.954444 1407.41631,241.20348 C1418.69395,233.159955 1430.35041,224.850466 1453.49666,224.850466 C1477.2907,224.850466 1489.01156,240.998307 1500.3536,256.61422 C1511.1615,271.50443 1521.37085,285.56635 1541.66454,285.56635 C1561.28013,285.56635 1572.07666,255.052629 1582.52089,225.541973 C1593.74928,193.812414 1605.36028,161 1629.82484,161 C1654.05453,161 1665.72236,186.221029 1677.00379,210.609969 C1687.8723,234.098429 1698.13468,256.279865 1717.97757,256.279865 C1738.91526,256.279865 1749.18901,248.954444 1760.06131,241.20348 C1771.33895,233.159955 1782.99541,224.850466 1806.14166,224.850466 C1829.87888,224.850466 1841.60353,240.101627 1852.94178,254.855055 C1863.75346,268.916975 1873.95903,282.2 1894.30575,282.2 C1914.65627,282.2 1924.86562,268.916975 1935.67351,254.855055 C1947.01176,240.101627 1958.74021,224.850466 1982.47363,224.850466 C2005.61988,224.850466 2017.28392,233.159955 2028.56156,241.20348 C2039.43386,248.954444 2049.70761,256.279865 2070.64151,256.279865 C2091.58299,256.279865 2101.85674,248.954444 2112.73662,241.20348 C2124.01047,233.159955 2135.67072,224.850466 2158.81697,224.850466 C2181.967,224.850466 2193.62726,233.159955 2204.90489,241.20348 C2215.78477,248.954444 2226.05852,256.279865 2247,256.279865 L2247,263.016364 C2223.84997,263.016364 2212.18971,254.699276 2200.91207,246.65955 C2190.03599,238.908586 2179.76224,231.583166 2158.81697,231.583166 C2137.88306,231.583166 2127.60552,238.908586 2116.73323,246.65955 C2105.45559,254.699276 2093.79155,263.016364 2070.64151,263.016364 C2047.49905,263.016364 2035.8388,254.699276 2024.56495,246.65955 C2013.68508,238.908586 2003.41511,231.583166 1982.47363,231.583166 C1962.12691,231.583166 1951.92134,244.862391 1941.10966,258.924311 C1929.77141,273.677739 1918.04297,288.9327 1894.30575,288.9327 C1870.56854,288.9327 1858.84388,273.677739 1847.50563,258.924311 C1836.69774,244.86619 1826.48839,231.583166 1806.14166,231.583166 C1785.20397,231.583166 1774.934,238.908586 1764.05792,246.65955 C1752.78407,254.699276 1741.12382,263.016364 1717.97757,263.016364 C1693.74788,263.016364 1682.08005,237.795335 1670.79862,213.406395 C1659.9339,189.917935 1649.67152,167.7327 1629.82484,167.7327 C1610.20546,167.7327 1599.40893,198.250221 1588.96471,227.760877 C1577.73253,259.494235 1566.12152,292.30285 1541.66454,292.30285 C1517.86671,292.30285 1506.14206,276.155008 1494.80381,260.535296 C1483.99591,245.645086 1473.78277,231.583166 1453.49666,231.583166 C1432.55897,231.583166 1422.28522,238.908586 1411.41292,246.65955 C1400.13907,254.699276 1388.47882,263.016364 1365.33257,263.016364 C1342.19011,263.016364 1330.52986,254.699276 1319.25222,246.65955 C1308.37992,238.908586 1298.10617,231.583166 1277.17605,231.583166 C1256.23836,231.583166 1245.96461,238.908586 1235.09231,246.65955 C1223.81846,254.699276 1212.15821,263.016364 1189.01575,263.016364 C1165.05124,263.016364 1153.33795,243.961911 1142.01485,225.538174 C1131.19181,207.931327 1120.97488,191.304749 1100.85545,191.304749 C1081.06181,191.304749 1070.78806,214.842603 1059.90818,239.767272 C1048.63812,265.59242 1036.98166,292.30285 1012.69515,292.30285 C988.904895,292.30285 977.180241,276.155008 965.845778,260.535296 C955.034094,245.645086 944.828532,231.583166 924.542419,231.583166 C904.422989,231.583166 894.202273,248.213543 883.379224,265.820389 C872.056126,284.240327 860.342837,303.29478 836.378327,303.29478 C812.417605,303.29478 800.708105,284.240327 789.385006,265.820389 C778.561958,248.213543 768.341242,231.583166 748.225601,231.583166 C727.291696,231.583166 717.021733,238.908586 706.149437,246.65955 C694.875586,254.699276 683.215332,263.016364 660.076662,263.016364 C636.934204,263.016364 625.277739,254.699276 614.003888,246.65955 C603.131592,238.908586 592.861629,231.583166 571.927724,231.583166 C552.357591,231.583166 541.545908,263.814258 531.094108,294.981492 C519.877081,328.420822 508.281228,363 483.778786,363" id="Fill-3"></path>
            <path d="M200.346073,441 C146.393632,441 120.209159,375.866701 94.8846213,312.878613 C70.961741,253.366069 46.2205958,191.829599 0,191.829599 L0,180.63736 C53.9486522,180.63736 80.1369137,245.766869 105.461451,308.754957 C129.384332,368.27129 154.125477,429.807761 200.346073,429.807761 C246.570457,429.807761 271.311602,368.27129 295.23827,308.754957 C320.562808,245.766869 346.75107,180.63736 400.70351,180.63736 C454.625644,180.63736 480.821482,244.144695 506.157385,305.567462 C530.072689,363.556375 554.806257,423.516153 601.068524,423.516153 C646.641327,423.516153 671.587038,318.063504 695.706908,216.082609 C721.993664,104.959933 746.818151,0 801.422173,0 C855.806475,0 880.710516,85.9903571 907.076826,177.032951 C931.124719,260.074591 955.990877,345.939874 1001.78719,345.939874 C1048.65179,345.939874 1072.1769,307.121413 1097.08852,266.013717 C1122.5267,224.041872 1148.8324,180.63736 1202.15599,180.63736 C1255.94175,180.63736 1282.16789,238.732397 1307.53031,294.91721 C1332.52148,350.271987 1356.12236,402.545391 1402.51343,402.545391 C1448.18094,402.545391 1473.09255,305.575042 1497.18212,211.788398 C1523.50297,109.341318 1548.36155,12.579425 1602.87465,12.579425 C1657.46352,12.579425 1682.30316,115.4889 1708.59749,224.447415 C1732.70979,324.377852 1757.64792,427.708031 1803.24724,427.708031 C1849.49057,427.708031 1874.22792,366.698389 1898.15838,307.689932 C1923.48671,245.228671 1949.67497,180.63736 2003.62362,180.63736 C2057.22754,180.63736 2083.49536,232.217172 2108.89566,282.099007 C2133.84895,331.105324 2157.41573,377.390331 2204,377.390331 L2204,388.586361 C2150.39608,388.586361 2124.12826,337.002759 2098.72796,287.117133 C2073.77846,238.114606 2050.2041,191.829599 2003.62362,191.829599 C1957.38408,191.829599 1932.64294,252.835452 1908.71627,311.843909 C1883.38794,374.30896 1857.19589,438.904061 1803.24724,438.904061 C1748.66216,438.904061 1723.82252,335.990795 1697.52819,227.036071 C1673.4159,127.105634 1648.47776,23.7716643 1602.87465,23.7716643 C1557.21472,23.7716643 1532.3031,120.749594 1508.20975,214.532448 C1481.89269,316.979528 1457.03411,413.745211 1402.51343,413.745211 C1348.73146,413.745211 1322.50531,355.646384 1297.13911,299.46157 C1272.15172,244.110584 1248.55085,191.829599 1202.15599,191.829599 C1155.29139,191.829599 1131.76249,230.65185 1106.85466,271.751966 C1081.41647,313.727601 1055.11078,357.135903 1001.78719,357.135903 C947.406673,357.135903 922.502632,271.145546 896.136322,180.102952 C872.092218,97.0613124 847.22606,11.1922393 801.422173,11.1922393 C755.84937,11.1922393 730.903659,116.644888 706.787577,218.625783 C680.500821,329.748459 655.668757,434.712183 601.068524,434.712183 C547.150178,434.712183 520.95434,371.201057 495.618437,309.778291 C471.699345,251.789377 446.969565,191.829599 400.70351,191.829599 C354.482914,191.829599 329.737981,253.366069 305.8151,312.874823 C280.486775,375.866701 254.298513,441 200.346073,441" id="Fill-5"></path>
        </g>
    </g>
</svg>