<svg xmlns="http://www.w3.org/2000/svg" width="320" height="191" viewBox="0 0 320 191">
    <g fill="#FF161F" fill-rule="evenodd">
        <path d="M789.808 139.289c-16.892 0-25.38-15.525-33.589-30.538-8.064-14.741-16.398-61.661-32.607-61.661-16.208 0-24.542 31.46-32.604 61.89-8.211 30.984-16.699 63.02-33.587 63.02-16.89 0-25.378-32.039-33.587-63.022-8.06-30.427-16.396-87.556-32.602-87.556-16.207 0-24.542 72.588-32.602 87.33-8.209 15.014-16.697 30.537-33.585 30.537s-25.375-15.523-33.585-30.536c-8.061-14.743-16.396-61.166-32.603-61.166-16.208 0-24.542 46.423-32.604 61.166-8.208 15.013-16.697 48.107-33.585 48.107s-25.378-24.394-33.585-47.985c-8.06-23.17-16.397-47.124-32.606-47.124-16.205 0-24.542 23.954-32.604 47.124-8.207 23.591-16.696 63.001-33.585 63.001-16.888 0-25.377-48.11-33.584-63.123-8.062-14.743-16.397-45.428-32.602-45.428-16.206 0-24.54 30.685-32.602 45.428-8.208 15.013-16.696 30.536-33.584 30.536-16.886 0-25.373-15.523-33.583-30.536C86.273 94.01 68.645 9.976 52.441 9.976c-16.206 0-24.54 84.034-32.6 98.777-8.208 15.013-16.695 30.536-33.583 30.536-16.887 0-16.08-15.523-24.29-30.536-8.06-14.743-16.396-52.434-32.6-52.434-16.205 0-24.54 37.69-32.6 52.434-8.207 15.013-16.695 60.325-33.581 60.325-16.888 0-25.376-45.312-33.585-60.325-8.06-14.743-16.397-29.99-32.602-29.99v-.975c16.888 0 25.376 15.523 33.585 30.537 8.062 14.742 16.396 59.776 32.602 59.776 16.204 0 24.538-45.034 32.598-59.776 8.21-15.014 16.695-52.982 33.583-52.982 16.887 0 25.374 37.968 33.582 52.98 8.061 14.744 7.104 29.99 23.308 29.99 16.205 0 24.54-15.246 32.6-29.99C27.067 93.311 35.553 9 52.44 9c16.886 0 34.668 84.31 42.875 99.323 8.06 14.744 16.397 29.99 32.6 29.99 16.206 0 24.54-15.246 32.602-29.99 8.208-15.012 16.696-45.974 33.584-45.974s25.375 30.962 33.584 45.974c8.062 14.744 16.397 62.02 32.602 62.02 16.208 0 24.543-38.974 32.604-62.142 8.21-23.59 16.697-47.983 33.585-47.983 16.892 0 25.38 24.392 33.589 47.985 8.062 23.166 16.396 47.123 32.602 47.123 16.205 0 24.54-32.26 32.604-47 8.207-15.015 16.697-61.715 33.585-61.715s25.377 46.7 33.584 61.712c8.064 14.744 16.399 29.99 32.604 29.99 16.206 0 24.542-15.246 32.602-29.988 8.208-15.013 16.697-88.915 33.585-88.915 16.89 0 25.376 57.702 33.583 88.685 8.064 30.429 16.399 61.893 32.606 61.893 16.205 0 24.542-31.464 32.606-61.893 8.207-30.983 16.697-63.02 33.585-63.02 16.891 0 25.379 48.236 33.588 63.248 8.064 14.744 16.4 29.99 32.608 29.99 16.207 0 24.543-15.246 32.605-29.99 8.21-15.012 16.699-30.535 33.587-30.535v.976c-16.207 0-24.544 15.246-32.604 29.989-8.21 15.013-16.7 30.536-33.588 30.536"/>
        <path d="M-1.21 159c-11.772 0-17.345-15.235-22.733-29.967C-28.967 115.3-34.16 101.1-43.565 101.1c-9.776 0-14.68 5.852-19.873 12.046-5.45 6.5-11.082 13.221-22.485 13.221-11.653 0-17.258-11.38-22.676-22.386-5.225-10.609-10.157-20.628-19.683-20.628-9.667 0-14.578 7.326-19.778 15.083-5.442 8.118-11.067 16.513-22.582 16.513-11.12 0-16.72-3.665-22.137-7.207-5.226-3.415-10.16-6.642-20.221-6.642v-2.967c11.12 0 16.722 3.661 22.141 7.205 5.224 3.415 10.159 6.643 20.217 6.643 9.668 0 14.578-7.328 19.779-15.085 5.442-8.116 11.069-16.511 22.581-16.511 11.655 0 17.258 11.382 22.677 22.387 5.224 10.61 10.158 20.629 19.682 20.629 9.774 0 14.68-5.852 19.871-12.046 5.45-6.502 11.083-13.222 22.487-13.222 11.775 0 17.347 15.234 22.735 29.967 5.022 13.734 10.217 27.935 19.62 27.935s14.598-14.201 19.622-27.937c5.388-14.731 10.96-29.965 22.732-29.965 11.12 0 16.721 3.661 22.138 7.205 5.224 3.415 10.159 6.643 20.217 6.643 10.059 0 14.992-3.228 20.217-6.643 5.417-3.544 11.018-7.205 22.138-7.205 11.513 0 17.139 8.392 22.58 16.513 5.198 7.756 10.111 15.083 19.776 15.083 9.67 0 14.58-7.327 19.78-15.083 5.443-8.12 11.07-16.513 22.582-16.513 11.431 0 17.065 7.115 22.511 13.995 5.193 6.56 10.099 12.756 19.846 12.756 9.512 0 14.449-10.372 19.675-21.354 5.415-11.38 11.016-23.145 22.685-23.145 11.513 0 17.14 8.395 22.58 16.511 5.2 7.757 10.111 15.085 19.78 15.085 10.059 0 14.995-3.228 20.22-6.643 5.418-3.544 11.019-7.205 22.14-7.205 11.12 0 16.72 3.661 22.14 7.205 5.224 3.415 10.16 6.643 20.219 6.643 10.06 0 14.996-3.228 20.22-6.643 5.42-3.544 11.02-7.205 22.142-7.205 11.432 0 17.064 7.115 22.514 13.995 5.193 6.56 10.098 12.756 19.85 12.756 9.424 0 14.612-13.444 19.63-26.446C532.12 84.457 537.7 70 549.454 70c11.642 0 17.248 11.112 22.669 21.858 5.222 10.349 10.153 20.122 19.687 20.122 10.06 0 14.997-3.228 20.22-6.643 5.42-3.544 11.02-7.205 22.142-7.205 11.405 0 17.039 6.72 22.487 13.22 5.195 6.196 10.099 12.048 19.875 12.048 9.778 0 14.684-5.852 19.877-12.048 5.448-6.5 11.083-13.22 22.487-13.22 11.121 0 16.726 3.661 22.145 7.205 5.224 3.415 10.16 6.643 20.219 6.643 10.062 0 14.998-3.228 20.226-6.643 5.417-3.544 11.02-7.205 22.14-7.205 11.124 0 16.727 3.661 22.146 7.205 5.227 3.415 10.164 6.643 20.226 6.643v2.968c-11.123 0-16.726-3.665-22.145-7.207-5.226-3.415-10.162-6.642-20.226-6.642-10.059 0-14.997 3.227-20.22 6.642-5.42 3.542-11.024 7.207-22.147 7.207-11.12 0-16.723-3.665-22.14-7.207-5.227-3.415-10.162-6.642-20.224-6.642-9.777 0-14.68 5.85-19.875 12.046-5.448 6.5-11.084 13.221-22.49 13.221-11.405 0-17.038-6.72-22.486-13.221-5.193-6.194-10.099-12.046-19.875-12.046-10.06 0-14.995 3.227-20.22 6.642-5.418 3.542-11.02 7.207-22.142 7.207-11.642 0-17.248-11.112-22.669-21.858-5.22-10.349-10.151-20.124-19.688-20.124-9.426 0-14.614 13.446-19.632 26.448-5.397 13.982-10.976 28.437-22.728 28.437-11.434 0-17.068-7.114-22.516-13.996-5.193-6.56-10.1-12.756-19.847-12.756-10.06 0-14.997 3.227-20.221 6.642-5.417 3.542-11.02 7.207-22.141 7.207-11.12 0-16.723-3.665-22.142-7.207-5.224-3.415-10.16-6.642-20.217-6.642-10.06 0-14.997 3.227-20.22 6.642-5.418 3.542-11.02 7.207-22.14 7.207-11.515 0-17.143-8.395-22.583-16.513-5.2-7.757-10.11-15.083-19.777-15.083-9.51 0-14.447 10.37-19.675 21.352-5.415 11.379-11.016 23.147-22.685 23.147-11.431 0-17.065-7.114-22.51-13.996-5.196-6.56-10.1-12.756-19.847-12.756-9.667 0-14.578 7.327-19.778 15.084-5.44 8.116-11.069 16.511-22.584 16.511-11.513 0-17.139-8.395-22.58-16.51-5.2-7.758-10.11-15.085-19.776-15.085-10.059 0-14.993 3.227-20.217 6.642-5.417 3.542-11.02 7.207-22.138 7.207-11.12 0-16.72-3.665-22.137-7.207-5.224-3.415-10.159-6.642-20.218-6.642-9.403 0-14.598 14.2-19.62 27.932C16.134 143.765 10.563 159-1.21 159"/>
        <path d="M-137.736 193c-25.923 0-38.505-28.505-50.673-56.071-11.495-26.045-23.382-52.976-45.591-52.976v-4.899c25.922 0 38.505 28.504 50.673 56.07 11.495 26.047 23.383 52.978 45.591 52.978 22.21 0 34.099-26.931 45.595-52.978 12.168-27.566 24.751-56.07 50.675-56.07 25.91 0 38.496 27.794 50.67 54.675 11.49 25.378 23.375 51.62 45.603 51.62 21.898 0 33.884-46.151 45.473-90.782C112.91 45.935 124.84 0 151.075 0c26.131 0 38.098 37.633 50.766 77.477 11.555 36.342 23.503 73.92 45.508 73.92 22.518 0 33.821-16.988 45.791-34.978 12.223-18.369 24.863-37.365 50.484-37.365 25.843 0 38.445 25.425 50.631 50.014 12.008 24.226 23.348 47.103 45.639 47.103 21.942 0 33.912-42.439 45.487-83.484 12.647-44.835 24.591-87.182 50.784-87.182 26.23 0 38.165 45.038 50.799 92.723 11.586 43.733 23.568 88.955 45.478 88.955 22.22 0 34.106-26.7 45.604-52.525 12.17-27.336 24.753-55.604 50.675-55.604 25.756 0 38.378 22.574 50.582 44.404 11.99 21.448 23.314 41.704 45.697 41.704v4.9c-25.756 0-38.378-22.576-50.582-44.408-11.988-21.445-23.315-41.701-45.697-41.701-22.217 0-34.105 26.698-45.602 52.523-12.17 27.337-24.755 55.607-50.677 55.607-26.227 0-38.162-45.04-50.797-92.723-11.585-43.733-23.568-88.957-45.48-88.957-21.939 0-33.909 42.442-45.485 83.485-12.645 44.835-24.59 87.184-50.786 87.184-25.842 0-38.443-25.426-50.632-50.015-12.006-24.224-23.346-47.104-45.638-47.104-22.518 0-33.823 16.99-45.791 34.977-12.223 18.37-24.863 37.368-50.484 37.368-26.13 0-38.096-37.633-50.764-77.477-11.553-36.343-23.501-73.923-45.51-73.923-21.897 0-33.883 46.15-45.47 90.782-12.631 48.632-24.563 94.568-50.798 94.568-25.907 0-38.494-27.795-50.667-54.676-11.493-25.378-23.376-51.62-45.606-51.62-22.208 0-34.098 26.932-45.593 52.975C-99.229 164.495-111.812 193-137.736 193"/>
    </g>
</svg>
