<?xml version="1.0" encoding="UTF-8"?>
<svg width="3617px" height="704px" viewBox="0 0 3617 704" version="1.1" xmlns="http://www.w3.org/2000/svg" xmlns:xlink="http://www.w3.org/1999/xlink">
    <!-- Generator: Sketch 51.2 (57519) - http://www.bohemiancoding.com/sketch -->
    <title>Group 25 Copy</title>
    <desc>Created with Sketch.</desc>
    <defs></defs>
    <g id="Page-1" stroke="none" stroke-width="1" fill="none" fill-rule="evenodd" opacity="0.3">
        <g id="Group-25-Copy" fill="#FF161F">
            <path d="M3396.85873,515.991528 C3340.68079,515.991528 3312.45258,459.035684 3285.15058,403.95857 C3258.33288,349.875366 3230.61318,177.741206 3176.70535,177.741206 C3122.80358,177.741206 3095.08388,293.161939 3068.27223,404.794908 C3040.96418,518.47024 3012.73598,636 2956.57014,636 C2900.39825,636 2872.17004,518.458119 2844.86804,404.788848 C2818.06245,293.161939 2790.33669,83.5743719 2736.44098,83.5743719 C2682.53921,83.5743719 2654.81951,349.875366 2628.01391,403.964631 C2600.71191,459.041744 2572.48371,515.991528 2516.31787,515.991528 C2460.15203,515.991528 2431.92382,459.041744 2404.62183,403.964631 C2377.81018,349.875366 2350.09048,179.565393 2296.18871,179.565393 C2242.28694,179.565393 2214.56724,349.875366 2187.75559,403.964631 C2160.45964,459.041744 2132.22538,580.456234 2076.05954,580.456234 C2019.89371,580.456234 1991.65945,490.961986 1964.3635,404.413102 C1937.55791,319.409626 1909.83215,231.527449 1855.92433,231.527449 C1802.02861,231.527449 1774.30286,319.409626 1747.49121,404.413102 C1720.19527,490.961986 1691.96101,635.545468 1635.79517,635.545468 C1579.62933,635.545468 1551.39507,459.041744 1524.09913,403.964631 C1497.28747,349.875366 1469.56778,237.303031 1415.67206,237.303031 C1361.77634,237.303031 1334.05664,349.875366 1307.24499,403.964631 C1279.94905,459.041744 1251.72084,515.991528 1195.555,515.991528 C1139.39522,515.991528 1111.16701,459.041744 1083.86502,403.964631 C1057.05942,349.875366 998.429743,41.5817093 944.54008,41.5817093 C890.644364,41.5817093 862.924664,349.875366 836.119067,403.964631 C808.823124,459.041744 780.594917,515.991528 724.429079,515.991528 C668.269295,515.991528 670.951065,459.041744 643.649068,403.964631 C616.843471,349.875366 589.117718,211.600782 535.228055,211.600782 C481.332339,211.600782 453.61264,349.875366 426.807043,403.964631 C399.511099,459.041744 371.282892,625.279114 315.123108,625.279114 C258.95727,625.279114 230.729064,459.041744 203.427066,403.964631 C176.621469,349.875366 148.895716,293.943733 95,293.943733 L95,290.362024 C151.165838,290.362024 179.394045,347.311808 206.696042,402.394981 C233.507693,456.478186 261.227392,621.697405 315.123108,621.697405 C369.012771,621.697405 396.73247,456.478186 423.538067,402.394981 C450.840064,347.311808 479.062218,208.019073 535.228055,208.019073 C591.38784,208.019073 619.616046,347.311808 646.91199,402.388921 C673.723641,456.478186 670.539417,512.409818 724.429079,512.409818 C778.324795,512.409818 806.044495,456.478186 832.850092,402.388921 C860.152089,347.311808 888.374242,38 944.54008,38 C1000.69986,38 1059.83805,347.311808 1087.13399,402.388921 C1113.93959,456.478186 1141.66534,512.409818 1195.555,512.409818 C1249.45072,512.409818 1277.17042,456.478186 1303.98207,402.388921 C1331.27801,347.311808 1359.50622,233.721322 1415.67206,233.721322 C1471.8379,233.721322 1500.0661,347.311808 1527.3681,402.388921 C1554.17975,456.478186 1581.89945,629.921397 1635.79517,629.921397 C1689.69694,629.921397 1717.41664,486.937865 1744.22829,401.94045 C1771.53028,315.391566 1799.75849,225.903378 1855.92433,225.903378 C1912.10227,225.903378 1940.33048,315.391566 1967.63248,401.94651 C1994.44413,486.937865 2022.16383,574.826102 2076.05954,574.826102 C2129.95526,574.826102 2157.67496,456.478186 2184.49266,402.394981 C2211.78861,347.311808 2240.02287,175.983683 2296.18871,175.983683 C2352.35454,175.983683 2380.58881,347.311808 2407.88475,402.388921 C2434.70245,456.478186 2462.42215,512.409818 2516.31787,512.409818 C2570.21358,512.409818 2597.93934,456.478186 2624.74494,402.394981 C2652.04088,347.317868 2680.27514,76.1927782 2736.44098,76.1927782 C2792.61287,76.1927782 2820.83502,287.883312 2848.13096,401.552583 C2874.94867,513.185552 2902.66837,628.618406 2956.57014,628.618406 C3010.46585,628.618406 3038.19161,513.185552 3065.00931,401.552583 C3092.30526,287.883312 3120.53952,170.347491 3176.70535,170.347491 C3232.8833,170.347491 3261.11151,347.311808 3288.4135,402.388921 C3315.23121,456.478186 3342.95696,512.409818 3396.85873,512.409818 C3450.7605,512.409818 3478.48625,456.478186 3505.2979,402.388921 C3532.5999,347.311808 3560.83416,290.362024 3617,290.362024 L3617,293.943733 C3563.09823,293.943733 3535.37248,349.875366 3508.56688,403.964631 C3481.25883,459.041744 3453.02457,515.991528 3396.85873,515.991528" id="Fill-1"></path>
            <path d="M772.3661,580 C733.217161,580 714.680893,524.707552 696.762096,471.243807 C680.054029,421.401016 662.782973,369.863181 631.503776,369.863181 C598.989636,369.863181 582.681109,391.102868 565.410053,413.581943 C547.285432,437.17282 528.555447,461.565654 490.629346,461.565654 C451.873894,461.565654 433.234714,420.264911 415.213005,380.318988 C397.839037,341.819016 381.433652,305.457594 349.754915,305.457594 C317.603993,305.457594 301.271252,332.043657 283.975981,360.197179 C265.875575,389.656917 247.169805,420.125176 208.874431,420.125176 C171.892698,420.125176 153.265625,406.82607 135.24997,393.970469 C117.869948,381.576601 101.45851,369.863181 68,369.863181 L68,359.097527 C104.981732,359.097527 123.614859,372.384482 141.636568,385.246158 C159.010536,397.640026 175.421975,409.353447 208.874431,409.353447 C241.025352,409.353447 257.358093,382.761309 274.653364,354.607787 C292.75377,325.154124 311.465595,294.685865 349.754915,294.685865 C388.51642,294.685865 407.149547,335.992683 425.171255,375.932531 C442.545224,414.438578 458.956662,450.8 490.629346,450.8 C523.137433,450.8 539.452013,429.560312 556.717015,407.081238 C574.841636,383.484285 593.577675,359.097527 631.503776,359.097527 C670.664822,359.097527 689.195037,414.383899 707.113833,467.85372 C723.815847,517.696511 741.092957,569.234346 772.3661,569.234346 C803.639242,569.234346 820.916352,517.696511 837.624419,467.847644 C855.543216,414.383899 874.073431,359.097527 913.228423,359.097527 C950.210155,359.097527 968.837229,372.384482 986.852884,385.246158 C1004.22685,397.640026 1020.63829,409.353447 1054.09075,409.353447 C1087.5432,409.353447 1103.94859,397.640026 1121.32861,385.246158 C1139.34426,372.384482 1157.97134,359.097527 1194.95307,359.097527 C1233.24239,359.097527 1251.95421,389.553635 1270.04857,419.025524 C1287.33778,447.172971 1303.67658,473.765109 1335.82145,473.765109 C1367.97842,473.765109 1384.31116,447.172971 1401.60643,419.025524 C1419.70684,389.553635 1438.41866,359.097527 1476.70798,359.097527 C1514.72489,359.097527 1533.46093,384.918085 1551.57344,409.888084 C1568.8445,433.697677 1585.15908,456.182827 1617.57636,456.182827 C1649.21272,456.182827 1665.63022,418.53949 1683.01024,378.684699 C1701.01984,337.383956 1719.64691,294.685865 1758.45685,294.685865 C1796.74617,294.685865 1815.45799,325.154124 1833.55234,354.607787 C1850.84761,382.761309 1867.18035,409.353447 1899.33733,409.353447 C1932.78979,409.353447 1949.20728,397.640026 1966.58125,385.246158 C1984.60295,372.384482 2003.23003,359.097527 2040.21781,359.097527 C2077.19955,359.097527 2095.82662,372.384482 2113.84833,385.246158 C2131.2223,397.640026 2147.63979,409.353447 2181.09225,409.353447 C2214.55075,409.353447 2230.96825,397.640026 2248.34221,385.246158 C2266.36392,372.384482 2284.991,359.097527 2321.97878,359.097527 C2360.00174,359.097527 2378.73173,384.918085 2396.85635,409.888084 C2414.12741,433.697677 2430.44199,456.182827 2462.87137,456.182827 C2494.21716,456.182827 2511.47006,407.391084 2528.15996,360.203254 C2546.10297,309.467375 2564.6574,257 2603.75186,257 C2642.47099,257 2661.11622,297.328675 2679.14398,336.326832 C2696.5119,373.885112 2712.91123,409.353447 2744.62024,409.353447 C2778.07875,409.353447 2794.49624,397.640026 2811.87021,385.246158 C2829.89191,372.384482 2848.51899,359.097527 2885.50677,359.097527 C2923.43893,359.097527 2942.17497,383.484285 2960.29353,407.075162 C2977.57064,429.560312 2993.87917,450.8 3026.39331,450.8 C3058.91351,450.8 3075.22809,429.560312 3092.49914,407.075162 C3110.61771,383.484285 3129.3598,359.097527 3167.2859,359.097527 C3204.27369,359.097527 3222.91287,372.384482 3240.93458,385.246158 C3258.30855,397.640026 3274.72604,409.353447 3308.17849,409.353447 C3341.64306,409.353447 3358.06055,397.640026 3375.44663,385.246158 C3393.46228,372.384482 3412.09541,359.097527 3449.08319,359.097527 C3486.07703,359.097527 3504.71016,372.384482 3522.73187,385.246158 C3540.11794,397.640026 3556.53544,409.353447 3590,409.353447 L3590,420.125176 C3553.00616,420.125176 3534.37303,406.82607 3516.35132,393.970469 C3498.9713,381.576601 3482.55381,369.863181 3449.08319,369.863181 C3415.63074,369.863181 3399.20719,381.576601 3381.83322,393.970469 C3363.81152,406.82607 3345.17233,420.125176 3308.17849,420.125176 C3271.19676,420.125176 3252.56364,406.82607 3234.54798,393.970469 C3217.1619,381.576601 3200.75047,369.863181 3167.2859,369.863181 C3134.77176,369.863181 3118.46324,391.096793 3101.18613,413.581943 C3083.06756,437.17282 3064.32547,461.565654 3026.39331,461.565654 C2988.46116,461.565654 2969.72512,437.17282 2951.60655,413.581943 C2934.33549,391.102868 2918.02091,369.863181 2885.50677,369.863181 C2852.04826,369.863181 2835.63683,381.576601 2818.2568,393.970469 C2800.24115,406.82607 2781.60802,420.125176 2744.62024,420.125176 C2705.90111,420.125176 2687.25587,379.796501 2669.22811,340.798345 C2651.86625,303.240064 2635.46692,267.765654 2603.75186,267.765654 C2572.40002,267.765654 2555.14712,316.563472 2538.45722,363.751303 C2520.50815,414.493257 2501.95372,466.954557 2462.87137,466.954557 C2424.84236,466.954557 2406.10632,441.133998 2387.98776,416.157923 C2370.7167,392.348331 2354.39607,369.863181 2321.97878,369.863181 C2288.52027,369.863181 2272.10278,381.576601 2254.72881,393.970469 C2236.71316,406.82607 2218.08003,420.125176 2181.09225,420.125176 C2144.11051,420.125176 2125.47739,406.82607 2107.45568,393.970469 C2090.08171,381.576601 2073.66422,369.863181 2040.21781,369.863181 C2006.7593,369.863181 1990.34181,381.576601 1972.96784,393.970469 C1954.95219,406.82607 1936.31906,420.125176 1899.33733,420.125176 C1861.04196,420.125176 1842.32408,389.656917 1824.22973,360.197179 C1806.93445,332.043657 1790.60777,305.457594 1758.45685,305.457594 C1726.82654,305.457594 1710.40905,343.094856 1693.02297,382.949647 C1675.01337,424.244315 1656.3863,466.954557 1617.57636,466.954557 C1579.55946,466.954557 1560.82342,441.133998 1542.7109,416.157923 C1525.43379,392.348331 1509.12527,369.863181 1476.70798,369.863181 C1444.55706,369.863181 1428.22432,396.455318 1410.92905,424.60884 C1392.8347,454.062504 1374.11682,484.530763 1335.82145,484.530763 C1297.53213,484.530763 1278.8203,454.062504 1260.72595,424.60884 C1243.43068,396.455318 1227.09794,369.863181 1194.95307,369.863181 C1161.50061,369.863181 1145.08918,381.576601 1127.71521,393.970469 C1109.69955,406.82607 1091.06643,420.125176 1054.09075,420.125176 C1017.10901,420.125176 998.48194,406.82607 980.466286,393.970469 C963.092317,381.576601 946.680879,369.863181 913.228423,369.863181 C881.95528,369.863181 864.67817,421.401016 847.976157,471.237732 C830.051306,524.707552 811.521092,580 772.3661,580" id="Fill-3"></path>
            <path d="M320.153751,704 C233.937556,704 192.094672,600.023033 151.625969,499.47062 C113.39712,404.466469 73.8606799,306.231378 0,306.231378 L0,288.364402 C86.210142,288.364402 128.059079,392.335319 168.527782,492.887732 C206.756632,587.897933 246.293071,686.133024 320.153751,686.133024 C394.020485,686.133024 433.556924,587.897933 471.791828,492.887732 C512.260531,392.335319 554.109468,288.364402 640.325663,288.364402 C726.49343,288.364402 768.354474,389.745726 808.841338,487.799304 C847.05808,580.371174 886.582413,676.089279 960.509683,676.089279 C1033.33519,676.089279 1073.19852,507.747634 1111.74216,344.948202 C1153.7485,167.555086 1193.41812,0 1280.67554,0 C1367.58185,0 1407.3786,137.272588 1449.51206,282.610425 C1487.94068,415.175764 1527.67689,552.248687 1600.85956,552.248687 C1675.74936,552.248687 1713.34258,490.279988 1753.15143,424.656817 C1793.80175,357.654145 1835.83835,288.364402 1921.04963,288.364402 C2006.99947,288.364402 2048.90894,381.105685 2089.43818,470.797542 C2129.37416,559.16435 2167.08845,642.612144 2241.22155,642.612144 C2314.19839,642.612144 2354.00725,487.811405 2392.50246,338.093043 C2434.56327,174.549405 2474.28738,20.0814404 2561.39951,20.0814404 C2648.63272,20.0814404 2688.32656,184.363233 2730.345,358.301543 C2768.87653,517.827683 2808.72776,682.781075 2881.59564,682.781075 C2955.49264,682.781075 2995.02303,585.386997 3033.26398,491.187555 C3073.73874,391.476155 3115.58768,288.364402 3201.79782,288.364402 C3287.45708,288.364402 3329.43314,370.704963 3370.02292,450.334923 C3409.89836,528.56723 3447.55817,602.455313 3522,602.455313 L3522,620.32834 C3436.34074,620.32834 3394.36468,537.981728 3353.7749,458.345718 C3313.90551,380.119462 3276.2336,306.231378 3201.79782,306.231378 C3127.90687,306.231378 3088.37043,403.619406 3050.13553,497.818847 C3009.66077,597.536298 2967.80578,700.654102 2881.59564,700.654102 C2794.36848,700.654102 2754.67465,536.366258 2712.65621,362.433999 C2674.12468,202.90786 2634.27345,37.9484165 2561.39951,37.9484165 C2488.43477,37.9484165 2448.62592,192.761256 2410.12466,342.473568 C2368.06989,506.017206 2328.34579,660.491221 2241.22155,660.491221 C2155.27777,660.491221 2113.36829,567.743887 2072.833,478.05203 C2032.90307,389.691272 1995.18878,306.231378 1921.04963,306.231378 C1846.15983,306.231378 1808.56056,368.206128 1768.75776,433.817197 C1728.10745,500.825921 1686.07085,570.121714 1600.85956,570.121714 C1513.9593,570.121714 1474.16255,432.849126 1432.0291,287.511289 C1393.60653,154.94595 1353.87032,17.8669761 1280.67554,17.8669761 C1207.85004,17.8669761 1167.9867,186.20862 1129.44911,349.008053 C1087.44278,526.401169 1047.76105,693.962305 960.509683,693.962305 C874.34797,693.962305 832.486926,592.57493 792.000062,494.521353 C753.777266,401.949482 714.258987,306.231378 640.325663,306.231378 C566.464983,306.231378 526.92249,404.466469 488.693641,499.46457 C448.218884,600.023033 406.369947,704 320.153751,704" id="Fill-5"></path>
        </g>
    </g>
</svg>