<svg width="380" height="350" xmlns="http://www.w3.org/2000/svg" xmlns:xlink="http://www.w3.org/1999/xlink"><defs><path id="a" d="M0 0h380v350H0z"/></defs><g fill="none" fill-rule="evenodd"><mask id="b" fill="#fff"><use xlink:href="#a"/></mask><path stroke="#FF120F" stroke-width="2" d="M1 1h378v348H1z"/><g mask="url(#b)"><path d="M120.615 60.266c-10.346.917-15.01-9.242-24.028-11.939-.695 5.985-6.267 10.607-12.249 9.416.686-11.76-.029-25.04 8.867-33.751 5.299-5.19 12.159-9.771 18.39-13.825 14.45-9.402 27.127-14.158 39.586.212.17 2.638-1.603-4.607-.822-2.677 4.527-2.946 9.265-1.39 12.19 3.189 4.836-3.604 9.514-2.115 11.76 3.288-.712-1.714 8.596-1.193 10.343 3.436 2.016-.987 5.281-1.79 7.188-.157.006-.619.14-1.535.063-2.1C214.5 9.66 236.743 8.631 259.99 7.47c20.245-1.012 60.691-6.846 77.229 3.599" stroke="#FF120F" stroke-width="2.835"/><path d="M364.283-67.775c1.012 4.254 2.198 9.282 3.762 12.566 1.446 9.864 5.64 12.812 9.878 20.474-5.923 7.157-18.26 12.215-25.677 19.937-14.708 15.312-17.88 30.045-21.155 49.575-4.824 28.724-1.656 83.906 25.807 103.077 3.718 2.599 9.066 4.082 13.36 4.995.763 10.024-3.512 20.241-3.512 31.087 0 11.11 1.415 21.895 2.468 32.468 1.931 19.382 3.857 62.065 24.438 72.45-21.982 19.639-17.053 55.264-17.053 83.88 0 32.893 3.765 61.725 18.684 89.984 3.236.826 3.272 1.731 5.765 3.277-1.06.01-2.188-.242-3.236-.129-7.768 14.029-7.586 46.578-6.462 64.401.664 10.508 2.876 21.105 4.894 31.327 1.717 8.704 11.666 19.819 10.901 28.32-2.675-.732-5.378.56-8.1-.216-6.91 13.736-15.14 27.761-21.52 43.128-4.346 10.478-6.305 21.916-8.04 32.398-1 6.02-5.994 22.284-1.507 22.576" stroke="#FF120F" stroke-width="2.835"/><path d="M489.145 122.68c.718-10.355-105.419 3.488-117.94 15.704 18.826-17.875 48.623-21.203 73.394-25.174 10.69-1.714 30.905-5.474 39.76.057M141.986 60.502c-11.11-.393-24.831 19.929-30.605 27.716-4.223 5.692-8.214 11.564-12.728 17.034-2.318 2.802-10.389 14.027-14.315 13.932 8.493.207 12.4 10.593 18.918 14.416 1.008 5.689 8.075 13.159 11.113 18.21 2.597 4.316 3.435 8.898 5.438 13.326 2.352 5.208 1.203 2.437 6.188 4.52 4.846 2.027 15.559 12.56 17.08 17.766-.478-1.637-7.433-19.89-6.43-20.448-.31.173-.414.76-.745.899-6.813-2.702-10.64-13.339-13.16-19.465-2.464-5.987-7.906-16.589 1.255-17.132-1.812-4.793-1.124-9.286-1.784-14.246-.287-2.156-3.92-8.003-3.91-7.852-1.928-27.29 21.214-52.097 46.36-58.694 17.827-4.679 36.684 3.149 49.103 16.45 5.587 5.987 10.234 13.714 12.249 21.626 2.182 8.573 1.013 18.166 3.224 26.804 6.952-5.31 6.656 16.66 6.444 20.953-.406 8.203-3.71 12.707-8.489 18.841-1.268-1.06-2.177-.464-2.834-2.481a3.916 3.916 0 0 1-.48.005c-1.096 5.768.568 13.108.42 19.235 5.048.183 13.814 1.016 16.887 6.117 5.494-5.183 8.045-15.269 13.711-21.386 6.25-6.742 16.72-12.72 16.127-21.985-1.363-21.312-4.247-39.69 14.191-55.058 1.379-1.149 4.1-2.485 4.802-4.15 1.205-2.86-.804-5.863 1.226-8.73-12.735 4.985-34.709-2.636-47.22-6.95-14.55-5.018-29.396-5.801-44.03-9.184-.143.696-.325 1.9-.293 2.567 2.93-5.731 4.322-11.923 1.862-18.134-1.513-3.82-4.92-11.411-8.251-12.73M3.233-39.753c5.991 3.642 12.821 6.062 18.62 9.797 4.533 2.919 7.874 7.68 11.868 11.35 8.726 8.024 17.258 17.39 20.733 29.599 4.346 15.266.083 31.946-1.497 47.258-1.342 13.021-1.638 26.061-2.269 39.043-1.18 24.304-.177 50.656-6.64 73.622-6.212 22.062-34.35 22.99-53.305 24.512a15.89 15.89 0 0 0-.36-.013c.318-.416.816-.324 1.437-.318" stroke="#FF120F" stroke-width="2.835"/><path d="M82.088 43.311c2.65 3.705-16.49 9.892-19.36 11.694-3.885 2.443-8.111 6.465-11.374 9.322M37.36 181.417c3.633 11.086 13.293 24.07 22.714 31.075 9.816 7.299 21.238 17.32 32.841 20.67-.538 9.728 6.32 20.363 9.549 29.318 3.88 10.763 8.757 20.3 14.963 30.022 11.322 17.743 19.948 37.24 28.743 55.858 3.095 6.55 9.408 13.38 9.126 21.033-.179 4.809-2.588 6.46-1.345 11.978 2.21 9.803-.674 14.517-1.678 24.02-.947 8.94-4.286 16.451-4.774 26.403-.47 9.497.511 19.054-.134 28.585-.039.587-7.075 7.562-7.94 9.448-2.148 4.684-3.118 9.848-4.727 14.723-1.508 4.569-3.13 9.282-6.52 12.828-1.435 1.502-17.499 20.04-13.904 22.394-6.606-4.321-4.596 3.681-4.617 7.139-4.248.578-3.802 4.098-4.521 7.684-1.223 6.087-1.923 12.795-4.337 18.613-3.907 9.42-3.795 20.212-6.917 30.445-2.509 8.218 0 17.654.93 27.095 2.328 23.62 3.596 47.828 3.596 72.055M145.31 16.29c-1.733 7.641-4.065 14.977-5.513 22.991-.748 4.145-4.86 20.635-.532 22.044" stroke="#FF120F" stroke-width="2.835"/><path d="M157.745 24.743c.046-.86.355-2.449.486-3.449 1.057 13.411-9.707 25.287-14.375 35.842-2.166-.084-4.496-.046-6.542-.224 2.035.565 4.54.597 6.555-.231.46-1.709 1.752-3.315 2.595-4.633 1.308 1.514 2.864 1.67 4.398 2.403M164.3 49.316c7.367-.7 6.464-18.4 7.573-24.953-.605-.055-1.555-.117-2.153 0-.028.471.07 1.616-.01 2.006.775.744 1.602 1.254 2.587 1.274M181.293 46.613c7.148.56 10.383-14.575 9.818-19.722-.342-.158-.474-.197-.687-.593-3.601.197-3.747 5.099-1.46 6.967 2.705 2.21 7.47-.65 10.592 1.71 4.907 3.71 2.398 14.557-1.303 16.342" stroke="#FF161F" stroke-width=".917" stroke-linecap="round" stroke-linejoin="round"/><path d="M142.311 43.416c1.266-4.333 4.222-17.27 9.457-17.117 6.37.186 2.205 15.238 1.223 18.861 4.513-18.696 21.035-4.507 13.906 4.133 1.386-11.719 15.063-7.547 10.452 2.024" stroke="#FF161F" stroke-width=".917" stroke-linecap="round" stroke-linejoin="round"/><path d="M98.86 53.748c-.1-5.22 6.554-13.992 0-19.258-6.047 5.76 7.582 14.398 10.92 17.67 2.7 2.651 5.835 6.584 9.232 8.13 4.756 2.16 11.848 1.171 10.734-5.19 3.449 5.29 9.848 1.475 12.704-1.832-6.886 2.109-26.236-5.981-30.072-12.68-13.1-7.292 3.492-19.269 11.046-24.298-4.37 8.8-10.87 12.094.508 18.998 6.413 3.891 12.815 8.065 20.378 8.88-6.027-2.632-13.46-12.134-14.686-17.746M308.19 74.125c-3.803 1.716-12.538 5.973-15.808 2.379.37-.562.47-.869.786-1.538 9.327-3.997 26.23-9.541 33.088 3.689 4.416 8.516 3.151 25.588 1.034 34.947-2.41 10.656-7.762 26.185-15.074 34.473-5.11 5.79-23.302 21.7-30.382 11.495-4.491-6.478-10.132-17.825-10.909-25.996.042.123-.602-.49-.674-.637 7.305 6.032 7.893 23.772 8.218 32.502.45 12.061.583 24.036.583 36.228 0 14.1.866 28.596-.583 42.553-.66 6.357-3.574 13.702-2.927 20.125.865 8.594 21.091 16.157 10.503 27.157M260.771 304.783c-6.961 4.289-9.026-11.617-2.807-14 3.411-1.311 6.816 2.13 6.222 6.78-.518 4.056-4.425 6.452-4.379 1.079M150.675 325.293c-4.94 1.295-9.933-13.58-4.139-13.763 5.805-.184 6.496 13.4 1.06 14.832-10.329 2.727-10.515-28.727-12.097-35.371-2.14-8.992-5.91-13.945-10.607-21.687-6.802-11.21-10.254-20.733-9.574-34.28.337-6.684 1.223-13.522 1.208-20.193-.294-.492-.344-1.04-.586-1.805-.949-1.481-1.41-3.28-1.182-5.417-5.38-11.696 1.555-26.373 6.48-36.798-2.402 8.409 2.846 23.412-5.17 29.77-4.209 3.341-13.964 1.4-19.148.726-10.396-1.357-18.752-10.408-25.798-18.009-8.141-8.782-12.21-20.813-12.243-32.525-.049-16.836 13.236-24.15 26.883-29.402-4.615 4.85-27.325 8.018-34.408 5.464.182-.047.238.014.168.184.113-.568.975-.26 1.922-.318M292.966 70.405c7.051-3.625 33.538-7.707 32.211-20.089-12.64 2.72-30.99 12.121-33.935 25.02M229.242 228.454c.732 10.05-13.04 19.687-16.373 28.987-3.404 9.5.494 19.688 0 29.623-.51 10.31-2.435 20.105 1.293 30.248 1.522 4.144 3.87 8.41 6.075 12.389 3.447 6.212 2.113 4.733-.687 10.232-4.073 7.99-2.03 23.068 2.632 30.498 4.441 7.075 1.702 7.997-1.463 14.377-4.115 8.288 4.324 8.834 4.594 14.788.123 2.693-1.456 2.668-2.765 4.72-2.694 4.23-5.824 7.546-4.29 12.912 1.182 4.145 5.298 6.288 5.743 10.78.386 3.904-5.455 15.785-10.965 11.499-4.838-3.767 5.013-16.048 4.433-3.79-.379 8.007-9.42 13.602-9.184 21.913" stroke="#FF161F" stroke-width=".917" stroke-linecap="round" stroke-linejoin="round"/><path d="M312.903 681.803c-1.515-4.108.774-10.34 1.42-14.815 1.051-7.267 1.738-13.971 1.738-21.412 0-14.38-.92-28.356-3.158-42.457-1.7-10.702-6.935-23.634-6.315-33.496.3-4.803 1.033-8.356.015-13.425-1.073-5.34.422-8.16 1.213-13.367.916-6.024-2.436-7.658-3.122-13.238-.558-4.537 2.69-9.65 3.663-14.327 2.108-10.139.327-21.317-1.365-31.353-1.603-9.517-7.38-19.028-5.315-28.919 2.158-10.346 6.2-20.59 6.173-32.326-.022-9.947-1.506-19.949-.001-29.584 2.248-14.4 8.021-28.04 10.328-42.43 2.19-13.678 3.567-25.702 3.567-39.73 0-25.43 4.06-48.123 6.455-73.355.966-10.185 1.658-21.02 1.12-31.592-.24-4.738-1.804-9.942-1.259-14.626 1.434-12.297 13.621-25.007 18.8-36.244 2.752-5.968 6.957-12.422 8.352-18.724" stroke="#FF120F" stroke-width="2.835"/><path d="M172.297 490.655c-6.635-2.108-6.824-15.16-7.425-21.614-.416-4.493-1-9.193-.57-13.783.423-4.542 2.83-7.452 3.856-11.53.997-3.965-.324-7.07-.43-11.85-.149-6.677 3.465-10.553 4.583-16.23 1.847-9.364-7.71-21.178-1.098-32.08-6.465-2.518-10.082-14.142-8.03-21.663-8.749-1.19-8.359-12.946-5.663-19.763-4.013-2.163-5.88-6.988-5.098-11.61 1.853 2.278-2.078 4.193-2.97 6.541-2.456 6.463-.966 12.631 4.568 15.761 5.477 3.097 12.283 4.262 18.166 2.382 3.685-1.178 9.08-5.309 12.106-4.946M293.676 343.542c-.104 14.8-8.08 32.65-23.328 37.292-3.236.984-9.085-.59-8.843 5.412 5.013.814 15.927-4.828 13.226 5.81-.867 3.422-7.83 12.813-10.813 14.416-3.307 6.282 7.26 13.256 6.455 21.283-.893 8.918-10.287 11.956-13.8 17.61 7.82 7.435 3.205 23.228-.392 31.674-3.538 8.307-6.896 23.281-15.812 26.627-5.954-7.548 13.922-18.177 18.548-20.189 7.324-3.19 15.4-4.234 22.81-6.736 4.894-1.653 10.605-3.053 14.47-6.618 4.344-4.005 3.258-11.286 7.039-14.479M137.319 185.42c-.16 3.067 3.245 9.533 4.136 13.418 1.27 5.546 2.137 10.74 1.771 16.606-.5-.736-.232-1.217-.359-2.07M221.462 172.41c4.809 12.969-4.846 32.9 3.05 45.035.714-12.689 5.643-27.526 16.753-35.667" stroke="#FF161F" stroke-width=".917" stroke-linecap="round" stroke-linejoin="round"/><path d="M162.968 178.895c-.283.299-.663.116-.666.657.289.287.337.08.675.108.141.22-.049.485.253.71 2.656.43 6.25-2.266 8.711-3.02 2.9-.888 5.915-.205 8.966-.768 3.633-.67 7.414-2.103 11.185-1.716 1.925.197 5.772 2.472 6.193-.454" stroke="#FF161F" stroke-width="1.833" stroke-linecap="round" stroke-linejoin="round"/><path d="M166.1 182.418c-.306-.354-2.685-6.875-3.749-3.544-1.516 4.74 32.342 5.365 35.934-3.861a35.636 35.636 0 0 0-1.94-.587c-.165.069-.516.006-.69-.014-.089 1.035-.066 2.126-.075 3.19M181.293 191.998c2.056 0 4.064.129 5.997-.573-.141 1.365-1.132 2.22-2.261 1.953" stroke="#FF161F" stroke-width=".917" stroke-linecap="round" stroke-linejoin="round"/><path d="M222.274 167.407c-1.365 13.01-4.466 24.695-14.724 34.153-8.949 8.257-21.536 12.707-33.912 10.17-7.344-1.505-16.477-5.195-21.963-10.182-6.237-5.667-10.262-14.995-14.361-22.174M122.32 132.444c3.026-.221 7.437 4.786 9.117 6.941-1.328-4.367-2.365-7.027-2.318-11.666-6.133-7.762-6.378-21.636-2.91-30.455 1.663-4.231 3.425-8.064 6.187-11.748 2.93-3.916 6.797-5.882 10.092-9.236-1.483-1.137-2.765-2.572-4.182-4.108 7.034 3.967 11.782 6.18 19.885 6.279 3.449.04 6.321.535 9.565 1.533 2.758.849 6.147 3.274 8.709 3.312-.547-6.628 6.492-11.132 12.018-11.391 6.755-.316 12.512 1.45 18.333 4.407 6.894 3.502 8.653 8.14 10.34 15.23 1.447 6.072 1.962 12.806 2.801 18.803 1.135 8.12 4.052 17.779 6.109 24.895-2.225-4.404.706-16.272 4.204-19.488-.383.24-.449.138-.836.576-1.371-2.123-1.229-4.818-2.272-7.118-.921-2.026-2.792-3.798-3.984-5.654-2.399-3.727-6.5-7.142-7.558-11.12 3.912.487 12.177 6.341 12.667 10.87-3.743-5.177-5.93-11.243-10.245-16.309-2.233-2.622-5.38-4.997-7.221-7.648 4.21-.397 10.345 5.094 13.449 7.648-.081-9.41-11.732-9.589-17.463-10.99-6.946-1.697-15.641-3.363-21.912-6.66-10.965-5.764-18.402-16.015-31.066-13.69-7.452 1.366-9.934 6.808-16.71 10.345 7.278-6.69 19.586-7.722 27.447-1.549 4.932 3.87 12.697 11.57 12.298 18.362-8.398-6.981-21.506-19.344-33.418-16.24-4.37 1.138-7.252 2.805-10.352 6.16-3.76 4.068-6.058 10.023-10.08 13.341-.191-4.831 7.583-10.435 11.666-12.218 4.139-1.812 7.884-3.086 12.353-2.68 4.542.413 14.787 3.128 13.55 9.727M164.3 52.8c12.067-9.105 35.764 8.747 33.879 22.536M130.357 146.776c-.636 3.568 2.264 8.19 3.211 11.606.912 3.282 4.024 7.674 3.725 11.026-3.756-1.097-1.77-7.876-5.81-10.426-2.615-1.65-4.889-1.035-5.696-5.605-.607-3.444.66-5.486 3.38-6.832-1.273-.422-3.036.243-4.161-.253-2.473-1.095-4.348-4.75-.426-4.905" stroke="#FF161F" stroke-width=".917" stroke-linecap="round" stroke-linejoin="round"/><path d="M225.809 144.389c-.348-4.061 5.486-4.64 6.331-8.828.763-3.788-2.073-8.74-3.067-12.172-.139-.48-4.629 9.511-4.8 11.017 1.841-3.366 7.523-5.19 5.968 1.031-1.32 5.272-3.73.484-4.623-1.896a4.463 4.463 0 0 1-.926 0c.686.074 1.248 4.995 1.198 5.686-.093 1.284-2.945 5.062-.081 5.162zM222.274 144.389c-.03 1.08-.38 1.257-1 .612M160.303 226.218c9.274 4.973 38.277 14.24 36.192 27.255-4.705-.748-3.246-8.559-1.088-11.347 3.062-3.955 10.663-5.671 15.127-7.296 9.48-3.449 13.764-8.289 15.738-17.385M200.456 316.666c1.712-2.088 3.943-.73 6.002-.492 1.146 5.61 4.201 25.376-1.66 27.086-10.188 2.974-5.609-18.361-4.71-24.768.972.05 1.64-1.05 2.104-1.246" stroke="#FF161F" stroke-width=".917" stroke-linecap="round" stroke-linejoin="round"/><path d="M150.307 228.454c2.53 23.377 19.879 40.934 30.555 60.733 5.888 10.92 14.71 22.774 21.795 31.337-.413-13.739 4.009-27.732 6.623-40.771" stroke="#FF161F" stroke-width=".917" stroke-linecap="round" stroke-linejoin="round"/><path d="M-56.596 153.396c16.343 2.64 53.624 9.468 60 27.813-7.806 8.702-25.503 2.039-28.61-8.37 21.05-4.2 13.48 28.472 12.935 39.59-.85 17.31-1.082 36.354 1.254 53.246 2.312 16.709 2.798 35.183 3.637 51.881.967 19.201-5.593 26.171-22.59 27.546C1.749 342.297-6.45 433.42-4.795 450.854c1.639 17.26 1.92 35.49 2.124 52.78.086 7.32 1.536 18.295-4.14 24.123-4.789 4.915-15.329 5.918-21.641 10.075 18.49-4.08 32.143 23.777 35.646 38.179C15.35 609.54 20.1 644.685 22.367 678.8" stroke="#FF120F" stroke-width="2.835"/><path d="M200.284 167.407c2.195.075 4.868.14 4.998 2.001M198.776 179.754c.644-.097 1.01.158 1.508-.338-.188 2.203-.862 4.504-1.999 5.004M200.284 172.41c.667.106.972.327 1.781.335.105.474.374 1.192.096 1.667" stroke="#FF161F" stroke-width=".917" stroke-linecap="round" stroke-linejoin="round"/><path d="M136.314 172.41c5.832 15.209 16.208 33.193 31.95 40.816 14.507 7.029 37.228 6.111 45.93-9.165 3.491-6.128 5.79-13.76 7.08-20.766" stroke="#FF161F" stroke-width=".917" stroke-linecap="round" stroke-linejoin="round"/><path d="M217.566 145.39c3.19 6.012 1.082 29.626.305 37.543-.518 5.28-.595 10.626-.595 16.498M205.081 62.45c3.226 1.96 8.662 3.612 9.197 8.033-15.584 2.45-35.858.703-35.984-20.167M130.317 81.504c-8.863-1.963-9.006 14.29-6.829 20.099 3.829 10.226 3.11 19.958 5.717 30.777" stroke="#FF161F" stroke-width=".917" stroke-linecap="round" stroke-linejoin="round"/><path d="M150.307 130.414c1.876-.046 5.274-.285 4.98 1.51-.437.14-.833.171-1.37.177-.276-.628-.54-.786-.506-1.44.417.634.16 1.116-.15 1.706-.119.01-.237.015-.356.01-.32-.718-.196-1.704.094-1.963M192.297 126.69c-.054.148.158-.17.039-.483 1.732-.633 6.613-1.473 5.873 1.169-1.47-.056-2.204-.825-1.926-2.002" stroke="#FF161F" stroke-width="1.833" stroke-linecap="round" stroke-linejoin="round"/><path d="M136.314 124.721c1.32 1.333 3.306 1.192 4.987 1.654-1.531-.325-2.645-1.695-2.222-3.244 3.149 1.265 7.582 2.061 10.673.338 3.753 2.998 9.806 2.702 14.549 2.644-1.711-.71-2.999-2.183-2.658-3.852-5.655-1.007-10.046-1.192-15.914-.388 5.62.005 10.945 2.199 16.883 2.199M175.323 120.37c-.325 2.544 2.343 4.256 4.97 5.004M164.696 157.399c-1.49 2.69 1.49 5.269 4.603 4.982" stroke="#FF161F" stroke-width=".917" stroke-linecap="round" stroke-linejoin="round"/><path d="M186.76 153.398c1.802-.14 2.116 5.388.382 7.032-1.062 1.008-3.562 1.148-5.189.841 1.656-1.068 3.41-2.238 2.897-4.436-.941 4.129-4.26 6.66-8.3 7.097-3.183.345-8.564-.987-8.43-4.571 6.36 1.146 13.112 3.067 19.726.46-.458 3.701-7.194 6.884-10.34 7.716-4.365 1.156-8.248 1.797-10.206-2.31M178.483 123.373c1.397 1.42 1.982 6.395-.189 5.987 3.103 1.362.592 10.283 1.054 12.937.64 3.695 5.082 4.842 4.94 9.097M142.29 134.923c.343-.152.897-2.188 1.26-3.167 4.467.375 8.286-3.435 12.922-1.981 2.365.743 2.457 3.19 5.693 2.695.17-.494.188-1.298.019-1.806-2.27.018-4.728-1.901-2.716-3.288-4.492.562-9.443.794-13.557 2.515-.72.302-7.515 5.118-6.046 5.49-.704-.178-1.873-.42-2.551-.701.641-.066 1.229-.326 1.847-.42M181.293 121.371c.193.355 4.516 1.4 5.412 2.002 1.941-1.487 6.486-1.705 9.58-1.704-2.855.338-13.845 1.813-14.992-.298z" stroke="#FF161F" stroke-width=".917" stroke-linecap="round" stroke-linejoin="round"/><path d="M194.073 125.57c.047-.009-.1.398-1.05.282-2.785 2.13 3.12 1.462 4.812 1.283 3.02-.32 6.267-.462 9.446-.733-.616.092-2.137.08-3.1.068-.351-.504-.044-.991.102-1.096" stroke="#FF161F" stroke-width=".892" stroke-linecap="round" stroke-linejoin="round"/><path d="M148.79 130.378c-.2.185-.392 1.14-.253 1.82 1.688.214 3.152-.445 4.77-.494-2.307.907-5.263.671-7.997.576.28-.08.504-.012.79-.05M184.553 130.378c-2.305-1.018 3.366-5.356 4.983-6.529 2.232-1.619 4.468-4.17 6.773-5.32 5.111-2.548 10.206 4.011 14.97 5.578-4.453-.869-6.312-7.393-7.111-12.113-2.948-3.595-9.295-.558-11.7 2.468-3.85 4.838-4.577 9.797-11.175 9.387 3.71.09 9.49-.42 11.876-4.046-1.811 2.447-5.356 2.3-6.974-1.07 3.286 1.33 7.513.782 10.793-.302M155.305 131.379c1.44.178 3.168.973 4.938.9.073.366.064.725.05 1.101M197.633 153.58c-.121.404.23.677-.357.765-1.087-2.009-4.692-2.875-6.987-2.95-.06 3.241 7.168 6.724 10.157 8.15 3.757 1.796 7.091 6.264 8.74 9.378 2.133 4.034-.458 8.348 1.093 12.494M162.945 156.97c.192-.07.166-.914.323-.415.568 2.951-6.2 7.303-7.17 11.279-1.564 6.403 1.553 12.534 1.739 18.587-.776-1.965-2.949-6.13-2.461-8.335.619-2.802 3.695-3.855 5.364-1.835M212.378 179.416c.167 3.225-.97 6.452-1.1 9.595.188.122.43.282.605.413.443-1.67.618-4.813 1.395-4.805M167.3 167.407c-.916 1.2-2.926 4.182-4.998 5.003.236-.938.674-2.276.97-2.99" stroke="#FF161F" stroke-width=".917" stroke-linecap="round" stroke-linejoin="round"/><path d="M183.699 127.367c1.247-1.813.286-4.226-.68-5.996-.864 2.443-2.533 6.194-4.725 7.993.554 1.16 1.496 1.946 2.673 2.015.236-1.506-.422-3.075-1.626-3.674M193.287 127.376c.068.381.748 1.128.505 2.001-.221-.763.379-.986.495-1.574M155.305 132.38c1.406-2.423 3.16-2.014 4.998-1.912M161.302 132.38c-1.838-.56-2.918-2.794-4.997-1.709M186.29 126.524c.081.292-.045.557.065.852 3.397-1.323 7.563-2.927 11.33-3.513 1.726-.267 5.315-.568 7.05-.277 2.576.429 3.596 2.055 6.544 2.136-4.13-.648-4.505-4.174-9.933-4.342-5.211-.163-9.246 2.072-14.178 2.204M186.33 130.378c-.109.724.035 1.77.09 2.002.66-.157 1.271-.334 1.87-.851-.474.058-.774.175-.993.245M164.3 103.357c1.893-1.122 3.793-1.58 5.998-2.001" stroke="#FF161F" stroke-width=".917" stroke-linecap="round" stroke-linejoin="round"/><path d="M218.276 131.237c-1.715 1.062-7.767-4.106-8.389-7.088-.772-3.715 2.382-6.585 3.314-9.896 1.472-5.22 1.913-12.944 1.175-18.357-.885-6.476-6.155-12.561-11.095-15.791-4.048-2.646-8.6-2.014-12.976-2.768-.286 2.934 3.206 2.55 5.2 3.097 4.86 1.331 7.15 4.081 8.572 9.398.953 3.55 4.13 20.957-.4 22.397M134.315 151.394c1.504 4.86 2.085 9.938 5.75 14.03 1.88 2.101 3.11.645 3.276 4.01.076 1.587-1.37 3.865-1.647 5.478-1.32 7.642 6.556 22.726 15.903 12.18 1.55 5.036.422 13 3.875 17.203 3.84 4.681 10.995 5.279 16.702 5.882 4.837.513 21.301 1.136 19.696-7.26-1.404-1.543-7.377-2.185-7.738-3.292-.735-2.265 7.69-3.44 8.146-6.894.359-2.707-13.762 1.048-14.774 1.497-.89.39-1.566.564-2.37.84-1.277 1.665-2.225 3.106-.528 4.151 3.95 2.44 10.586-5.83 12.323-4.319M175.296 215.444c3.5 2.133 16.396 6.557 19.128 1.662.119-.006.237-.008.358-.008-.46 3.543 2.686 11.151-2.677 13.357M190.289 123.373c2.575 1.11 4.686 2.081 7.996 1.996M142.311 121.371c1.013 1.186 3.39 2.415 4.998 1.868" stroke="#FF161F" stroke-width=".917" stroke-linecap="round" stroke-linejoin="round"/><path d="M192.288 118.53c6.302 2.682 10.163-7.466 14.497-8.167.323 2.549-1.352 7.286-3.861 8.53 4.59-.546 10.931-2.109 14.1-5.916-1.484 2.74-2.399 4.774-1.235 8.515 1.588 5.114 3.62 7.494-4.083 8.886" stroke="#FF161F" stroke-width=".917" stroke-linecap="round" stroke-linejoin="round"/></g></g></svg>