<svg width="25" height="26" xmlns="http://www.w3.org/2000/svg"><path d="M24.44 6.23a23.963 23.963 0 0 1 0 10.294l-.007.03c-.603 2.445-3.322 5.07-5.819 5.615l-.028.006a32.35 32.35 0 0 1-6.086.579c-.598 0-1.197-.019-1.795-.052l-2.757 2.875c-.683.712-1.884.227-1.884-.76v-2.73c-2.403-.689-4.92-3.192-5.498-5.533l-.007-.03a23.962 23.962 0 0 1 0-10.293l.007-.03C1.17 3.755 3.889 1.13 6.385.585L6.414.58a32.244 32.244 0 0 1 12.172 0l.028.005c2.497.546 5.216 3.17 5.82 5.616l.007.03zm-8.78 11.767c.216-.066-.249-.075 0 0 .216-.066.446-.1.638-.202.68-.365 1.15-.936 1.474-1.622.177-.375.069-.737-.245-1.014-.327-.287-.68-.533-1.034-.785-.36-.257-.723-.51-1.098-.747-.374-.237-.818-.233-1.166.05-.355.29-.52.846-1.027.906-.303.035-.567-.092-.83-.202-1.644-.682-2.645-1.95-3.24-3.58a.723.723 0 0 1 .05-.636 1.09 1.09 0 0 1 .25-.265c.11-.09.216-.182.333-.262.482-.327.555-.914.29-1.394-.433-.78-.967-1.488-1.548-2.162-.27-.311-.632-.413-1-.237a3.718 3.718 0 0 0-1.246.935c-.36.427-.703 1.013-.47 1.58.254.622.505 1.248.801 1.85.627 1.271 1.367 2.471 2.314 3.535 1.664 1.87 3.765 3.09 6.048 4.035.22.091.457.142.706.217zM12.662 5.04c-.056 0 2.88.087 0 0-.056 0-.112-.002-.167 0a.369.369 0 0 0-.347.425c.046.274.315.288.52.31.326.037.655.053.977.115 2.135.408 3.846 2.309 4.144 4.607.056.435.077.876.107 1.315.015.222.118.429.35.426.223-.003.34-.214.324-.436-.038-.527-.07-1.058-.156-1.578-.506-3.05-2.872-5.097-5.752-5.184zm4.48 5.998c-.01-.218-.004.04 0 0-.01-.218-.017-.383-.028-.548-.005-.067-.02-.133-.028-.2-.196-1.47-.865-2.57-2.038-3.268-.577-.343-1.203-.5-1.852-.542-.197-.013-.33.134-.338.337-.01.217.095.357.291.388.162.025.325.044.486.073.369.069.732.184 1.068.369.556.306 1.03.811 1.34 1.413.303.585.433 1.256.434 1.929 0 .103.004.211.034.307.099.321.53.281.604-.037.02-.088.023-.181.028-.221zm-1.748-.24c.13-.01-.286.004 0 0a.337.337 0 0 0 .306-.273c.024-.103.013-.216.003-.324-.135-1.52-1.082-2.188-2.407-2.281a.409.409 0 0 0-.433.322c-.036.207.09.387.317.441.21.05.427.034.637.093.165.046.323.118.462.217.294.21.48.526.566.867.044.174.06.354.08.532.03.256.183.41.47.405z" fill="#8F5DB7" fill-rule="nonzero"/></svg>